<svg width="90" height="90" viewBox="0 0 90 90" fill="none" xmlns="http://www.w3.org/2000/svg">
<path d="M40.1205 9C38.9277 9 37.5159 8.09437 36.9813 6.98737L34.5839 2.01262C34.0504 0.905624 32.6386 0 31.4458 0H4.33735C2.16867 0 0 2.25 0 4.5V6.75C0 7.9875 0 10.0125 0 11.25V75.375C0 76.6125 3.14458 79.875 4.33735 79.875H75.9036C77.0964 79.875 80.241 76.6125 80.241 75.375V13.5C80.241 10.125 79.1566 9 75.9036 9H40.1205Z" fill="#263740"/>
<path d="M75.9038 9H71.5664C74.8194 9 75.9038 10.125 75.9038 13.5V75.375C75.9038 76.6125 72.7592 79.875 71.5664 79.875H75.9038C77.0965 79.875 80.2411 76.6125 80.2411 75.375V13.5C80.2411 10.125 79.1568 9 75.9038 9Z" fill="#1E2C33"/>
<path d="M73.735 32.625C73.735 35.1 71.7832 37.125 69.3977 37.125H10.8435C8.45791 37.125 6.5061 35.1 6.5061 32.625V19.125C6.5061 16.65 8.45791 14.625 10.8435 14.625H69.3977C71.7832 14.625 73.735 16.65 73.735 19.125V32.625Z" fill="white"/>
<path d="M75.9036 27H4.33735C2.16867 27 0 29.25 0 31.5V75.375C0 77.625 2.16867 79.875 4.33735 79.875H75.9036C78.0723 79.875 80.241 77.625 80.241 75.375V31.5C80.241 29.25 78.0723 27 75.9036 27Z" fill="#849C96"/>
<path d="M75.9038 27H71.5664C73.7351 27 75.9038 29.25 75.9038 31.5V75.375C75.9038 77.625 73.7351 79.875 71.5664 79.875H75.9038C78.0724 79.875 80.2411 77.625 80.2411 75.375V31.5C80.2411 29.25 78.0724 27 75.9038 27Z" fill="#849C96"/>
<path d="M71.5663 90C61.4017 90 53.1326 81.4207 53.1326 70.875C53.1326 60.3292 61.4017 51.75 71.5663 51.75C81.7309 51.75 90 60.3292 90 70.875C90 81.4207 81.7309 90 71.5663 90Z" fill="#D9E6E8"/>
<path d="M71.5664 85.5001C79.3516 85.5001 85.6627 78.9523 85.6627 70.8751C85.6627 62.798 79.3516 56.2501 71.5664 56.2501C63.7811 56.2501 57.47 62.798 57.47 70.8751C57.47 78.9523 63.7811 85.5001 71.5664 85.5001Z" fill="#2D4452"/>
<path d="M63.9482 63.0579V77.8271H78.1836V63.0579H63.9482ZM65.0404 64.4382H77.0915V76.4467H65.0404V64.4382V64.4382ZM67.5245 66.1718C67.1846 66.1718 66.8986 66.3157 66.6669 66.6038C66.4352 66.8919 66.3194 67.2474 66.3194 67.6699C66.3194 68.0732 66.4352 68.4187 66.6669 68.7067C66.8986 68.9948 67.1846 69.1388 67.5245 69.1388C67.8489 69.1388 68.1268 68.9948 68.3586 68.7067C68.5903 68.4187 68.7061 68.0732 68.7061 67.6699C68.7061 67.2474 68.5903 66.8919 68.3586 66.6038C68.1269 66.3157 67.8489 66.1718 67.5245 66.1718ZM72.6455 66.9019L69.9112 72.0583L68.4594 70.5602L66.3194 74.0165V75.0253H75.8125V70.9728L72.6455 66.9019Z" fill="white"/>
</svg>
