<svg width="24" height="24" viewBox="0 0 24 24" fill="none" xmlns="http://www.w3.org/2000/svg">
<path d="M8 12C8 12.4641 7.81563 12.9092 7.48744 13.2374C7.15925 13.5656 6.71413 13.75 6.25 13.75C5.78587 13.75 5.34075 13.5656 5.01256 13.2374C4.68437 12.9092 4.5 12.4641 4.5 12C4.5 11.5359 4.68437 11.0908 5.01256 10.7626C5.34075 10.4344 5.78587 10.25 6.25 10.25C6.71413 10.25 7.15925 10.4344 7.48744 10.7626C7.81563 11.0908 8 11.5359 8 12Z" fill="#333333"/>
<path d="M13.75 12C13.75 12.4641 13.5656 12.9092 13.2374 13.2374C12.9092 13.5656 12.4641 13.75 12 13.75C11.5359 13.75 11.0908 13.5656 10.7626 13.2374C10.4344 12.9092 10.25 12.4641 10.25 12C10.25 11.5359 10.4344 11.0908 10.7626 10.7626C11.0908 10.4344 11.5359 10.25 12 10.25C12.4641 10.25 12.9092 10.4344 13.2374 10.7626C13.5656 11.0908 13.75 11.5359 13.75 12Z" fill="#333333"/>
<path d="M17.75 13.75C18.2141 13.75 18.6592 13.5656 18.9874 13.2374C19.3156 12.9092 19.5 12.4641 19.5 12C19.5 11.5359 19.3156 11.0908 18.9874 10.7626C18.6592 10.4344 18.2141 10.25 17.75 10.25C17.2859 10.25 16.8408 10.4344 16.5126 10.7626C16.1844 11.0908 16 11.5359 16 12C16 12.4641 16.1844 12.9092 16.5126 13.2374C16.8408 13.5656 17.2859 13.75 17.75 13.75Z" fill="#333333"/>
</svg>
