<svg width="114" height="35" viewBox="0 0 114 35" fill="none" xmlns="http://www.w3.org/2000/svg">
<rect width="114" height="35" rx="5" fill="#E25340"/>
<path d="M28.592 18.416C28.592 17.328 28.8427 16.352 29.344 15.488C29.856 14.624 30.544 13.952 31.408 13.472C32.2827 12.9813 33.2373 12.736 34.272 12.736C35.456 12.736 36.5067 13.0293 37.424 13.616C38.352 14.192 39.024 15.0133 39.44 16.08H37.248C36.96 15.4933 36.56 15.056 36.048 14.768C35.536 14.48 34.944 14.336 34.272 14.336C33.536 14.336 32.88 14.5013 32.304 14.832C31.728 15.1627 31.2747 15.6373 30.944 16.256C30.624 16.8747 30.464 17.5947 30.464 18.416C30.464 19.2373 30.624 19.9573 30.944 20.576C31.2747 21.1947 31.728 21.6747 32.304 22.016C32.88 22.3467 33.536 22.512 34.272 22.512C34.944 22.512 35.536 22.368 36.048 22.08C36.56 21.792 36.96 21.3547 37.248 20.768H39.44C39.024 21.8347 38.352 22.656 37.424 23.232C36.5067 23.808 35.456 24.096 34.272 24.096C33.2267 24.096 32.272 23.856 31.408 23.376C30.544 22.8853 29.856 22.208 29.344 21.344C28.8427 20.48 28.592 19.504 28.592 18.416ZM40.967 19.552C40.967 18.6667 41.1483 17.8827 41.511 17.2C41.8843 16.5173 42.3857 15.9893 43.015 15.616C43.655 15.232 44.359 15.04 45.127 15.04C45.8203 15.04 46.423 15.1787 46.935 15.456C47.4577 15.7227 47.8737 16.0587 48.183 16.464V15.184H50.023V24H48.183V22.688C47.8737 23.104 47.4523 23.4507 46.919 23.728C46.3857 24.0053 45.7777 24.144 45.095 24.144C44.3377 24.144 43.6443 23.952 43.015 23.568C42.3857 23.1733 41.8843 22.6293 41.511 21.936C41.1483 21.232 40.967 20.4373 40.967 19.552ZM48.183 19.584C48.183 18.976 48.055 18.448 47.799 18C47.5537 17.552 47.2283 17.2107 46.823 16.976C46.4177 16.7413 45.9803 16.624 45.511 16.624C45.0417 16.624 44.6043 16.7413 44.199 16.976C43.7937 17.2 43.463 17.536 43.207 17.984C42.9617 18.4213 42.839 18.944 42.839 19.552C42.839 20.16 42.9617 20.6933 43.207 21.152C43.463 21.6107 43.7937 21.9627 44.199 22.208C44.615 22.4427 45.0523 22.56 45.511 22.56C45.9803 22.56 46.4177 22.4427 46.823 22.208C47.2283 21.9733 47.5537 21.632 47.799 21.184C48.055 20.7253 48.183 20.192 48.183 19.584ZM56.8668 15.04C57.5601 15.04 58.1788 15.184 58.7228 15.472C59.2774 15.76 59.7094 16.1867 60.0188 16.752C60.3281 17.3173 60.4828 18 60.4828 18.8V24H58.6748V19.072C58.6748 18.2827 58.4774 17.68 58.0828 17.264C57.6881 16.8373 57.1494 16.624 56.4668 16.624C55.7841 16.624 55.2401 16.8373 54.8348 17.264C54.4401 17.68 54.2428 18.2827 54.2428 19.072V24H52.4188V15.184H54.2428V16.192C54.5414 15.8293 54.9201 15.5467 55.3788 15.344C55.8481 15.1413 56.3441 15.04 56.8668 15.04ZM62.2014 19.584C62.2014 18.6773 62.3827 17.8827 62.7454 17.2C63.1187 16.5067 63.6307 15.9733 64.2814 15.6C64.932 15.2267 65.6787 15.04 66.5214 15.04C67.588 15.04 68.468 15.296 69.1614 15.808C69.8654 16.3093 70.34 17.0293 70.5854 17.968H68.6174C68.4574 17.5307 68.2014 17.1893 67.8494 16.944C67.4974 16.6987 67.0547 16.576 66.5214 16.576C65.7747 16.576 65.1774 16.8427 64.7294 17.376C64.292 17.8987 64.0734 18.6347 64.0734 19.584C64.0734 20.5333 64.292 21.2747 64.7294 21.808C65.1774 22.3413 65.7747 22.608 66.5214 22.608C67.5774 22.608 68.276 22.144 68.6174 21.216H70.5854C70.3294 22.112 69.8494 22.8267 69.1454 23.36C68.4414 23.8827 67.5667 24.144 66.5214 24.144C65.6787 24.144 64.932 23.9573 64.2814 23.584C63.6307 23.2 63.1187 22.6667 62.7454 21.984C62.3827 21.2907 62.2014 20.4907 62.2014 19.584ZM80.4831 19.376C80.4831 19.7067 80.4618 20.0053 80.4191 20.272H73.6831C73.7365 20.976 73.9978 21.5413 74.4671 21.968C74.9365 22.3947 75.5125 22.608 76.1951 22.608C77.1765 22.608 77.8698 22.1973 78.2751 21.376H80.2431C79.9765 22.1867 79.4911 22.8533 78.7871 23.376C78.0938 23.888 77.2298 24.144 76.1951 24.144C75.3525 24.144 74.5951 23.9573 73.9231 23.584C73.2618 23.2 72.7391 22.6667 72.3551 21.984C71.9818 21.2907 71.7951 20.4907 71.7951 19.584C71.7951 18.6773 71.9765 17.8827 72.3391 17.2C72.7125 16.5067 73.2298 15.9733 73.8911 15.6C74.5631 15.2267 75.3311 15.04 76.1951 15.04C77.0271 15.04 77.7685 15.2213 78.4191 15.584C79.0698 15.9467 79.5765 16.4587 79.9391 17.12C80.3018 17.7707 80.4831 18.5227 80.4831 19.376ZM78.5791 18.8C78.5685 18.128 78.3285 17.5893 77.8591 17.184C77.3898 16.7787 76.8085 16.576 76.1151 16.576C75.4858 16.576 74.9471 16.7787 74.4991 17.184C74.0511 17.5787 73.7845 18.1173 73.6991 18.8H78.5791ZM84.1021 12.16V24H82.2781V12.16H84.1021Z" fill="white"/>
</svg>
