<svg width="114" height="35" viewBox="0 0 114 35" fill="none" xmlns="http://www.w3.org/2000/svg">
<rect width="114" height="35" rx="5" fill="#849C96"/>
<path d="M31.008 12.88V19.968C31.008 20.8107 31.2267 21.4453 31.664 21.872C32.112 22.2987 32.7307 22.512 33.52 22.512C34.32 22.512 34.9387 22.2987 35.376 21.872C35.824 21.4453 36.048 20.8107 36.048 19.968V12.88H37.872V19.936C37.872 20.8427 37.6747 21.6107 37.28 22.24C36.8853 22.8693 36.3573 23.3387 35.696 23.648C35.0347 23.9573 34.304 24.112 33.504 24.112C32.704 24.112 31.9733 23.9573 31.312 23.648C30.6613 23.3387 30.144 22.8693 29.76 22.24C29.376 21.6107 29.184 20.8427 29.184 19.936V12.88H31.008ZM44.6949 15.04C45.3882 15.04 46.0069 15.184 46.5509 15.472C47.1055 15.76 47.5375 16.1867 47.8469 16.752C48.1562 17.3173 48.3109 18 48.3109 18.8V24H46.5029V19.072C46.5029 18.2827 46.3055 17.68 45.9109 17.264C45.5162 16.8373 44.9775 16.624 44.2949 16.624C43.6122 16.624 43.0682 16.8373 42.6629 17.264C42.2682 17.68 42.0709 18.2827 42.0709 19.072V24H40.2469V15.184H42.0709V16.192C42.3695 15.8293 42.7482 15.5467 43.2069 15.344C43.6762 15.1413 44.1722 15.04 44.6949 15.04ZM55.1975 15.04C55.8695 15.04 56.4668 15.184 56.9895 15.472C57.5228 15.76 57.9388 16.1867 58.2375 16.752C58.5468 17.3173 58.7015 18 58.7015 18.8V24H56.8935V19.072C56.8935 18.2827 56.6962 17.68 56.3015 17.264C55.9068 16.8373 55.3682 16.624 54.6855 16.624C54.0028 16.624 53.4588 16.8373 53.0535 17.264C52.6588 17.68 52.4615 18.2827 52.4615 19.072V24H50.6375V12.16H52.4615V16.208C52.7708 15.8347 53.1602 15.5467 53.6295 15.344C54.1095 15.1413 54.6322 15.04 55.1975 15.04ZM61.9561 14.016C61.6255 14.016 61.3481 13.904 61.1241 13.68C60.9001 13.456 60.7881 13.1787 60.7881 12.848C60.7881 12.5173 60.9001 12.24 61.1241 12.016C61.3481 11.792 61.6255 11.68 61.9561 11.68C62.2761 11.68 62.5481 11.792 62.7721 12.016C62.9961 12.24 63.1081 12.5173 63.1081 12.848C63.1081 13.1787 62.9961 13.456 62.7721 13.68C62.5481 13.904 62.2761 14.016 61.9561 14.016ZM62.8521 15.184V24H61.0281V15.184H62.8521ZM64.6389 19.552C64.6389 18.6667 64.8202 17.8827 65.1829 17.2C65.5562 16.5173 66.0575 15.9893 66.6869 15.616C67.3269 15.232 68.0362 15.04 68.8149 15.04C69.3909 15.04 69.9562 15.168 70.5109 15.424C71.0762 15.6693 71.5242 16 71.8549 16.416V12.16H73.6949V24H71.8549V22.672C71.5562 23.0987 71.1402 23.4507 70.6069 23.728C70.0842 24.0053 69.4815 24.144 68.7989 24.144C68.0309 24.144 67.3269 23.952 66.6869 23.568C66.0575 23.1733 65.5562 22.6293 65.1829 21.936C64.8202 21.232 64.6389 20.4373 64.6389 19.552ZM71.8549 19.584C71.8549 18.976 71.7269 18.448 71.4709 18C71.2255 17.552 70.9002 17.2107 70.4949 16.976C70.0895 16.7413 69.6522 16.624 69.1829 16.624C68.7135 16.624 68.2762 16.7413 67.8709 16.976C67.4655 17.2 67.1349 17.536 66.8789 17.984C66.6335 18.4213 66.5109 18.944 66.5109 19.552C66.5109 20.16 66.6335 20.6933 66.8789 21.152C67.1349 21.6107 67.4655 21.9627 67.8709 22.208C68.2869 22.4427 68.7242 22.56 69.1829 22.56C69.6522 22.56 70.0895 22.4427 70.4949 22.208C70.9002 21.9733 71.2255 21.632 71.4709 21.184C71.7269 20.7253 71.8549 20.192 71.8549 19.584ZM84.1706 19.376C84.1706 19.7067 84.1493 20.0053 84.1066 20.272H77.3706C77.424 20.976 77.6853 21.5413 78.1546 21.968C78.624 22.3947 79.2 22.608 79.8826 22.608C80.864 22.608 81.5573 22.1973 81.9626 21.376H83.9306C83.664 22.1867 83.1786 22.8533 82.4746 23.376C81.7813 23.888 80.9173 24.144 79.8826 24.144C79.04 24.144 78.2826 23.9573 77.6106 23.584C76.9493 23.2 76.4266 22.6667 76.0426 21.984C75.6693 21.2907 75.4826 20.4907 75.4826 19.584C75.4826 18.6773 75.664 17.8827 76.0266 17.2C76.4 16.5067 76.9173 15.9733 77.5786 15.6C78.2506 15.2267 79.0186 15.04 79.8826 15.04C80.7146 15.04 81.456 15.2213 82.1066 15.584C82.7573 15.9467 83.264 16.4587 83.6266 17.12C83.9893 17.7707 84.1706 18.5227 84.1706 19.376ZM82.2666 18.8C82.256 18.128 82.016 17.5893 81.5466 17.184C81.0773 16.7787 80.496 16.576 79.8026 16.576C79.1733 16.576 78.6346 16.7787 78.1866 17.184C77.7386 17.5787 77.472 18.1173 77.3866 18.8H82.2666Z" fill="white"/>
</svg>
