<svg width="24" height="24" viewBox="0 0 24 24" fill="none" xmlns="http://www.w3.org/2000/svg">
<path d="M12.0116 9.1547C11.3108 9.1547 10.6546 9.42657 10.1577 9.92344C9.66317 10.4203 9.38895 11.0766 9.38895 11.7774C9.38895 12.4781 9.66317 13.1344 10.1577 13.6313C10.6546 14.1258 11.3108 14.4 12.0116 14.4C12.7124 14.4 13.3686 14.1258 13.8655 13.6313C14.36 13.1344 14.6343 12.4781 14.6343 11.7774C14.6343 11.0766 14.36 10.4203 13.8655 9.92344C13.6228 9.67889 13.334 9.485 13.0157 9.35303C12.6974 9.22106 12.3561 9.15364 12.0116 9.1547ZM21.6749 14.6742L20.1421 13.3641C20.2147 12.9188 20.2522 12.4641 20.2522 12.0117C20.2522 11.5594 20.2147 11.1024 20.1421 10.6594L21.6749 9.34923C21.7907 9.2501 21.8736 9.11808 21.9125 8.97071C21.9514 8.82334 21.9446 8.66761 21.8929 8.52423L21.8718 8.46329C21.4499 7.28366 20.8178 6.19022 20.0061 5.23594L19.964 5.18673C19.8654 5.07083 19.734 4.98752 19.5872 4.94778C19.4403 4.90803 19.2849 4.91371 19.1413 4.96407L17.2382 5.64141C16.535 5.06485 15.7522 4.61016 14.9038 4.29376L14.5358 2.30391C14.5081 2.15401 14.4353 2.01611 14.3273 1.90852C14.2193 1.80093 14.0811 1.72875 13.9311 1.70157L13.8679 1.68985C12.6491 1.46954 11.3647 1.46954 10.146 1.68985L10.0827 1.70157C9.93269 1.72875 9.79451 1.80093 9.6865 1.90852C9.57849 2.01611 9.50578 2.15401 9.47801 2.30391L9.1077 4.30313C8.2673 4.62206 7.48441 5.07565 6.78973 5.6461L4.87255 4.96407C4.72903 4.91331 4.57346 4.90742 4.42652 4.94719C4.27957 4.98696 4.14821 5.07051 4.04989 5.18673L4.0077 5.23594C3.19745 6.19123 2.56553 7.2844 2.14208 8.46329L2.12098 8.52423C2.01551 8.8172 2.10223 9.14532 2.33895 9.34923L3.89051 10.6734C3.81786 11.1141 3.7827 11.5641 3.7827 12.0094C3.7827 12.4594 3.81786 12.9094 3.89051 13.3453L2.34364 14.6695C2.22785 14.7687 2.14497 14.9007 2.10604 15.0481C2.0671 15.1954 2.07395 15.3512 2.12567 15.4945L2.14676 15.5555C2.57098 16.7344 3.19676 17.8242 4.01239 18.7828L4.05458 18.832C4.15314 18.9479 4.28451 19.0312 4.43136 19.071C4.57822 19.1107 4.73367 19.1051 4.87723 19.0547L6.79442 18.3727C7.49286 18.9469 8.27098 19.4016 9.11239 19.7156L9.4827 21.7149C9.51046 21.8648 9.58318 22.0027 9.69119 22.1102C9.79919 22.2178 9.93738 22.29 10.0874 22.3172L10.1507 22.3289C11.3814 22.5504 12.6418 22.5504 13.8725 22.3289L13.9358 22.3172C14.0858 22.29 14.224 22.2178 14.332 22.1102C14.44 22.0027 14.5128 21.8648 14.5405 21.7149L14.9085 19.725C15.7569 19.4063 16.5397 18.9539 17.2429 18.3774L19.146 19.0547C19.2895 19.1055 19.4451 19.1113 19.592 19.0716C19.739 19.0318 19.8703 18.9483 19.9686 18.832L20.0108 18.7828C20.8265 17.8195 21.4522 16.7344 21.8765 15.5555L21.8975 15.4945C21.9983 15.2039 21.9116 14.8781 21.6749 14.6742ZM12.0116 15.8977C9.73583 15.8977 7.8913 14.0531 7.8913 11.7774C7.8913 9.50157 9.73583 7.65704 12.0116 7.65704C14.2874 7.65704 16.1319 9.50157 16.1319 11.7774C16.1319 14.0531 14.2874 15.8977 12.0116 15.8977Z" fill="#333333"/>
</svg>
