<svg width="243" height="221" viewBox="0 0 243 221" fill="none" xmlns="http://www.w3.org/2000/svg">
<path d="M53.8546 50.2869L8.61011 80.5526L53.1757 147.174L98.4202 116.909L53.8546 50.2869Z" fill="#F5F5F5"/>
<path d="M75.0398 113.757L74.5277 116.935L52.0347 113.693L52.5468 110.515L75.0398 113.757Z" fill="#E0E0E0"/>
<path d="M63.7129 102.422L66.9389 102.886L63.3621 125.032L60.1321 124.564L63.7129 102.422Z" fill="#E0E0E0"/>
<path d="M43.0143 74.2757C43.0466 74.3201 38.5141 77.413 32.8889 81.1712C27.2636 84.9295 22.6787 87.9458 22.6464 87.8974C22.6142 87.849 27.1466 84.7601 32.7719 80.9978C38.3972 77.2355 42.9619 74.2273 43.0143 74.2757Z" fill="#E0E0E0"/>
<path d="M59.6358 70.098C59.6681 70.1464 52.1274 75.2434 42.7963 81.4857C33.4652 87.7279 25.8599 92.7483 25.8358 92.704C25.8116 92.6596 33.3361 87.5545 42.6793 81.3123C52.0225 75.07 59.6036 70.0496 59.6358 70.098Z" fill="#E0E0E0"/>
<path d="M62.9705 75.082C63.0028 75.1304 55.4621 80.2315 46.131 86.4737C36.7999 92.7159 29.1947 97.7364 29.1705 97.688C29.1463 97.6396 36.6789 92.5426 46.014 86.2963C55.3492 80.05 62.9383 75.0336 62.9705 75.082Z" fill="#E0E0E0"/>
<path d="M66.3056 80.0703C66.3379 80.1187 58.7972 85.2197 49.4661 91.458C40.135 97.6962 32.5298 102.725 32.5298 102.676C32.5298 102.628 40.0342 97.5268 49.3693 91.2846C58.7045 85.0423 66.2734 80.0219 66.3056 80.0703Z" fill="#E0E0E0"/>
<path d="M69.6286 85.058C69.6608 85.1064 62.1201 90.2034 52.789 96.4456C43.4579 102.688 35.8527 107.708 35.8326 107.66C35.8124 107.611 43.3491 102.514 52.6923 96.2722C62.0355 90.03 69.6286 85.0096 69.6286 85.058Z" fill="#E0E0E0"/>
<path d="M205.147 94.9274L167.149 120.346L204.576 176.295L242.574 150.877L205.147 94.9274Z" fill="#F5F5F5"/>
<path d="M222.942 148.243L222.511 150.912L203.619 148.19L204.054 145.521L222.942 148.243Z" fill="#E0E0E0"/>
<path d="M213.43 138.722L216.14 139.114L213.135 157.711L210.422 157.32L213.43 138.722Z" fill="#E0E0E0"/>
<path d="M196.03 115.104C196.062 115.153 192.26 117.754 187.534 120.911C182.808 124.068 178.953 126.593 178.92 126.556C178.888 126.52 182.695 123.911 187.417 120.75C192.139 117.588 195.998 115.036 196.03 115.104Z" fill="#E0E0E0"/>
<path d="M210.002 111.575C210.035 111.624 203.708 115.914 195.889 121.153C188.07 126.391 181.67 130.609 181.638 130.56C181.606 130.512 187.933 126.221 195.752 120.979C203.571 115.737 209.958 111.527 210.002 111.575Z" fill="#E0E0E0"/>
<path d="M212.805 115.761C212.837 115.81 206.51 120.1 198.692 125.342C190.873 130.585 184.473 134.795 184.441 134.746C184.409 134.698 190.715 130.427 198.554 125.185C206.393 119.943 212.781 115.717 212.805 115.761Z" fill="#E0E0E0"/>
<path d="M215.603 119.943C215.635 119.992 209.305 124.282 201.49 129.524C193.675 134.767 187.271 138.976 187.239 138.928C187.207 138.88 193.534 134.593 201.352 129.347C209.171 124.101 215.575 119.903 215.603 119.943Z" fill="#E0E0E0"/>
<path d="M218.426 124.141C218.458 124.189 212.131 128.476 204.312 133.718C196.493 138.96 190.094 143.17 190.062 143.126C190.029 143.081 196.356 138.787 204.175 133.544C211.994 128.302 218.374 124.092 218.426 124.141Z" fill="#E0E0E0"/>
<path d="M145.032 52.7381L103.571 30.5629L70.919 91.6126L112.38 113.788L145.032 52.7381Z" fill="#F5F5F5"/>
<path d="M105.283 94.6878L102.654 95.587L95.9763 77.1304L98.6095 76.2272L105.283 94.6878Z" fill="#E0E0E0"/>
<path d="M109.316 81.4452L110.276 84.0945L91.9441 90.373L90.9844 87.7237L109.316 81.4452Z" fill="#E0E0E0"/>
<path d="M122.341 54.2137C122.308 54.2742 118.107 52.0886 112.949 49.3345C107.792 46.5803 103.642 44.2939 103.675 44.2334C103.707 44.1729 107.913 46.3585 113.07 49.1127C118.228 51.8668 122.373 54.1492 122.341 54.2137Z" fill="#E0E0E0"/>
<path d="M132.293 65.1944C132.26 65.2549 125.3 61.5934 116.748 57.0206C108.195 52.4478 101.291 48.6895 101.323 48.629C101.356 48.5685 108.312 52.226 116.864 56.8028C125.417 61.3797 132.325 65.1339 132.293 65.1944Z" fill="#E0E0E0"/>
<path d="M129.849 69.7631C129.817 69.8236 122.857 66.1661 114.304 61.5893C105.751 57.0125 98.8477 53.2582 98.88 53.1978C98.9123 53.1373 105.868 56.7987 114.421 61.3716C122.974 65.9444 129.882 69.7026 129.849 69.7631Z" fill="#E0E0E0"/>
<path d="M127.405 74.3321C127.373 74.3926 120.413 70.7352 111.86 66.1624C103.307 61.5896 96.4039 57.8434 96.4361 57.7708C96.4684 57.6982 103.424 61.3678 111.977 65.9406C120.53 70.5134 127.438 74.2716 127.405 74.3321Z" fill="#E0E0E0"/>
<path d="M124.962 78.9005C124.93 78.961 117.97 75.3036 109.417 70.7308C100.864 66.158 93.9563 62.3997 93.9926 62.3392C94.0289 62.2788 100.981 65.9362 109.534 70.509C118.086 75.0818 124.994 78.8401 124.962 78.9005Z" fill="#E0E0E0"/>
<path opacity="0.2" d="M125.176 0.985596H124.135V18.7203H125.176V0.985596Z" fill="black"/>
<path d="M100.368 40.1769H148.943C148.943 40.1769 144.459 18.7283 124.289 18.7283C106.348 18.7283 100.368 40.1769 100.368 40.1769Z" fill="black"/>
<path d="M125.176 0.985596H124.136V18.7203H125.176V0.985596Z" fill="black"/>
<path d="M232.81 178.345C232.81 178.402 180.69 178.45 116.409 178.45C52.1276 178.45 0 178.414 0 178.345C0 178.277 52.1114 178.24 116.409 178.24C180.706 178.24 232.81 178.285 232.81 178.345Z" fill="#263238"/>
<path d="M12.8879 153.09C13.5697 153.139 14.2345 153.325 14.8428 153.637C15.4511 153.949 15.9904 154.38 16.4284 154.905C17.2993 155.96 17.916 157.202 18.2309 158.534C18.9124 161.082 18.493 164.095 17.7672 166.631C15.009 165.643 13.3032 162.699 12.525 161.151C11.3152 158.707 10.5934 153.546 12.8758 153.086" fill="#B8B2B1"/>
<path d="M21.7394 169.724C21.3252 169.082 21.0884 168.341 21.053 167.578C21.0176 166.814 21.1848 166.055 21.5378 165.377C21.9018 164.706 22.396 164.114 22.9914 163.635C23.5868 163.157 24.2716 162.802 25.0057 162.591C25.6791 162.381 26.4614 162.297 27.0461 162.688C27.3097 162.887 27.515 163.153 27.6405 163.459C27.7661 163.765 27.8073 164.099 27.7599 164.426C27.654 165.081 27.3757 165.696 26.9534 166.208C25.6106 168.027 23.9815 169.539 21.7112 169.724" fill="#B8B2B1"/>
<path d="M22.0453 178.244C21.9854 178.073 21.9435 177.896 21.9203 177.716C21.8477 177.337 21.7509 176.849 21.6339 176.264C21.272 174.663 21.1712 173.014 21.3355 171.381C21.5257 169.74 22.1507 168.179 23.1461 166.861C23.4502 166.466 23.8009 166.11 24.1905 165.8C24.2964 165.716 24.4068 165.638 24.5212 165.566C24.5576 165.536 24.5984 165.512 24.6422 165.494C24.1321 165.929 23.6661 166.414 23.251 166.941C22.3081 168.261 21.7144 169.798 21.5251 171.409C21.267 173.288 21.5856 175.01 21.7711 176.248C21.8678 176.865 21.9485 177.365 21.9928 177.712C22.0246 177.888 22.0421 178.066 22.0453 178.244Z" fill="#263238"/>
<path d="M13.7751 156.973C13.8212 157.037 13.8591 157.106 13.8881 157.179C13.9606 157.34 14.0574 157.542 14.1703 157.796C14.4163 158.332 14.7591 159.11 15.1744 160.074C16.0051 162.006 17.1181 164.691 18.2794 167.683C19.4408 170.675 20.4287 173.405 21.1021 175.393C21.4489 176.385 21.7191 177.192 21.9086 177.752C21.9933 178.018 22.0578 178.232 22.1102 178.397C22.139 178.472 22.1593 178.549 22.1707 178.627C22.1298 178.559 22.0973 178.486 22.0739 178.41C22.0135 178.248 21.9368 178.039 21.836 177.776L20.9852 175.438C20.2634 173.466 19.2553 170.74 18.0979 167.752C16.9406 164.764 15.8438 162.07 15.0454 160.126C14.6421 159.171 14.3316 158.392 14.1018 157.824C13.9969 157.566 13.9123 157.36 13.8477 157.195C13.8174 157.123 13.7932 157.049 13.7751 156.973Z" fill="#263238"/>
<path d="M18.7671 172.607C17.9373 171.226 16.7907 170.061 15.422 169.211C14.0533 168.36 12.5018 167.848 10.8957 167.716C10.0892 167.659 9.09724 167.796 8.73432 168.522C8.3714 169.248 8.85529 170.135 9.41177 170.724C10.5941 171.961 12.1162 172.82 13.7861 173.193C15.4559 173.566 17.1989 173.437 18.7953 172.821" fill="#B8B2B1"/>
<path d="M12.1375 169.901C12.3084 169.892 12.4798 169.899 12.6496 169.921C12.8484 169.932 13.0464 169.955 13.2424 169.99C13.4722 170.034 13.7424 170.058 14.0247 170.139C14.3402 170.206 14.6513 170.292 14.9562 170.397C15.3094 170.51 15.6555 170.645 15.9925 170.8C16.7677 171.147 17.501 171.582 18.1781 172.095C18.8474 172.62 19.4536 173.22 19.9846 173.885C20.2139 174.174 20.4254 174.477 20.6177 174.792C20.7916 175.064 20.9504 175.346 21.0936 175.635C21.2147 175.871 21.3224 176.113 21.4162 176.361C21.497 176.544 21.5657 176.733 21.6218 176.925C21.6815 177.086 21.7261 177.252 21.7549 177.421C21.7105 177.421 21.517 176.728 20.9726 175.696C20.8243 175.418 20.6615 175.149 20.4847 174.889C20.2881 174.584 20.0755 174.289 19.8475 174.006C18.7928 172.703 17.4477 171.664 15.9199 170.974C15.5691 170.82 15.2344 170.675 14.9078 170.57C14.6079 170.461 14.3023 170.368 13.9924 170.292C12.8633 169.982 12.1334 169.945 12.1375 169.901Z" fill="#263238"/>
<path d="M195.183 43.5192C193.997 43.7893 193.421 45.1563 193.308 46.3661C193.195 47.5758 193.348 48.8581 192.84 49.963C192.267 51.205 190.9 52.1244 190.856 53.4914C190.828 54.3262 191.324 55.1044 191.299 55.9472C191.259 57.3182 189.864 58.3667 189.787 59.7216C189.735 60.7095 190.392 61.6531 190.235 62.629C190.114 63.3871 189.521 63.9839 189.271 64.7097C188.775 66.1614 189.771 67.7542 191.066 68.5688C191.791 69.0247 192.607 69.3168 193.456 69.4246C194.306 69.5325 195.169 69.4534 195.985 69.1931C196.801 68.9327 197.551 68.4973 198.181 67.9172C198.811 67.3371 199.307 66.6265 199.635 65.8348C200.352 64.0928 200.195 62.129 200.038 60.2539C199.554 54.4041 199.194 48.5463 198.957 42.6804" fill="#263238"/>
<path d="M191.739 64.1577C191.983 64.0061 192.173 63.7819 192.283 63.5165C192.4 63.2009 192.446 62.8639 192.42 62.5286C192.376 62.0839 192.277 61.6465 192.126 61.2261C191.933 60.6976 191.862 60.1326 191.916 59.5728C192.017 58.9437 192.469 58.4276 192.876 57.9195C193.095 57.6708 193.279 57.3925 193.421 57.0928C193.563 56.7897 193.586 56.4443 193.485 56.125C193.275 55.4677 192.63 54.9838 192.336 54.2217C192.197 53.8444 192.175 53.4344 192.271 53.0442C192.363 52.6784 192.498 52.325 192.675 51.9918C193.015 51.3915 193.286 50.7543 193.481 50.0925C193.763 48.8142 193.63 47.5923 193.824 46.5883C193.931 45.7841 194.288 45.0338 194.844 44.443C195.001 44.2839 195.181 44.1481 195.376 44.0397C195.444 44.0046 195.516 43.9788 195.59 43.9631C195.337 44.1023 195.105 44.276 194.9 44.4793C194.385 45.076 194.061 45.8134 193.969 46.5963C193.898 47.1312 193.861 47.6698 193.856 48.2093C193.855 48.8442 193.793 49.4775 193.671 50.1005C193.478 50.7776 193.207 51.4298 192.864 52.0442C192.562 52.6773 192.283 53.4192 192.55 54.1128C192.816 54.8064 193.457 55.2863 193.703 56.0282C193.814 56.3948 193.787 56.7894 193.626 57.1372C193.469 57.467 193.265 57.7726 193.021 58.0445C192.618 58.5526 192.179 59.0365 192.082 59.601C192.025 60.1365 192.089 60.6778 192.267 61.1858C192.411 61.6192 192.501 62.0689 192.533 62.5245C192.553 62.8754 192.491 63.2261 192.352 63.5488C192.265 63.7511 192.126 63.9265 191.949 64.0569C191.886 64.1031 191.815 64.1372 191.739 64.1577Z" fill="#455A64"/>
<path d="M188.585 73.7185L184.956 84.2029L169.778 85.0094L167.246 90.6548L183.093 92.2678C183.842 92.5752 184.645 92.7276 185.454 92.7158C186.264 92.7041 187.062 92.5283 187.802 92.1993C188.541 91.8703 189.206 91.3948 189.757 90.8015C190.307 90.2082 190.732 89.5094 191.005 88.7475L195.235 76.9404L188.585 73.7185Z" fill="#F3C7B6"/>
<path d="M219.962 172.647C219.962 172.647 208.841 137.314 208.603 136.169C208.389 135.129 212.635 109.704 213.175 103.103L198.146 103.663V103.813L191.759 104.167L197.477 176.397H204.393L203.707 152.424C207.974 163.872 214.087 175.542 214.087 175.542L219.962 172.647Z" fill="#F3C7B6"/>
<path d="M203.99 161.026C203.99 160.808 203.905 152.993 203.905 152.993C203.82 153.461 201.256 146.21 201.316 145.771C201.348 145.541 203.99 161.026 203.99 161.026Z" fill="#F9E7E1"/>
<path d="M201.026 142.335C200.991 142.479 200.976 142.627 200.982 142.775C200.96 143.178 200.96 143.581 200.982 143.984C200.982 144.238 201.018 144.513 201.05 144.811C201.083 145.109 201.127 145.424 201.196 145.751C201.339 146.464 201.529 147.167 201.764 147.856C202.264 149.319 202.821 150.598 203.212 151.525C203.397 151.928 203.559 152.311 203.696 152.618C203.745 152.76 203.813 152.896 203.897 153.021C203.876 152.882 203.835 152.746 203.776 152.618C203.684 152.352 203.542 151.969 203.373 151.497C203.018 150.553 202.486 149.263 201.99 147.815C201.755 147.137 201.563 146.445 201.413 145.743C201.341 145.42 201.292 145.109 201.248 144.819C201.204 144.529 201.171 144.255 201.151 144.013C201.103 143.513 201.083 143.109 201.071 142.827C201.078 142.662 201.063 142.496 201.026 142.335Z" fill="#F9E7E1"/>
<path d="M197.348 176.764V176.115L204.433 175.804L204.453 178.486L204.018 178.514C202.07 178.627 194.118 178.958 192.82 178.567C191.364 178.131 197.348 176.764 197.348 176.764Z" fill="#455A64"/>
<path d="M204.546 178.325C204.506 178.327 204.466 178.327 204.425 178.325L204.078 178.349L202.796 178.405C201.715 178.45 200.219 178.49 198.57 178.498C196.921 178.506 195.421 178.478 194.336 178.446L193.058 178.393H192.707H192.586C192.626 178.39 192.667 178.39 192.707 178.393H193.058L194.34 178.417C195.421 178.417 196.917 178.45 198.566 178.442C200.215 178.434 201.715 178.405 202.796 178.377L204.078 178.345H204.546V178.325Z" fill="#263238"/>
<path d="M195.038 178.55C194.979 178.339 194.898 178.135 194.796 177.941C194.668 177.762 194.521 177.599 194.356 177.453C194.576 177.532 194.759 177.69 194.868 177.897C195.002 178.087 195.062 178.319 195.038 178.55Z" fill="#263238"/>
<path d="M197.126 177.49C197.126 177.49 197.009 177.381 196.904 177.22C196.799 177.059 196.735 176.917 196.755 176.905C196.775 176.893 196.872 177.01 196.977 177.171C197.082 177.333 197.146 177.478 197.126 177.49Z" fill="#263238"/>
<path d="M197.699 177.203C197.699 177.224 197.57 177.147 197.449 177.038C197.328 176.929 197.239 176.828 197.256 176.812C197.272 176.796 197.385 176.869 197.506 176.978C197.627 177.087 197.715 177.167 197.699 177.203Z" fill="#263238"/>
<path d="M198.058 176.518C197.939 176.562 197.813 176.578 197.687 176.567C197.563 176.583 197.438 176.571 197.32 176.53C197.437 176.487 197.562 176.471 197.687 176.482C197.812 176.465 197.939 176.477 198.058 176.518Z" fill="#263238"/>
<path d="M198.179 176.05C198.059 176.128 197.919 176.17 197.776 176.171C197.639 176.189 197.499 176.17 197.372 176.115C197.506 176.092 197.64 176.082 197.776 176.083C197.909 176.059 198.044 176.048 198.179 176.05Z" fill="#263238"/>
<path d="M196.888 176.873C196.738 176.901 196.583 176.901 196.433 176.873C196.27 176.853 196.109 176.818 195.953 176.768C195.856 176.741 195.763 176.703 195.675 176.655C195.621 176.623 195.581 176.573 195.562 176.514C195.554 176.48 195.557 176.445 195.569 176.413C195.581 176.381 195.603 176.353 195.63 176.332C195.742 176.278 195.864 176.25 195.988 176.249C196.112 176.247 196.235 176.274 196.348 176.326C196.461 176.378 196.56 176.454 196.64 176.55C196.719 176.645 196.777 176.757 196.808 176.877C196.816 176.917 196.816 176.958 196.808 176.998C196.762 176.852 196.691 176.716 196.598 176.595C196.491 176.474 196.351 176.387 196.195 176.344C196.016 176.287 195.822 176.301 195.655 176.385C195.586 176.437 195.614 176.522 195.691 176.57C195.773 176.615 195.86 176.651 195.949 176.679C196.101 176.729 196.255 176.768 196.413 176.796C196.715 176.861 196.888 176.861 196.888 176.873Z" fill="#263238"/>
<path d="M196.772 176.897C196.713 176.804 196.693 176.691 196.715 176.583C196.73 176.464 196.773 176.351 196.84 176.252C196.878 176.185 196.932 176.128 196.998 176.087C197.063 176.046 197.138 176.023 197.215 176.018C197.261 176.029 197.301 176.056 197.327 176.095C197.353 176.134 197.364 176.182 197.356 176.228C197.347 176.3 197.32 176.369 197.28 176.429C197.219 176.53 197.147 176.623 197.066 176.708C196.996 176.788 196.907 176.85 196.808 176.889C196.808 176.889 196.897 176.809 197.022 176.663C197.094 176.58 197.158 176.49 197.211 176.393C197.272 176.296 197.316 176.123 197.211 176.103C197.106 176.083 196.985 176.208 196.917 176.296C196.853 176.384 196.809 176.484 196.788 176.591C196.771 176.692 196.766 176.795 196.772 176.897Z" fill="#263238"/>
<path d="M204.397 176.397C204.397 176.397 204.196 176.397 203.877 176.417C203.462 176.467 203.07 176.632 202.744 176.894C202.418 177.155 202.172 177.503 202.034 177.897C201.929 178.2 201.921 178.405 201.905 178.401C201.889 178.397 201.905 178.349 201.905 178.26C201.915 178.13 201.94 178.002 201.978 177.877C202.106 177.464 202.353 177.098 202.687 176.825C203.026 176.556 203.438 176.394 203.869 176.361C204.003 176.345 204.138 176.345 204.272 176.361C204.315 176.368 204.357 176.38 204.397 176.397Z" fill="#263238"/>
<path d="M201.006 177.76C200.667 177.839 200.32 177.873 199.973 177.861C199.628 177.878 199.282 177.848 198.945 177.772C198.945 177.748 199.405 177.772 199.973 177.772C200.542 177.772 201.002 177.736 201.006 177.76Z" fill="#263238"/>
<path d="M202.385 177.748C202.385 177.748 202.348 177.845 202.3 177.95C202.251 178.055 202.227 178.151 202.203 178.147C202.179 178.143 202.167 178.039 202.223 177.914C202.28 177.789 202.368 177.728 202.385 177.748Z" fill="#263238"/>
<path d="M202.905 177.099C202.905 177.099 202.877 177.187 202.804 177.26C202.731 177.332 202.659 177.381 202.639 177.365C202.618 177.349 202.667 177.276 202.739 177.199C202.812 177.123 202.885 177.078 202.905 177.099Z" fill="#263238"/>
<path d="M203.647 176.8C203.647 176.824 203.55 176.824 203.445 176.861C203.34 176.897 203.268 176.954 203.248 176.937C203.228 176.921 203.288 176.824 203.417 176.78C203.546 176.736 203.655 176.776 203.647 176.8Z" fill="#263238"/>
<path d="M204.175 176.655C204.175 176.679 204.147 176.716 204.087 176.736C204.026 176.756 203.974 176.76 203.966 176.736C203.958 176.712 203.998 176.675 204.054 176.655C204.111 176.635 204.167 176.635 204.175 176.655Z" fill="#263238"/>
<path d="M213.946 176.139L213.68 175.546L220.015 172.365L221.132 174.784L220.729 174.99C218.999 175.889 211.881 179.446 210.534 179.623C209.047 179.837 213.946 176.139 213.946 176.139Z" fill="#455A64"/>
<path d="M221.156 174.61L221.051 174.675L220.74 174.836L219.595 175.417C218.627 175.897 217.281 176.546 215.777 177.232C214.272 177.917 212.893 178.502 211.893 178.917L210.704 179.397L210.381 179.522C210.344 179.539 210.305 179.551 210.264 179.558L210.373 179.506L210.692 179.365L211.869 178.861C212.865 178.433 214.236 177.836 215.74 177.151C217.244 176.465 218.595 175.828 219.571 175.361L220.724 174.808L221.043 174.659L221.156 174.61Z" fill="#263238"/>
<path d="M212.587 178.712C212.447 178.542 212.289 178.387 212.115 178.252C211.926 178.14 211.724 178.051 211.514 177.986C211.746 177.983 211.973 178.051 212.164 178.181C212.356 178.31 212.504 178.496 212.587 178.712Z" fill="#263238"/>
<path d="M214.043 176.89C214.043 176.89 213.89 176.841 213.728 176.736C213.567 176.631 213.45 176.531 213.462 176.51C213.474 176.49 213.616 176.559 213.777 176.664C213.938 176.769 214.055 176.869 214.043 176.89Z" fill="#263238"/>
<path d="M214.438 176.397C214.438 176.417 214.301 176.397 214.143 176.349C213.986 176.3 213.869 176.24 213.873 176.216C213.975 176.206 214.078 176.223 214.172 176.264C214.325 176.3 214.446 176.357 214.438 176.397Z" fill="#263238"/>
<path d="M214.494 175.623C214.494 175.647 214.361 175.732 214.176 175.821C214.069 175.885 213.949 175.925 213.825 175.938C213.825 175.914 213.958 175.829 214.139 175.74C214.248 175.676 214.369 175.636 214.494 175.623Z" fill="#263238"/>
<path d="M214.413 175.147C214.413 175.147 214.296 175.308 214.087 175.425C213.968 175.506 213.827 175.548 213.683 175.546C213.799 175.468 213.922 175.402 214.05 175.349C214.248 175.24 214.393 175.127 214.413 175.147Z" fill="#263238"/>
<path d="M213.587 176.429C213.464 176.514 213.328 176.576 213.184 176.615C213.025 176.661 212.864 176.695 212.7 176.716C212.601 176.728 212.501 176.728 212.401 176.716C212.339 176.711 212.281 176.682 212.24 176.635C212.221 176.606 212.211 176.572 212.211 176.538C212.211 176.504 212.221 176.47 212.24 176.441C212.363 176.293 212.533 176.191 212.722 176.155C212.911 176.118 213.107 176.148 213.276 176.24C213.377 176.292 213.464 176.365 213.535 176.453C213.583 176.518 213.603 176.558 213.599 176.562C213.5 176.451 213.381 176.36 213.248 176.292C213.106 176.225 212.948 176.202 212.793 176.224C212.7 176.233 212.611 176.261 212.529 176.305C212.447 176.349 212.375 176.409 212.317 176.482C212.272 176.558 212.317 176.623 212.426 176.635C212.518 176.643 212.611 176.643 212.704 176.635C212.864 176.619 213.023 176.59 213.18 176.55C213.41 176.486 213.587 176.417 213.587 176.429Z" fill="#263238"/>
<path d="M213.474 176.498C213.384 176.434 213.321 176.339 213.297 176.232C213.261 176.118 213.253 175.998 213.273 175.881C213.279 175.803 213.306 175.729 213.35 175.665C213.394 175.601 213.453 175.549 213.523 175.514C213.623 175.482 213.857 175.687 213.873 175.764C213.89 175.841 213.756 175.8 213.748 175.865C213.735 175.979 213.708 176.092 213.668 176.199C213.638 176.303 213.583 176.398 213.506 176.474C213.506 176.474 213.555 176.365 213.611 176.183C213.64 176.076 213.66 175.967 213.672 175.857C213.672 175.744 213.672 175.57 213.543 175.599C213.414 175.627 213.377 175.784 213.349 175.897C213.325 176.002 213.325 176.111 213.349 176.216C213.382 176.313 213.424 176.408 213.474 176.498Z" fill="#263238"/>
<path d="M220.228 172.913C220.228 172.913 220.035 172.981 219.761 173.147C219.402 173.361 219.11 173.671 218.918 174.042C218.731 174.416 218.652 174.835 218.688 175.252C218.712 175.574 218.789 175.76 218.773 175.768C218.747 175.728 218.726 175.684 218.712 175.639C218.672 175.515 218.644 175.388 218.627 175.26C218.57 174.83 218.644 174.393 218.841 174.007C219.037 173.621 219.347 173.304 219.728 173.098C219.842 173.035 219.963 172.984 220.087 172.945C220.132 172.927 220.18 172.917 220.228 172.913Z" fill="#263238"/>
<path d="M217.692 175.55C217.123 175.946 216.488 176.235 215.817 176.405C215.817 176.381 216.24 176.22 216.756 176.002C217.273 175.784 217.68 175.53 217.692 175.55Z" fill="#263238"/>
<path d="M218.946 174.974C218.966 174.974 218.946 175.074 218.946 175.191C218.946 175.308 218.946 175.405 218.946 175.413C218.946 175.421 218.865 175.325 218.865 175.191C218.865 175.058 218.926 174.962 218.946 174.974Z" fill="#263238"/>
<path d="M219.152 174.167C219.172 174.167 219.152 174.26 219.128 174.357C219.104 174.453 219.043 174.526 219.023 174.518C219.003 174.51 219.023 174.425 219.047 174.328C219.071 174.232 219.128 174.159 219.152 174.167Z" fill="#263238"/>
<path d="M219.708 173.574C219.708 173.599 219.627 173.635 219.547 173.711C219.466 173.788 219.422 173.869 219.401 173.861C219.381 173.853 219.401 173.74 219.49 173.647C219.579 173.554 219.704 173.574 219.708 173.574Z" fill="#263238"/>
<path d="M220.132 173.244C220.132 173.244 220.132 173.309 220.083 173.353C220.035 173.397 219.99 173.421 219.974 173.405C219.958 173.389 219.974 173.341 220.023 173.296C220.071 173.252 220.115 173.228 220.132 173.244Z" fill="#263238"/>
<path d="M212.2 91.167L211.022 76.7712L217.071 76.88C217.071 76.88 217.349 74.7549 216.458 70.1015C215.91 67.2465 214.01 65.4964 211.877 64.456V64.4157L211.692 64.3673C209.936 63.579 208.06 63.0897 206.143 62.9197L198.703 63.0044C198.703 63.0044 193.021 62.2785 189.888 66.3473C188.679 67.9078 184.924 78.5898 184.924 78.5898L193.856 82.8884L193.021 76.9647C193.021 76.9647 193.191 81.2593 193.739 82.6102C194.042 83.3683 194.949 85.7232 194.949 85.7232L194.832 92.8284L212.2 91.167Z" fill="white"/>
<path d="M208.098 74.6822L206.993 79.3841H217.409L216.724 71.4966L208.098 74.6822Z" fill="white"/>
<path d="M217.41 79.3844C216.954 79.3005 216.493 79.2547 216.03 79.2473C215.176 79.1989 214.014 79.1545 212.692 79.1626C211.369 79.1706 210.204 79.2271 209.349 79.2916C208.886 79.3077 208.426 79.3644 207.974 79.461C208.435 79.4978 208.899 79.4978 209.361 79.461C210.212 79.4328 211.377 79.4005 212.692 79.3965C214.006 79.3924 215.172 79.3965 216.026 79.4166C216.488 79.4425 216.95 79.4317 217.41 79.3844Z" fill="#263238"/>
<path d="M207.647 71.4601C207.597 71.8613 207.586 72.2665 207.615 72.6698C207.615 73.4078 207.647 74.4239 207.691 75.549C207.736 76.674 207.788 77.6943 207.836 78.4282C207.838 78.8347 207.882 79.2401 207.966 79.6379C208.015 79.2366 208.026 78.8315 207.998 78.4282C207.998 77.6902 207.966 76.67 207.921 75.545C207.877 74.4199 207.824 73.4037 207.776 72.6658C207.774 72.2605 207.731 71.8565 207.647 71.4601Z" fill="#263238"/>
<g opacity="0.3">
<path opacity="0.3" d="M198.171 75.5332C198.171 75.5332 200.486 92.6994 206.994 92.2437C206.994 92.2437 209.926 92.2114 210.865 90.2638V89.4976L198.171 75.5332Z" fill="black"/>
</g>
<g opacity="0.3">
<path opacity="0.3" d="M207.647 72.4727L206.401 80.8884L207.208 82.3643L208.539 79.477L207.974 79.4609L207.647 72.4727Z" fill="black"/>
</g>
<path d="M194.913 85.7314C194.835 85.6057 194.776 85.47 194.735 85.3281C194.634 85.066 194.501 84.6829 194.332 84.2031C193.928 82.9527 193.596 81.6805 193.336 80.3924C193.077 79.1036 192.913 77.7977 192.844 76.485C192.82 75.9809 192.812 75.5736 192.82 75.2752C192.809 75.1295 192.819 74.9829 192.848 74.8397C192.88 74.8397 192.904 75.4607 192.989 76.4527C193.103 77.7535 193.287 79.0472 193.542 80.3279C193.84 81.828 194.199 83.1708 194.473 84.1345C194.602 84.5821 194.711 84.9652 194.8 85.2798C194.855 85.4253 194.893 85.5769 194.913 85.7314Z" fill="#263238"/>
<path d="M197.542 90.6627C197.486 90.6627 197.324 90.3119 197.183 89.8563C197.062 89.577 197.008 89.2731 197.026 88.9691C197.204 89.2155 197.326 89.4975 197.385 89.7958C197.5 90.0696 197.554 90.3657 197.542 90.6627Z" fill="#263238"/>
<path d="M198.441 90.5984C198.136 89.7895 198.123 88.8995 198.405 88.0822C198.436 88.5009 198.436 88.9215 198.405 89.3403C198.449 89.7581 198.461 90.1787 198.441 90.5984Z" fill="#263238"/>
<path d="M194.037 83.0859C194.009 83.1343 191.932 82.1504 189.396 80.8842C186.86 79.618 184.823 78.5454 184.847 78.493C184.872 78.4405 186.952 79.4285 189.489 80.6947C192.025 81.9609 194.062 83.0335 194.037 83.0859Z" fill="#263238"/>
<path d="M197.699 64.3956C197.743 62.3551 197.755 60.2099 197.755 60.2099C197.755 60.2099 195.138 59.7058 194.682 56.2621C194.247 52.9797 195.465 45.2736 195.465 45.2736C199.288 43.83 203.259 45.1406 205.877 48.2375L205.227 64.7988C205.151 66.7223 203.437 68.1901 201.38 68.0933C199.3 67.9925 197.654 66.3392 197.699 64.3956Z" fill="#F3C7B6"/>
<path d="M195.263 51.4312C195.26 51.5443 195.3 51.6544 195.375 51.7391C195.45 51.8238 195.554 51.8767 195.667 51.8869C195.724 51.8924 195.782 51.8863 195.836 51.8687C195.891 51.8512 195.942 51.8227 195.985 51.785C196.029 51.7472 196.064 51.7011 196.089 51.6493C196.114 51.5975 196.128 51.5411 196.13 51.4837C196.134 51.371 196.094 51.2614 196.019 51.1773C195.944 51.0933 195.839 51.0413 195.727 51.032C195.67 51.0233 195.611 51.0271 195.555 51.0432C195.499 51.0592 195.448 51.0872 195.404 51.1251C195.36 51.163 195.324 51.21 195.3 51.2628C195.276 51.3157 195.263 51.3731 195.263 51.4312Z" fill="#263238"/>
<path d="M195.102 50.8545C195.155 50.911 195.506 50.6731 195.969 50.6892C196.433 50.7053 196.776 50.9473 196.832 50.8908C196.889 50.8344 196.808 50.7618 196.659 50.6449C196.457 50.4986 196.215 50.4183 195.965 50.415C195.72 50.4056 195.478 50.4764 195.276 50.6166C195.127 50.7255 195.074 50.8263 195.102 50.8545Z" fill="#263238"/>
<path d="M200.066 51.7293C200.061 51.8426 200.101 51.9533 200.176 52.0382C200.251 52.1231 200.356 52.1757 200.469 52.185C200.527 52.1938 200.586 52.1899 200.642 52.1736C200.698 52.1573 200.75 52.129 200.794 52.0906C200.839 52.0523 200.874 52.0048 200.898 51.9514C200.922 51.8981 200.934 51.8402 200.933 51.7818C200.938 51.6689 200.898 51.5587 200.823 51.4744C200.747 51.3901 200.642 51.3384 200.53 51.3301C200.472 51.3214 200.414 51.3252 200.358 51.3413C200.302 51.3573 200.25 51.3853 200.206 51.4232C200.162 51.4611 200.127 51.5081 200.103 51.5609C200.078 51.6138 200.066 51.6712 200.066 51.7293Z" fill="#263238"/>
<path d="M200.034 51.1528C200.086 51.2133 200.437 50.9754 200.9 50.9875C201.364 50.9996 201.707 51.2456 201.767 51.1891C201.828 51.1327 201.739 51.0601 201.59 50.9472C201.391 50.7971 201.149 50.715 200.9 50.7133C200.654 50.7059 200.411 50.7765 200.207 50.9149C200.062 51.0238 200.009 51.1246 200.034 51.1528Z" fill="#263238"/>
<path d="M198.227 54.6168C197.98 54.5317 197.722 54.4789 197.461 54.4596C197.34 54.4596 197.227 54.4152 197.211 54.3346C197.201 54.2085 197.232 54.0827 197.3 53.9757L197.679 53.0684C198.031 52.2972 198.321 51.4989 198.546 50.6812C198.133 51.4221 197.779 52.1947 197.489 52.9918C197.364 53.3103 197.239 53.6168 197.122 53.9071C197.044 54.0512 197.018 54.218 197.05 54.3789C197.065 54.4226 197.091 54.4621 197.125 54.4943C197.158 54.5265 197.199 54.5504 197.243 54.5644C197.31 54.5838 197.379 54.5946 197.449 54.5967C197.706 54.6363 197.968 54.6431 198.227 54.6168Z" fill="#263238"/>
<path d="M197.755 60.21C199.368 60.2746 200.968 59.8907 202.376 59.1011C202.376 59.1011 201.203 61.4278 197.779 61.0205L197.755 60.21Z" fill="#F9E7E1"/>
<path d="M201.55 49.778C201.453 49.9272 201.09 49.8626 200.687 49.778C200.284 49.6933 199.929 49.6247 199.881 49.4513C199.832 49.2779 200.256 49.0481 200.796 49.157C201.336 49.2658 201.647 49.6489 201.55 49.778Z" fill="#263238"/>
<path d="M196.844 49.0925C196.808 49.2659 196.421 49.3304 195.977 49.3506C195.533 49.3707 195.142 49.3506 195.09 49.1731C195.037 48.9957 195.412 48.7457 195.949 48.7215C196.485 48.6973 196.88 48.9271 196.844 49.0925Z" fill="#263238"/>
<path d="M198.235 55.7499C198.184 55.7379 198.131 55.7432 198.083 55.7652C198.036 55.7871 197.997 55.8243 197.973 55.8709C197.95 55.912 197.938 55.9585 197.939 56.0055C197.939 56.0526 197.952 56.0988 197.976 56.1394C198 56.18 198.034 56.2137 198.075 56.2371C198.116 56.2605 198.162 56.2728 198.209 56.2728C198.256 56.2728 198.303 56.2605 198.343 56.2371C198.384 56.2137 198.418 56.18 198.442 56.1394C198.466 56.0988 198.479 56.0526 198.479 56.0055C198.48 55.9585 198.468 55.912 198.445 55.8709C198.416 55.8168 198.37 55.7741 198.313 55.7499C198.257 55.7257 198.194 55.7214 198.135 55.7378" fill="#F9E7E1"/>
<path d="M198.344 55.7985C198.344 55.7783 198.267 55.6614 198.062 55.7058C198 55.7218 197.944 55.7537 197.899 55.7983C197.853 55.8429 197.821 55.8986 197.804 55.9598C197.782 56.037 197.784 56.1189 197.809 56.1951C197.834 56.2712 197.881 56.3381 197.945 56.3873C198.012 56.4332 198.091 56.4578 198.173 56.4578C198.254 56.4578 198.333 56.4332 198.4 56.3873C198.454 56.3511 198.496 56.3004 198.522 56.2411C198.548 56.1818 198.556 56.1164 198.546 56.0526C198.505 55.8388 198.348 55.8066 198.34 55.8348C198.332 55.863 198.396 55.9356 198.384 56.0606C198.382 56.0915 198.371 56.1213 198.354 56.1473C198.338 56.1733 198.315 56.1948 198.287 56.2098C198.256 56.2279 198.221 56.2374 198.185 56.2374C198.148 56.2374 198.113 56.2279 198.082 56.2098C198.054 56.186 198.032 56.1552 198.019 56.1206C198.007 56.086 198.003 56.0486 198.009 56.0122C198.014 55.9804 198.026 55.9501 198.045 55.9241C198.064 55.8981 198.089 55.8771 198.118 55.863C198.231 55.7945 198.332 55.8267 198.344 55.7985Z" fill="#263238"/>
<path d="M204.312 52.2822C203.909 53.2258 202.909 53.9556 203.046 54.9759C203.135 55.6331 203.558 56.2461 203.477 56.9074C203.373 57.7139 202.514 58.3107 202.389 59.1374C202.239 60.1495 203.227 60.9358 203.619 61.8794C204.195 63.2585 203.461 64.807 203.441 66.3151C203.465 67.4601 203.903 68.5577 204.674 69.4045C205.445 70.2512 206.497 70.7897 207.635 70.9202C208.554 70.9968 209.591 70.7186 210.054 69.9282C210.458 69.2749 210.369 68.4443 210.603 67.7224C210.958 66.6418 211.986 65.8514 212.216 64.7384C212.619 62.7222 210.159 61.0286 210.321 58.964C210.389 58.0808 210.933 57.3147 211.163 56.4598C211.31 55.898 211.321 55.3095 211.196 54.7425C211.071 54.1755 210.814 53.646 210.446 53.1975C209.837 52.4757 208.958 51.9878 208.429 51.2136C207.845 50.3224 207.824 49.1973 207.623 48.1449C207.352 46.8656 206.761 45.6759 205.906 44.6869C205.051 43.6979 203.958 42.9419 202.732 42.4896C201.505 42.0372 200.183 41.9034 198.891 42.1004C197.598 42.2975 196.376 42.8191 195.34 43.6164C195.34 43.6164 194.755 46.2738 197.485 46.7214C200.215 47.169 201.477 46.6529 201.784 47.7457C201.712 48.1958 201.747 48.6567 201.887 49.0906C202.027 49.5244 202.268 49.9189 202.59 50.2418C203.703 51.4434 204.764 51.1853 204.312 52.2822Z" fill="#263238"/>
<path d="M208.647 70.7142C208.563 70.7171 208.479 70.709 208.397 70.69C208.161 70.6481 207.928 70.5847 207.703 70.5005C206.871 70.1813 206.141 69.6419 205.59 68.9399C205.205 68.4556 204.902 67.9105 204.695 67.327C204.46 66.6624 204.336 65.9634 204.328 65.2583C204.32 64.4812 204.418 63.7065 204.619 62.9558C204.729 62.5593 204.863 62.17 205.022 61.7904C205.188 61.4125 205.335 61.0262 205.461 60.6331C205.572 60.2457 205.572 59.8349 205.461 59.4475C205.343 59.0662 205.191 58.6963 205.006 58.3426C204.819 57.9919 204.661 57.6264 204.534 57.2498C204.41 56.8771 204.381 56.4793 204.449 56.0925C204.611 55.3344 205.07 54.7699 205.345 54.1932C205.606 53.6595 205.73 53.0692 205.707 52.4754C205.671 51.6064 205.355 50.7723 204.808 50.0963C204.596 49.8595 204.369 49.6372 204.127 49.4309C204.409 49.5898 204.662 49.7973 204.873 50.0438C205.46 50.7188 205.806 51.57 205.857 52.4633C205.89 53.083 205.768 53.7012 205.502 54.2618C205.224 54.8586 204.776 55.4272 204.639 56.1208C204.502 56.8143 204.828 57.5442 205.187 58.2459C205.383 58.6097 205.542 58.9919 205.663 59.387C205.782 59.8089 205.782 60.2555 205.663 60.6774C205.529 61.0842 205.374 61.484 205.199 61.8751C205.041 62.2465 204.906 62.6277 204.796 63.0163C204.596 63.748 204.497 64.5037 204.502 65.2623C204.489 66.5543 204.906 67.8139 205.687 68.8432C206.21 69.5363 206.905 70.0801 207.703 70.4198C208.304 70.6537 208.651 70.69 208.647 70.7142Z" fill="#455A64"/>
<path d="M208.244 50.3666C208.047 50.4175 207.846 50.4472 207.643 50.4553C207.09 50.5145 206.531 50.4996 205.982 50.4109C205.565 50.3493 205.165 50.2052 204.805 49.9871C204.445 49.769 204.132 49.4812 203.885 49.1407C203.654 48.7099 203.471 48.2557 203.337 47.7858C203.164 47.3165 202.841 46.9178 202.417 46.6527C201.534 46.0922 200.498 46.0236 199.594 45.9147C198.761 45.8732 197.952 45.6207 197.243 45.1808C196.769 44.8663 196.426 44.3885 196.28 43.838C196.245 43.6888 196.235 43.5348 196.252 43.3824C196.252 43.2775 196.276 43.2251 196.284 43.2251C196.289 43.4248 196.314 43.6235 196.36 43.8179C196.527 44.3326 196.87 44.7722 197.328 45.0599C198.024 45.4658 198.81 45.693 199.615 45.7212C200.518 45.826 201.59 45.8785 202.534 46.4753C202.996 46.7652 203.348 47.2008 203.534 47.7132C203.66 48.1712 203.835 48.6145 204.054 49.0359C204.524 49.6802 205.228 50.1145 206.014 50.2456C206.546 50.3444 207.087 50.381 207.627 50.3545C207.833 50.3429 208.039 50.347 208.244 50.3666Z" fill="#455A64"/>
<path d="M207.244 47.0843C207.092 47.1351 206.932 47.1583 206.772 47.1529C206.02 47.1579 205.297 46.8684 204.756 46.3464C204.509 46.099 204.299 45.818 204.131 45.5116C203.768 44.8987 203.417 44.1446 202.663 43.8301C201.936 43.5864 201.163 43.5187 200.405 43.6325C199.765 43.7223 199.117 43.7223 198.477 43.6325C198.032 43.5708 197.614 43.3865 197.268 43.1002C197.178 43.0223 197.099 42.9328 197.034 42.8341C196.985 42.7642 196.965 42.7279 196.973 42.7252C196.973 42.7252 197.086 42.8543 197.32 43.0357C197.665 43.281 198.065 43.4362 198.485 43.4874C199.113 43.5581 199.747 43.5473 200.373 43.4551C201.163 43.3259 201.974 43.3952 202.732 43.6567C203.121 43.8317 203.454 44.1108 203.695 44.4632C203.908 44.7776 204.103 45.1033 204.28 45.4391C204.439 45.7321 204.636 46.0033 204.865 46.2456C205.067 46.4504 205.3 46.6231 205.554 46.7577C205.929 46.9535 206.342 47.0676 206.764 47.0924C207.074 47.0883 207.24 47.0641 207.244 47.0843Z" fill="#455A64"/>
<path d="M209.849 69.8435C209.829 69.8435 209.958 69.5774 210.107 69.0773C210.309 68.3754 210.399 67.6459 210.373 66.9159C210.344 65.8354 210.049 64.7787 209.514 63.8392C209.22 63.3109 208.772 62.8391 208.405 62.2585C208.211 61.9626 208.074 61.633 208.002 61.2866C207.938 60.9221 207.969 60.5473 208.091 60.1979C208.317 59.5002 208.72 58.9155 208.809 58.2744C208.897 57.6332 208.591 57.0647 208.284 56.5283C208.126 56.2674 207.982 55.9981 207.853 55.7218C207.735 55.4539 207.657 55.1698 207.623 54.8791C207.585 54.3667 207.601 53.8517 207.671 53.3427C207.8 52.6232 207.733 51.8822 207.478 51.1974C207.364 50.9575 207.202 50.7435 207.002 50.5684C207.002 50.5684 207.022 50.5684 207.05 50.5926C207.098 50.6163 207.142 50.6476 207.179 50.6853C207.337 50.8167 207.465 50.9803 207.554 51.1652C207.846 51.8558 207.937 52.6148 207.817 53.3548C207.761 53.8543 207.754 54.3581 207.796 54.8589C207.896 55.4223 208.119 55.9566 208.45 56.4235C208.622 56.696 208.769 56.9835 208.889 57.2824C209.016 57.6051 209.058 57.9551 209.01 58.2986C208.913 59.0043 208.498 59.6011 208.288 60.2584C208.178 60.5755 208.149 60.9151 208.204 61.2463C208.274 61.5667 208.402 61.8715 208.583 62.1455C208.925 62.7061 209.389 63.1859 209.684 63.7384C210.224 64.7096 210.512 65.8006 210.522 66.9119C210.535 67.6558 210.42 68.3963 210.184 69.1015C210.119 69.2924 210.041 69.4784 209.95 69.658C209.925 69.7243 209.891 69.7868 209.849 69.8435Z" fill="#455A64"/>
<path d="M193.424 144.98C193.424 144.98 190.707 119.237 190.549 109.724C190.392 100.212 194.828 90.8242 194.828 90.8242L212.2 90.1024C212.2 90.1024 215.635 99.7521 215.696 103.813C215.817 111.692 213.603 119.471 213.857 125.721L214.438 144.996" fill="#263238"/>
<path d="M215.022 113.33C214.932 113.409 214.836 113.481 214.736 113.548L214.579 113.656L214.409 113.822C214.26 113.951 214.125 114.096 214.006 114.253C213.446 114.939 213.038 116.169 212.647 117.697C212.447 118.545 212.152 119.367 211.768 120.149C211.651 120.363 211.516 120.566 211.365 120.758C211.292 120.854 211.224 120.959 211.139 121.052L210.873 121.318C210.492 121.674 210.049 121.959 209.566 122.157C208.594 122.584 207.494 122.786 206.494 123.29C205.469 123.841 204.677 124.743 204.264 125.83C203.772 126.923 203.457 128.068 203.054 129.141C202.651 130.214 202.106 131.238 201.239 131.891C200.41 132.467 199.426 132.778 198.417 132.782C197.481 132.839 196.614 132.811 195.836 132.928C195.135 133 194.466 133.253 193.892 133.661C193.473 133.989 193.159 134.432 192.989 134.936C192.881 135.254 192.857 135.594 192.92 135.924C192.969 136.15 193.029 136.258 193.017 136.262C192.952 136.161 192.906 136.049 192.88 135.932C192.795 135.595 192.806 135.242 192.912 134.912C193.072 134.383 193.389 133.915 193.82 133.569C194.408 133.125 195.104 132.847 195.836 132.762C196.642 132.633 197.501 132.649 198.425 132.589C199.404 132.582 200.359 132.279 201.163 131.718C201.978 131.006 202.579 130.082 202.901 129.048C203.304 127.988 203.598 126.839 204.11 125.726C204.544 124.594 205.372 123.656 206.441 123.084C207.482 122.568 208.582 122.371 209.53 121.959C209.994 121.767 210.42 121.494 210.788 121.153L211.042 120.899C211.123 120.81 211.191 120.709 211.264 120.616C211.406 120.433 211.532 120.237 211.639 120.032C212.025 119.261 212.324 118.449 212.53 117.612C212.933 116.088 213.373 114.842 213.966 114.152C214.084 113.995 214.219 113.852 214.369 113.725C214.433 113.669 214.49 113.612 214.546 113.568L214.712 113.463C214.812 113.412 214.916 113.368 215.022 113.33Z" fill="#FAFAFA"/>
<path d="M215.127 101.417C215.146 101.531 215.154 101.645 215.151 101.76C215.15 102.093 215.11 102.425 215.03 102.748C214.683 103.928 214.001 104.981 213.067 105.781C212.45 106.348 211.774 106.846 211.05 107.269C210.272 107.728 209.413 108.168 208.53 108.668C207.603 109.165 206.739 109.773 205.957 110.478C205.156 111.274 204.496 112.2 204.006 113.216C203.511 114.247 202.947 115.243 202.316 116.196C201.996 116.641 201.625 117.047 201.211 117.406C200.803 117.753 200.355 118.05 199.876 118.289C199.01 118.715 198.107 119.062 197.179 119.326C196.316 119.592 195.509 119.83 194.808 120.132C194.171 120.385 193.565 120.71 193.001 121.1C192.577 121.394 192.196 121.746 191.868 122.144C191.594 122.49 191.365 122.87 191.187 123.273C191.215 123.162 191.253 123.052 191.299 122.947C191.432 122.642 191.601 122.355 191.803 122.092C192.125 121.676 192.506 121.31 192.933 121.003C193.499 120.599 194.109 120.261 194.751 119.995C195.528 119.678 196.321 119.403 197.126 119.168C198.042 118.898 198.932 118.55 199.788 118.128C200.242 117.891 200.668 117.604 201.058 117.273C201.456 116.919 201.813 116.521 202.123 116.088C202.744 115.139 203.304 114.15 203.796 113.128C204.302 112.088 204.984 111.144 205.812 110.337C206.607 109.621 207.488 109.007 208.433 108.507C209.32 108.011 210.179 107.579 210.958 107.123C211.679 106.715 212.355 106.231 212.974 105.68C213.9 104.904 214.588 103.882 214.958 102.732C215.061 102.301 215.118 101.86 215.127 101.417Z" fill="#FAFAFA"/>
<path d="M190.638 111.071C190.622 111.046 190.61 111.019 190.602 110.991C190.572 110.913 190.546 110.833 190.525 110.753C190.456 110.432 190.47 110.099 190.566 109.785C190.791 108.978 191.683 107.942 193.118 107.43C193.836 107.184 194.646 107.027 195.493 106.817C196.196 106.7 196.862 106.417 197.433 105.992C198.005 105.566 198.467 105.01 198.78 104.369C199.009 103.899 199.21 103.416 199.381 102.922C199.696 101.848 200.124 100.811 200.659 99.8287C201.271 98.8628 202.201 98.14 203.288 97.7843C204.277 97.4634 205.286 97.2075 206.308 97.0181C207.221 96.8429 208.104 96.5416 208.933 96.1229C209.636 95.7216 210.241 95.171 210.708 94.5099C211.396 93.5554 211.789 92.4196 211.837 91.2436C211.839 90.8121 211.81 90.3809 211.752 89.9532C211.874 90.3722 211.93 90.8075 211.917 91.2436C211.902 92.445 211.522 93.6134 210.829 94.5946C210.357 95.2775 209.738 95.8465 209.018 96.26C208.178 96.6944 207.281 97.0079 206.353 97.1915C205.34 97.3838 204.34 97.641 203.361 97.9617C202.317 98.3037 201.424 98.9979 200.836 99.9255C200.31 100.895 199.887 101.917 199.574 102.974C199.4 103.477 199.194 103.969 198.957 104.446C198.718 104.904 198.414 105.325 198.054 105.696C197.346 106.342 196.474 106.781 195.534 106.966C194.679 107.184 193.872 107.321 193.166 107.555C191.767 108.031 190.88 109.011 190.642 109.793C190.544 110.095 190.518 110.415 190.566 110.728C190.6 110.84 190.624 110.955 190.638 111.071Z" fill="#FAFAFA"/>
<path d="M213.635 132.846C213.652 132.93 213.661 133.015 213.664 133.1C213.671 133.345 213.646 133.589 213.587 133.826C213.334 134.701 212.798 135.466 212.063 136.004C211.572 136.395 211.029 136.715 210.45 136.956C209.833 137.218 209.151 137.427 208.433 137.649C207.688 137.867 206.959 138.136 206.252 138.456C205.517 138.807 204.858 139.299 204.312 139.903C203.724 140.516 203.215 141.19 202.651 141.786C202.111 142.364 201.484 142.854 200.792 143.238C199.615 143.88 198.298 144.224 196.957 144.238C196.059 144.248 195.166 144.099 194.32 143.799C194.09 143.719 193.866 143.624 193.65 143.512C193.572 143.48 193.497 143.438 193.429 143.387C193.51 143.41 193.589 143.438 193.667 143.472C193.888 143.567 194.114 143.65 194.344 143.722C195.189 143.987 196.072 144.111 196.957 144.089C198.268 144.055 199.552 143.705 200.699 143.069C201.369 142.689 201.977 142.209 202.502 141.645C203.054 141.057 203.558 140.387 204.159 139.758C204.737 139.131 205.433 138.624 206.208 138.266C206.926 137.945 207.665 137.676 208.421 137.46C209.131 137.242 209.809 137.056 210.438 136.79C211 136.56 211.529 136.255 212.01 135.883C212.733 135.373 213.272 134.643 213.547 133.802C213.606 133.487 213.636 133.167 213.635 132.846Z" fill="#FAFAFA"/>
<path d="M211.655 79.4001L208.292 79.4808C208.163 80.1589 207.906 80.8062 207.534 81.3881C204.711 76.5088 202.546 69.9762 202.006 67.3511C202.086 67.089 202.179 66.7987 202.296 66.4761C202.38 65.9861 202.365 65.4843 202.252 65.0002C202.155 64.4155 201.994 63.6292 201.945 63.2662C201.796 62.1533 201.615 61.9799 201.227 62.1049C200.703 62.2783 201.445 65.222 201.014 65.2865C200.78 65.3188 200.498 64.3106 200.417 63.484C200.336 62.6573 199.957 60.1088 199.687 59.9395C199.284 59.6895 198.933 60.0846 199.038 60.9073C199.143 61.7299 199.268 64.23 198.832 64.2663C198.397 64.3026 198.026 60.0766 198.026 60.0766C198.026 60.0766 198.094 59.1572 197.586 59.1773C196.675 59.2177 197.389 63.6695 197.465 64.0929C197.522 64.3832 197.062 64.4397 197.005 64.1211C196.949 63.8026 196.739 59.8991 195.796 59.9314C195.078 59.9314 196.348 63.5969 195.945 64.4437C195.542 65.2905 195.267 61.5726 194.586 61.621C194.332 61.6412 194.142 61.6896 194.61 63.7905C195.058 65.4597 195.597 67.1033 196.223 68.7141C197.304 74.541 202.046 93.183 209.478 89.7716C213.639 87.8602 215.325 79.4001 215.325 79.4001H211.655Z" fill="#F3C7B6"/>
<path d="M197.32 64.3756C197.352 64.3836 197.385 64.3836 197.417 64.3756C197.466 64.3608 197.507 64.329 197.535 64.2862C197.562 64.2433 197.573 64.1921 197.566 64.1417C197.566 63.8917 197.518 63.5288 197.461 63.057C197.367 62.4884 197.305 61.9149 197.276 61.3392C197.276 61.0005 197.276 60.6375 197.296 60.2544C197.302 60.0597 197.322 59.8656 197.356 59.6738C197.389 59.4923 197.51 59.2705 197.651 59.3068H197.675C197.816 59.3068 197.929 59.4117 197.973 59.581C198.023 59.7565 198.042 59.9393 198.03 60.1214C198.113 61.2507 198.257 62.3747 198.461 63.4885C198.494 63.6377 198.526 63.7909 198.574 63.9441C198.596 64.0226 198.623 64.0994 198.655 64.174C198.676 64.2155 198.698 64.2559 198.723 64.295C198.742 64.3244 198.766 64.3493 198.796 64.3675C198.825 64.3857 198.858 64.3968 198.893 64.3998C198.952 64.3934 199.007 64.3696 199.052 64.3315C199.098 64.2935 199.13 64.2429 199.147 64.1861C199.182 64.1072 199.207 64.0247 199.223 63.9401C199.255 63.7776 199.276 63.6133 199.288 63.4482C199.325 62.7762 199.315 62.1026 199.26 61.4319C199.209 61.0971 199.195 60.7576 199.219 60.4198C199.234 60.2739 199.305 60.1394 199.417 60.0448C199.443 60.0294 199.472 60.0196 199.502 60.0162C199.531 60.0127 199.562 60.0156 199.59 60.0246C199.625 60.0328 199.657 60.0464 199.687 60.0649C199.708 60.0802 199.723 60.1013 199.732 60.1254C199.859 60.4524 199.952 60.7916 200.01 61.1376C200.082 61.4924 200.143 61.8594 200.199 62.2263C200.256 62.5933 200.308 62.9643 200.353 63.3393C200.387 63.7263 200.449 64.1103 200.538 64.4885C200.586 64.6819 200.646 64.8719 200.72 65.0571C200.761 65.1608 200.818 65.2574 200.889 65.3434C200.916 65.3792 200.953 65.4065 200.995 65.4222C201.037 65.4379 201.083 65.4413 201.127 65.4321C201.168 65.4187 201.204 65.3949 201.233 65.3631C201.262 65.3313 201.283 65.2926 201.292 65.2507C201.34 65.0446 201.355 64.8323 201.337 64.6216C201.337 64.42 201.312 64.2184 201.292 64.0248C201.264 63.6861 201.232 63.3514 201.22 63.0207C201.209 62.8582 201.209 62.6953 201.22 62.5328C201.228 62.4609 201.245 62.3903 201.272 62.3231C201.28 62.3009 201.293 62.2804 201.308 62.2626H201.361C201.627 62.1537 201.716 62.5247 201.788 62.8231C201.861 63.1215 201.889 63.4603 201.953 63.7788C202.058 64.4119 202.195 65.045 202.264 65.6499C202.311 65.9395 202.3 66.2355 202.232 66.5209C202.135 66.8112 202.038 67.0975 201.945 67.3838V67.4121V67.4363C202.418 69.4173 203.02 71.3652 203.748 73.2672C204.385 74.989 205.026 76.4932 205.587 77.7029C206.147 78.9126 206.655 79.8603 207.002 80.4974L207.405 81.2192C207.449 81.3052 207.502 81.3863 207.563 81.4611C207.529 81.3716 207.487 81.2852 207.438 81.2031L207.034 80.4651C206.704 79.8159 206.228 78.8521 205.679 77.6424C205.131 76.4327 204.51 74.9286 203.889 73.2067C203.178 71.3076 202.589 69.3654 202.123 67.3919V67.4484C202.216 67.1661 202.308 66.8798 202.405 66.5935C202.489 66.2792 202.506 65.9508 202.453 65.6297C202.381 64.9966 202.248 64.3837 202.143 63.7466C202.083 63.432 202.042 63.1094 201.978 62.7788C201.974 62.6089 201.945 62.4405 201.893 62.2787C201.847 62.1804 201.769 62.1007 201.671 62.0529C201.568 62.0191 201.456 62.0191 201.353 62.0529H201.288C201.254 62.0639 201.222 62.0817 201.195 62.1053C201.151 62.1433 201.116 62.1918 201.095 62.2465C201.058 62.3338 201.034 62.4263 201.026 62.5207C201.014 62.6952 201.014 62.8704 201.026 63.0449C201.026 63.3836 201.074 63.7224 201.103 64.0611C201.103 64.2587 201.135 64.4643 201.143 64.6458C201.159 64.8277 201.149 65.0109 201.115 65.1902C201.115 65.2305 201.082 65.2224 201.115 65.2426L201.091 65.2184C201.039 65.1525 200.998 65.0791 200.97 65.0006C200.899 64.8262 200.841 64.647 200.796 64.4643C200.708 64.0971 200.647 63.7237 200.615 63.3473C200.572 62.9683 200.519 62.5933 200.457 62.2223C200.401 61.8513 200.336 61.4884 200.264 61.1255C200.203 60.7561 200.1 60.3948 199.957 60.0488C199.93 59.991 199.886 59.9421 199.832 59.9077C199.785 59.8804 199.735 59.8588 199.683 59.8431C199.626 59.828 199.566 59.8246 199.507 59.8329C199.448 59.8412 199.391 59.8611 199.34 59.8915C199.257 59.9537 199.188 60.0323 199.137 60.1225C199.085 60.2127 199.053 60.3125 199.042 60.4157C199.016 60.599 199.016 60.785 199.042 60.9682C199.042 61.1416 199.082 61.311 199.094 61.4803C199.151 62.1401 199.163 62.8029 199.131 63.4643C199.121 63.6214 199.101 63.7777 199.07 63.9321C199.059 64.0041 199.038 64.0746 199.01 64.1417C198.999 64.1683 198.984 64.1929 198.965 64.2143C198.965 64.2506 198.937 64.2143 198.941 64.2627C198.941 64.2224 198.941 64.2627 198.941 64.2103C198.923 64.1831 198.907 64.1548 198.893 64.1256C198.865 64.0611 198.84 63.9885 198.816 63.92C198.772 63.7748 198.74 63.6256 198.707 63.4804C198.497 62.3762 198.345 61.2617 198.252 60.1415C198.264 59.9388 198.241 59.7355 198.183 59.5407C198.156 59.4391 198.102 59.3469 198.026 59.2746C197.986 59.2364 197.94 59.2068 197.888 59.1873C197.837 59.1679 197.782 59.1592 197.727 59.1617H197.752C197.683 59.1517 197.614 59.162 197.551 59.1914C197.489 59.2208 197.437 59.268 197.401 59.327C197.341 59.4232 197.3 59.5299 197.28 59.6415C197.246 59.8415 197.227 60.0436 197.223 60.2464C197.223 60.6496 197.223 61.0004 197.223 61.3432C197.262 61.9225 197.336 62.4989 197.445 63.0691C197.514 63.5369 197.566 63.8998 197.59 64.1458C197.598 64.1888 197.591 64.2333 197.569 64.2715C197.548 64.3097 197.514 64.3394 197.473 64.3555C197.352 64.3676 197.316 64.3716 197.32 64.3756Z" fill="#F9E7E1"/>
<path d="M171.056 84.9531C170.27 84.9363 169.484 85.0272 168.722 85.2233C166.637 85.7717 163.044 87.9493 162.895 90.6389H165.508C165.508 90.6389 164.044 93.752 164.471 93.4616C165.588 92.7116 167.806 90.4574 167.806 90.4574L171.056 84.9531Z" fill="#F3C7B6"/>
<path d="M206.675 38.084C206.615 38.084 206.381 35.9307 206.147 33.2451C205.913 30.5595 205.768 28.4061 205.824 28.4061C205.881 28.4061 206.119 30.5595 206.352 33.2451C206.586 35.9307 206.731 38.084 206.675 38.084Z" fill="#263238"/>
<path d="M218.131 28.5717C218.176 28.604 216.414 31.1646 214.192 34.2897C211.97 37.4149 210.127 39.9352 210.079 39.8868C210.03 39.8384 211.796 37.2939 214.018 34.1688C216.24 31.0436 218.083 28.5395 218.131 28.5717Z" fill="#263238"/>
<path d="M222.89 40.1768C222.89 40.2333 220.841 40.7051 218.293 41.2293C215.744 41.7535 213.664 42.1326 213.651 42.0761C213.639 42.0197 215.696 41.5479 218.248 41.0237C220.801 40.4994 222.862 40.1204 222.89 40.1768Z" fill="#263238"/>
<path d="M85.7575 95.5629L71.4826 168.873L69.6277 178.47L164.794 178.011C169.068 177.99 172.859 174.196 174.226 168.558L191.105 99.3494C192.15 95.071 189.859 90.6191 186.617 90.6232L90.2739 90.724C88.177 90.72 86.2979 92.7039 85.7575 95.5629Z" fill="#B9D2C6"/>
<g opacity="0.5">
<path opacity="0.5" d="M85.7575 95.5629L71.4826 168.873L69.6277 178.47L164.794 178.011C169.068 177.99 172.859 174.196 174.226 168.558L191.105 99.3494C192.15 95.071 189.859 90.6191 186.617 90.6232L90.2739 90.724C88.177 90.72 86.2979 92.7039 85.7575 95.5629Z" fill="black"/>
</g>
<path d="M155.676 163.897L145.595 82.679C145.192 79.3522 142.535 76.8682 139.401 76.8803L117.304 76.9488C116.482 76.9581 115.672 77.1345 114.921 77.4673C114.17 77.8 113.495 78.2822 112.936 78.8844L102.452 90.0422L40.9974 90.3729C37.2432 90.3931 34.356 93.9497 34.852 97.9418L44.2113 173.006C44.6145 176.329 47.2719 178.809 50.3971 178.805L157.519 178.591C169.447 178.837 170.589 175.317 170.589 175.317C156.894 178.345 155.676 163.917 155.676 163.897Z" fill="#B9D2C6"/>
<g opacity="0.5">
<path opacity="0.5" d="M109.484 147.654L105.871 151.534L78.0474 126.5L81.6604 122.621L109.484 147.654Z" fill="white"/>
<path opacity="0.5" d="M104.359 121.762L108.351 125.355L83.1768 152.392L79.1807 148.799L104.359 121.762Z" fill="white"/>
</g>
<path d="M170.972 42.8343C170.841 42.7793 170.729 42.6882 170.649 42.5718C170.568 42.4554 170.522 42.3185 170.516 42.177L170.355 38.4349C170.349 38.3186 170.371 38.2026 170.418 38.096C170.465 37.9895 170.536 37.8953 170.625 37.821C170.715 37.7466 170.82 37.6942 170.934 37.6677C171.047 37.6413 171.165 37.6416 171.278 37.6687C171.591 37.7361 171.913 37.739 172.227 37.6773C172.54 37.6155 172.838 37.4905 173.101 37.3098C173.344 37.1563 173.552 36.9547 173.714 36.7175C173.875 36.4803 173.987 36.2126 174.041 35.9307C174.077 35.6453 174.056 35.3555 173.978 35.0784C173.901 34.8013 173.768 34.5427 173.589 34.3177C173.4 34.0618 173.162 33.8456 172.89 33.6816C172.617 33.5176 172.315 33.409 172 33.362C171.366 33.3267 170.738 33.5066 170.218 33.8725C169.699 34.2384 169.318 34.769 169.137 35.3782C169.077 35.5629 168.948 35.7171 168.777 35.8089C168.606 35.9007 168.406 35.9229 168.219 35.8709C168.031 35.8189 167.872 35.6968 167.772 35.5299C167.673 35.363 167.642 35.1642 167.686 34.975C167.96 34.0167 168.556 33.182 169.373 32.6114C170.191 32.0408 171.179 31.769 172.174 31.8418C172.691 31.9107 173.189 32.083 173.639 32.3483C174.089 32.6136 174.48 32.9666 174.791 33.3862C175.093 33.7752 175.314 34.2207 175.44 34.6966C175.567 35.1724 175.597 35.6689 175.529 36.1565C175.437 36.6435 175.247 37.1065 174.969 37.517C174.692 37.9276 174.333 38.277 173.916 38.5437C173.311 38.951 172.604 39.1815 171.875 39.2091L172 42.0963C172.005 42.2232 171.978 42.3492 171.921 42.4626C171.864 42.576 171.779 42.6732 171.674 42.7452C171.57 42.8172 171.449 42.8616 171.322 42.8744C171.196 42.8871 171.069 42.8678 170.952 42.8181L170.972 42.8343Z" fill="black"/>
<path d="M172.077 44.3665C172.086 44.4883 172.058 44.6099 171.997 44.7158C171.937 44.8218 171.846 44.9074 171.737 44.9618C171.627 45.0162 171.504 45.037 171.383 45.0214C171.262 45.0059 171.148 44.9549 171.056 44.8747C170.964 44.7945 170.898 44.6888 170.866 44.571C170.834 44.4532 170.838 44.3285 170.877 44.2128C170.916 44.0971 170.988 43.9956 171.085 43.921C171.181 43.8464 171.298 43.8022 171.42 43.7939C171.501 43.7879 171.582 43.798 171.659 43.8236C171.736 43.8492 171.807 43.8898 171.868 43.943C171.929 43.9963 171.979 44.0611 172.015 44.1338C172.051 44.2065 172.072 44.2856 172.077 44.3665Z" fill="black"/>
<path d="M158.016 37.556C158.033 37.4762 158.045 37.3954 158.052 37.3141C158.052 37.1366 158.096 36.9108 158.129 36.5923C158.168 36.2011 158.234 35.8131 158.326 35.4309C158.379 35.2051 158.407 34.9551 158.487 34.701C158.568 34.447 158.649 34.1728 158.737 33.8946C159.204 32.516 159.885 31.2192 160.754 30.0516C161.893 28.5397 163.337 27.284 164.992 26.366C165.934 25.8347 166.937 25.4204 167.98 25.132C169.105 24.8338 170.264 24.682 171.428 24.6804C172.041 24.6705 172.654 24.7029 173.262 24.7772C173.573 24.8094 173.879 24.8901 174.19 24.9425C174.504 24.9963 174.814 25.0717 175.117 25.1683C176.388 25.5235 177.597 26.0716 178.702 26.7934C181.159 28.3867 183.03 30.7364 184.033 33.4873C184.573 34.9608 184.846 36.5189 184.84 38.0883C184.856 39.7051 184.57 41.3107 183.997 42.8224L183.815 43.2821L183.791 43.3426L183.815 43.4031C184.827 45.7298 185.832 48.0162 186.779 50.23L186.949 50.0365L180.9 47.7178L180.827 47.6896L180.767 47.746C179.167 49.2964 177.208 50.4268 175.065 51.0365C173.234 51.5406 171.317 51.6507 169.44 51.3594C167.563 51.0682 165.769 50.3823 164.177 49.3469C162.873 48.4917 161.724 47.4214 160.778 46.1814C159.407 44.3716 158.519 42.243 158.197 39.9957C158.149 39.5924 158.108 39.2537 158.072 38.9472C158.036 38.6408 158.072 38.3907 158.052 38.177C158.032 37.9633 158.052 37.8222 158.052 37.7052C158.072 37.7022 158.09 37.6916 158.103 37.6757C158.116 37.6598 158.122 37.6397 158.12 37.6194C158.119 37.5991 158.11 37.5802 158.095 37.5664C158.08 37.5525 158.06 37.5448 158.04 37.5448C158.02 37.5448 158 37.5525 157.985 37.5664C157.97 37.5802 157.961 37.5991 157.959 37.6194C157.958 37.6397 157.964 37.6598 157.977 37.6757C157.989 37.6916 158.008 37.7022 158.028 37.7052C158.028 37.8222 158.028 37.9794 158.028 38.177C158.028 38.3746 158.028 38.6488 158.028 38.9553C158.028 39.2618 158.096 39.6126 158.137 40.0118C158.269 40.9817 158.5 41.9356 158.826 42.8587C159.288 44.0778 159.909 45.2303 160.673 46.2863C161.623 47.5483 162.78 48.6392 164.097 49.5123C165.708 50.5735 167.528 51.2798 169.433 51.5843C171.339 51.8888 173.287 51.7845 175.15 51.2785C177.318 50.6625 179.302 49.5212 180.924 47.9557L180.791 47.984L186.84 50.3147L187.142 50.4317L187.009 50.1212C186.049 47.9073 185.057 45.625 184.049 43.2942V43.4111L184.235 42.9394C184.823 41.3947 185.116 39.7532 185.098 38.1004C185.11 36.4977 184.837 34.9055 184.291 33.3986C183.266 30.5928 181.354 28.1985 178.843 26.5797C177.711 25.841 176.47 25.2832 175.166 24.9264C174.857 24.8287 174.542 24.7546 174.222 24.7046C173.908 24.6481 173.597 24.5675 173.283 24.5393C172.666 24.4627 172.045 24.4277 171.424 24.4344C170.241 24.4394 169.064 24.5994 167.923 24.9102C166.867 25.2102 165.85 25.6353 164.895 26.1764C163.223 27.117 161.77 28.4022 160.633 29.9468C159.766 31.1337 159.095 32.4514 158.645 33.8502C158.56 34.1405 158.479 34.4188 158.407 34.6567C158.343 34.8998 158.292 35.1461 158.254 35.3946C158.167 35.7795 158.11 36.1705 158.084 36.564C158.06 36.8745 158.044 37.1125 158.032 37.2899C158.015 37.3775 158.009 37.467 158.016 37.556Z" fill="#263238"/>
<path d="M70 215H68.544L62.688 206.12V215H61.232V203.832H62.688L68.544 212.696V203.832H70V215ZM76.306 215.144C75.4847 215.144 74.738 214.957 74.066 214.584C73.4047 214.211 72.882 213.683 72.498 213C72.1247 212.307 71.938 211.507 71.938 210.6C71.938 209.704 72.13 208.915 72.514 208.232C72.9087 207.539 73.442 207.011 74.114 206.648C74.786 206.275 75.538 206.088 76.37 206.088C77.202 206.088 77.954 206.275 78.626 206.648C79.298 207.011 79.826 207.533 80.21 208.216C80.6047 208.899 80.802 209.693 80.802 210.6C80.802 211.507 80.5993 212.307 80.194 213C79.7993 213.683 79.2607 214.211 78.578 214.584C77.8953 214.957 77.138 215.144 76.306 215.144ZM76.306 213.864C76.8287 213.864 77.3193 213.741 77.778 213.496C78.2367 213.251 78.6047 212.883 78.882 212.392C79.17 211.901 79.314 211.304 79.314 210.6C79.314 209.896 79.1753 209.299 78.898 208.808C78.6207 208.317 78.258 207.955 77.81 207.72C77.362 207.475 76.8767 207.352 76.354 207.352C75.8207 207.352 75.33 207.475 74.882 207.72C74.4447 207.955 74.0927 208.317 73.826 208.808C73.5593 209.299 73.426 209.896 73.426 210.6C73.426 211.315 73.554 211.917 73.81 212.408C74.0767 212.899 74.4287 213.267 74.866 213.512C75.3033 213.747 75.7833 213.864 76.306 213.864ZM90.454 203.848C91.67 203.848 92.7207 204.077 93.606 204.536C94.502 204.984 95.1847 205.629 95.654 206.472C96.134 207.315 96.374 208.307 96.374 209.448C96.374 210.589 96.134 211.581 95.654 212.424C95.1847 213.256 94.502 213.896 93.606 214.344C92.7207 214.781 91.67 215 90.454 215H86.982V203.848H90.454ZM90.454 213.8C91.894 213.8 92.9927 213.421 93.75 212.664C94.5073 211.896 94.886 210.824 94.886 209.448C94.886 208.061 94.502 206.979 93.734 206.2C92.9767 205.421 91.8833 205.032 90.454 205.032H88.438V213.8H90.454ZM97.7505 210.584C97.7505 209.688 97.9318 208.904 98.2945 208.232C98.6572 207.549 99.1532 207.021 99.7825 206.648C100.423 206.275 101.132 206.088 101.911 206.088C102.679 206.088 103.345 206.253 103.911 206.584C104.476 206.915 104.897 207.331 105.175 207.832V206.232H106.647V215H105.175V213.368C104.887 213.88 104.455 214.307 103.879 214.648C103.313 214.979 102.652 215.144 101.895 215.144C101.116 215.144 100.412 214.952 99.7825 214.568C99.1532 214.184 98.6572 213.645 98.2945 212.952C97.9318 212.259 97.7505 211.469 97.7505 210.584ZM105.175 210.6C105.175 209.939 105.041 209.363 104.775 208.872C104.508 208.381 104.145 208.008 103.687 207.752C103.239 207.485 102.743 207.352 102.199 207.352C101.655 207.352 101.159 207.48 100.711 207.736C100.263 207.992 99.9052 208.365 99.6385 208.856C99.3718 209.347 99.2385 209.923 99.2385 210.584C99.2385 211.256 99.3718 211.843 99.6385 212.344C99.9052 212.835 100.263 213.213 100.711 213.48C101.159 213.736 101.655 213.864 102.199 213.864C102.743 213.864 103.239 213.736 103.687 213.48C104.145 213.213 104.508 212.835 104.775 212.344C105.041 211.843 105.175 211.261 105.175 210.6ZM110.883 207.432V212.6C110.883 213.027 110.974 213.331 111.155 213.512C111.336 213.683 111.651 213.768 112.099 213.768H113.171V215H111.859C111.048 215 110.44 214.813 110.035 214.44C109.63 214.067 109.427 213.453 109.427 212.6V207.432H108.291V206.232H109.427V204.024H110.883V206.232H113.171V207.432H110.883ZM114.391 210.584C114.391 209.688 114.572 208.904 114.935 208.232C115.298 207.549 115.794 207.021 116.423 206.648C117.063 206.275 117.772 206.088 118.551 206.088C119.319 206.088 119.986 206.253 120.551 206.584C121.116 206.915 121.538 207.331 121.815 207.832V206.232H123.287V215H121.815V213.368C121.527 213.88 121.095 214.307 120.519 214.648C119.954 214.979 119.292 215.144 118.535 215.144C117.756 215.144 117.052 214.952 116.423 214.568C115.794 214.184 115.298 213.645 114.935 212.952C114.572 212.259 114.391 211.469 114.391 210.584ZM121.815 210.6C121.815 209.939 121.682 209.363 121.415 208.872C121.148 208.381 120.786 208.008 120.327 207.752C119.879 207.485 119.383 207.352 118.839 207.352C118.295 207.352 117.799 207.48 117.351 207.736C116.903 207.992 116.546 208.365 116.279 208.856C116.012 209.347 115.879 209.923 115.879 210.584C115.879 211.256 116.012 211.843 116.279 212.344C116.546 212.835 116.903 213.213 117.351 213.48C117.799 213.736 118.295 213.864 118.839 213.864C119.383 213.864 119.879 213.736 120.327 213.48C120.786 213.213 121.148 212.835 121.415 212.344C121.682 211.843 121.815 211.261 121.815 210.6ZM136.317 203.848V205.032H131.469V208.792H135.405V209.976H131.469V215H130.013V203.848H136.317ZM141.9 215.144C141.078 215.144 140.332 214.957 139.66 214.584C138.998 214.211 138.476 213.683 138.092 213C137.718 212.307 137.532 211.507 137.532 210.6C137.532 209.704 137.724 208.915 138.108 208.232C138.502 207.539 139.036 207.011 139.708 206.648C140.38 206.275 141.132 206.088 141.964 206.088C142.796 206.088 143.548 206.275 144.22 206.648C144.892 207.011 145.42 207.533 145.804 208.216C146.198 208.899 146.396 209.693 146.396 210.6C146.396 211.507 146.193 212.307 145.788 213C145.393 213.683 144.854 214.211 144.172 214.584C143.489 214.957 142.732 215.144 141.9 215.144ZM141.9 213.864C142.422 213.864 142.913 213.741 143.372 213.496C143.83 213.251 144.198 212.883 144.476 212.392C144.764 211.901 144.908 211.304 144.908 210.6C144.908 209.896 144.769 209.299 144.492 208.808C144.214 208.317 143.852 207.955 143.404 207.72C142.956 207.475 142.47 207.352 141.948 207.352C141.414 207.352 140.924 207.475 140.476 207.72C140.038 207.955 139.686 208.317 139.42 208.808C139.153 209.299 139.02 209.896 139.02 210.6C139.02 211.315 139.148 211.917 139.404 212.408C139.67 212.899 140.022 213.267 140.46 213.512C140.897 213.747 141.377 213.864 141.9 213.864ZM156.086 206.232V215H154.63V213.704C154.353 214.152 153.963 214.504 153.462 214.76C152.971 215.005 152.427 215.128 151.83 215.128C151.147 215.128 150.534 214.989 149.99 214.712C149.446 214.424 149.014 213.997 148.694 213.432C148.385 212.867 148.23 212.179 148.23 211.368V206.232H149.67V211.176C149.67 212.04 149.889 212.707 150.326 213.176C150.763 213.635 151.361 213.864 152.118 213.864C152.897 213.864 153.51 213.624 153.958 213.144C154.406 212.664 154.63 211.965 154.63 211.048V206.232H156.086ZM162.817 206.072C163.883 206.072 164.747 206.397 165.409 207.048C166.07 207.688 166.401 208.616 166.401 209.832V215H164.961V210.04C164.961 209.165 164.742 208.499 164.305 208.04C163.867 207.571 163.27 207.336 162.513 207.336C161.745 207.336 161.131 207.576 160.673 208.056C160.225 208.536 160.001 209.235 160.001 210.152V215H158.545V206.232H160.001V207.48C160.289 207.032 160.678 206.685 161.169 206.44C161.67 206.195 162.219 206.072 162.817 206.072ZM168.235 210.584C168.235 209.688 168.416 208.904 168.779 208.232C169.142 207.549 169.638 207.021 170.267 206.648C170.907 206.275 171.622 206.088 172.411 206.088C173.094 206.088 173.728 206.248 174.315 206.568C174.902 206.877 175.35 207.288 175.659 207.8V203.16H177.131V215H175.659V213.352C175.371 213.875 174.944 214.307 174.379 214.648C173.814 214.979 173.152 215.144 172.395 215.144C171.616 215.144 170.907 214.952 170.267 214.568C169.638 214.184 169.142 213.645 168.779 212.952C168.416 212.259 168.235 211.469 168.235 210.584ZM175.659 210.6C175.659 209.939 175.526 209.363 175.259 208.872C174.992 208.381 174.63 208.008 174.171 207.752C173.723 207.485 173.227 207.352 172.683 207.352C172.139 207.352 171.643 207.48 171.195 207.736C170.747 207.992 170.39 208.365 170.123 208.856C169.856 209.347 169.723 209.923 169.723 210.584C169.723 211.256 169.856 211.843 170.123 212.344C170.39 212.835 170.747 213.213 171.195 213.48C171.643 213.736 172.139 213.864 172.683 213.864C173.227 213.864 173.723 213.736 174.171 213.48C174.63 213.213 174.992 212.835 175.259 212.344C175.526 211.843 175.659 211.261 175.659 210.6ZM181.479 203.848L181.303 211.848H180.087L179.911 203.848H181.479ZM180.759 215.096C180.482 215.096 180.247 215 180.055 214.808C179.863 214.616 179.767 214.381 179.767 214.104C179.767 213.827 179.863 213.592 180.055 213.4C180.247 213.208 180.482 213.112 180.759 213.112C181.026 213.112 181.25 213.208 181.431 213.4C181.623 213.592 181.719 213.827 181.719 214.104C181.719 214.381 181.623 214.616 181.431 214.808C181.25 215 181.026 215.096 180.759 215.096Z" fill="black"/>
</svg>
