<svg width="316" height="66" viewBox="0 0 316 66" fill="none" xmlns="http://www.w3.org/2000/svg">
<path d="M298.339 66H25.6608C15.9268 66 8 59.9188 8 52.4205V19.5794C8 12.0949 15.9268 6 25.6608 6H298.339C308.073 6 316 12.0949 316 19.5794V52.4205C316 59.9188 308.073 66 298.339 66ZM25.6608 7.44465C16.9467 7.44465 9.86093 12.8929 9.86093 19.5932V52.4343C9.86093 59.1346 16.9467 64.5829 25.6608 64.5829H298.339C307.053 64.5829 314.139 59.1346 314.139 52.4343V19.5932C314.139 12.8929 307.053 7.44465 298.339 7.44465H25.6608Z" fill="#849C96"/>
<path d="M306 45.261C306 52.2641 298.471 58 289.278 58H16.7218C7.52929 58 0 52.2641 0 45.261V12.739C0 5.73593 7.51141 0 16.7218 0H289.26C298.453 0 305.982 5.73593 305.982 12.739V45.261H306Z" fill="#849C96"/>
<path d="M58 7H19.4659C12.6147 7 7 11.3521 7 16.6626V41.3374C7 46.6479 12.6147 51 19.4659 51H58V7Z" fill="white"/>
<path d="M242.92 5H241.062V53.8773H242.92V5Z" fill="white"/>
<path d="M107.305 35.112C106.559 35.112 105.887 34.984 105.289 34.728C104.692 34.4613 104.223 34.088 103.881 33.608C103.54 33.128 103.369 32.568 103.369 31.928H105.321C105.364 32.408 105.551 32.8027 105.881 33.112C106.223 33.4213 106.697 33.576 107.305 33.576C107.935 33.576 108.425 33.4267 108.777 33.128C109.129 32.8187 109.305 32.424 109.305 31.944C109.305 31.5707 109.193 31.2667 108.969 31.032C108.756 30.7973 108.484 30.616 108.153 30.488C107.833 30.36 107.385 30.2213 106.809 30.072C106.084 29.88 105.492 29.688 105.033 29.496C104.585 29.2933 104.201 28.984 103.881 28.568C103.561 28.152 103.401 27.5973 103.401 26.904C103.401 26.264 103.561 25.704 103.881 25.224C104.201 24.744 104.649 24.376 105.225 24.12C105.801 23.864 106.468 23.736 107.225 23.736C108.303 23.736 109.183 24.008 109.865 24.552C110.559 25.0853 110.943 25.8213 111.017 26.76H109.001C108.969 26.3547 108.777 26.008 108.425 25.72C108.073 25.432 107.609 25.288 107.033 25.288C106.511 25.288 106.084 25.4213 105.753 25.688C105.423 25.9547 105.257 26.3387 105.257 26.84C105.257 27.1813 105.359 27.464 105.561 27.688C105.775 27.9013 106.041 28.072 106.361 28.2C106.681 28.328 107.119 28.4667 107.673 28.616C108.409 28.8187 109.007 29.0213 109.465 29.224C109.935 29.4267 110.329 29.7413 110.649 30.168C110.98 30.584 111.145 31.144 111.145 31.848C111.145 32.4133 110.991 32.9467 110.681 33.448C110.383 33.9493 109.94 34.3547 109.353 34.664C108.777 34.9627 108.095 35.112 107.305 35.112ZM112.69 30.552C112.69 29.6667 112.871 28.8827 113.234 28.2C113.607 27.5173 114.108 26.9893 114.738 26.616C115.378 26.232 116.082 26.04 116.85 26.04C117.543 26.04 118.146 26.1787 118.658 26.456C119.18 26.7227 119.596 27.0587 119.906 27.464V26.184H121.746V35H119.906V33.688C119.596 34.104 119.175 34.4507 118.642 34.728C118.108 35.0053 117.5 35.144 116.818 35.144C116.06 35.144 115.367 34.952 114.738 34.568C114.108 34.1733 113.607 33.6293 113.234 32.936C112.871 32.232 112.69 31.4373 112.69 30.552ZM119.906 30.584C119.906 29.976 119.778 29.448 119.522 29C119.276 28.552 118.951 28.2107 118.546 27.976C118.14 27.7413 117.703 27.624 117.234 27.624C116.764 27.624 116.327 27.7413 115.922 27.976C115.516 28.2 115.186 28.536 114.93 28.984C114.684 29.4213 114.562 29.944 114.562 30.552C114.562 31.16 114.684 31.6933 114.93 32.152C115.186 32.6107 115.516 32.9627 115.922 33.208C116.338 33.4427 116.775 33.56 117.234 33.56C117.703 33.56 118.14 33.4427 118.546 33.208C118.951 32.9733 119.276 32.632 119.522 32.184C119.778 31.7253 119.906 31.192 119.906 30.584ZM127.837 27.672H126.205V35H124.365V27.672H123.325V26.184H124.365V25.56C124.365 24.5467 124.632 23.8107 125.165 23.352C125.709 22.8827 126.557 22.648 127.709 22.648V24.168C127.155 24.168 126.765 24.2747 126.541 24.488C126.317 24.6907 126.205 25.048 126.205 25.56V26.184H127.837V27.672ZM137.534 30.376C137.534 30.7067 137.513 31.0053 137.47 31.272H130.734C130.787 31.976 131.049 32.5413 131.518 32.968C131.987 33.3947 132.563 33.608 133.246 33.608C134.227 33.608 134.921 33.1973 135.326 32.376H137.294C137.027 33.1867 136.542 33.8533 135.838 34.376C135.145 34.888 134.281 35.144 133.246 35.144C132.403 35.144 131.646 34.9573 130.974 34.584C130.313 34.2 129.79 33.6667 129.406 32.984C129.033 32.2907 128.846 31.4907 128.846 30.584C128.846 29.6773 129.027 28.8827 129.39 28.2C129.763 27.5067 130.281 26.9733 130.942 26.6C131.614 26.2267 132.382 26.04 133.246 26.04C134.078 26.04 134.819 26.2213 135.47 26.584C136.121 26.9467 136.627 27.4587 136.99 28.12C137.353 28.7707 137.534 29.5227 137.534 30.376ZM135.63 29.8C135.619 29.128 135.379 28.5893 134.91 28.184C134.441 27.7787 133.859 27.576 133.166 27.576C132.537 27.576 131.998 27.7787 131.55 28.184C131.102 28.5787 130.835 29.1173 130.75 29.8H135.63ZM153.069 23.88L148.893 35H146.781L142.589 23.88H144.541L147.837 33.128L151.149 23.88H153.069ZM155.523 25.016C155.192 25.016 154.915 24.904 154.691 24.68C154.467 24.456 154.355 24.1787 154.355 23.848C154.355 23.5173 154.467 23.24 154.691 23.016C154.915 22.792 155.192 22.68 155.523 22.68C155.843 22.68 156.115 22.792 156.339 23.016C156.563 23.24 156.675 23.5173 156.675 23.848C156.675 24.1787 156.563 24.456 156.339 24.68C156.115 24.904 155.843 25.016 155.523 25.016ZM156.419 26.184V35H154.595V26.184H156.419ZM158.205 30.552C158.205 29.6667 158.387 28.8827 158.749 28.2C159.123 27.5173 159.624 26.9893 160.253 26.616C160.893 26.232 161.603 26.04 162.381 26.04C162.957 26.04 163.523 26.168 164.077 26.424C164.643 26.6693 165.091 27 165.421 27.416V23.16H167.261V35H165.421V33.672C165.123 34.0987 164.707 34.4507 164.173 34.728C163.651 35.0053 163.048 35.144 162.365 35.144C161.597 35.144 160.893 34.952 160.253 34.568C159.624 34.1733 159.123 33.6293 158.749 32.936C158.387 32.232 158.205 31.4373 158.205 30.552ZM165.421 30.584C165.421 29.976 165.293 29.448 165.037 29C164.792 28.552 164.467 28.2107 164.061 27.976C163.656 27.7413 163.219 27.624 162.749 27.624C162.28 27.624 161.843 27.7413 161.437 27.976C161.032 28.2 160.701 28.536 160.445 28.984C160.2 29.4213 160.077 29.944 160.077 30.552C160.077 31.16 160.2 31.6933 160.445 32.152C160.701 32.6107 161.032 32.9627 161.437 33.208C161.853 33.4427 162.291 33.56 162.749 33.56C163.219 33.56 163.656 33.4427 164.061 33.208C164.467 32.9733 164.792 32.632 165.037 32.184C165.293 31.7253 165.421 31.192 165.421 30.584ZM177.737 30.376C177.737 30.7067 177.716 31.0053 177.673 31.272H170.937C170.99 31.976 171.252 32.5413 171.721 32.968C172.19 33.3947 172.766 33.608 173.449 33.608C174.43 33.608 175.124 33.1973 175.529 32.376H177.497C177.23 33.1867 176.745 33.8533 176.041 34.376C175.348 34.888 174.484 35.144 173.449 35.144C172.606 35.144 171.849 34.9573 171.177 34.584C170.516 34.2 169.993 33.6667 169.609 32.984C169.236 32.2907 169.049 31.4907 169.049 30.584C169.049 29.6773 169.23 28.8827 169.593 28.2C169.966 27.5067 170.484 26.9733 171.145 26.6C171.817 26.2267 172.585 26.04 173.449 26.04C174.281 26.04 175.022 26.2213 175.673 26.584C176.324 26.9467 176.83 27.4587 177.193 28.12C177.556 28.7707 177.737 29.5227 177.737 30.376ZM175.833 29.8C175.822 29.128 175.582 28.5893 175.113 28.184C174.644 27.7787 174.062 27.576 173.369 27.576C172.74 27.576 172.201 27.7787 171.753 28.184C171.305 28.5787 171.038 29.1173 170.953 29.8H175.833ZM183.356 35.144C182.524 35.144 181.772 34.9573 181.1 34.584C180.428 34.2 179.9 33.6667 179.516 32.984C179.132 32.2907 178.94 31.4907 178.94 30.584C178.94 29.688 179.137 28.8933 179.532 28.2C179.927 27.5067 180.465 26.9733 181.148 26.6C181.831 26.2267 182.593 26.04 183.436 26.04C184.279 26.04 185.041 26.2267 185.724 26.6C186.407 26.9733 186.945 27.5067 187.34 28.2C187.735 28.8933 187.932 29.688 187.932 30.584C187.932 31.48 187.729 32.2747 187.324 32.968C186.919 33.6613 186.364 34.2 185.66 34.584C184.967 34.9573 184.199 35.144 183.356 35.144ZM183.356 33.56C183.825 33.56 184.263 33.448 184.668 33.224C185.084 33 185.42 32.664 185.676 32.216C185.932 31.768 186.06 31.224 186.06 30.584C186.06 29.944 185.937 29.4053 185.692 28.968C185.447 28.52 185.121 28.184 184.716 27.96C184.311 27.736 183.873 27.624 183.404 27.624C182.935 27.624 182.497 27.736 182.092 27.96C181.697 28.184 181.383 28.52 181.148 28.968C180.913 29.4053 180.796 29.944 180.796 30.584C180.796 31.5333 181.036 32.2693 181.516 32.792C182.007 33.304 182.62 33.56 183.356 33.56Z" fill="white"/>
<path d="M270.801 21V37.228L279.612 29.114L270.801 21Z" fill="white"/>
<path d="M22.6563 16.375C21.3993 16.375 20.1938 16.8743 19.3049 17.7632C18.4161 18.652 17.9167 19.8576 17.9167 21.1146V34.2396C17.9167 35.4966 18.4161 36.7021 19.3049 37.591C20.1938 38.4798 21.3993 38.9792 22.6563 38.9792H37.9688C39.2258 38.9792 40.4314 38.4798 41.3202 37.591C42.2091 36.7021 42.7084 35.4966 42.7084 34.2396V21.1146C42.7084 19.8576 42.2091 18.652 41.3202 17.7632C40.4314 16.8743 39.2258 16.375 37.9688 16.375H22.6563ZM26.6667 31.3229V23.3035C26.6668 23.1072 26.7197 22.9146 26.8199 22.7457C26.9201 22.5769 27.0638 22.4382 27.2361 22.3441C27.4084 22.2499 27.6028 22.2039 27.799 22.2108C27.9952 22.2177 28.1859 22.2773 28.3511 22.3833L35.0857 26.6985C35.1887 26.7645 35.2734 26.8553 35.3321 26.9626C35.3907 27.0699 35.4215 27.1902 35.4215 27.3125C35.4215 27.4348 35.3907 27.5551 35.3321 27.6624C35.2734 27.7697 35.1887 27.8605 35.0857 27.9265L28.3511 32.2417C28.1859 32.3477 27.9952 32.4073 27.799 32.4142C27.6028 32.4211 27.4084 32.3751 27.2361 32.2809C27.0638 32.1868 26.9201 32.0481 26.8199 31.8793C26.7197 31.7104 26.6668 31.5178 26.6667 31.3215V31.3229ZM26.3022 42.625C25.5059 42.6257 24.7223 42.4257 24.0239 42.0433C23.3255 41.661 22.7347 41.1087 22.3063 40.4375H38.698C40.1484 40.4375 41.5394 39.8613 42.565 38.8357C43.5906 37.8102 44.1667 36.4192 44.1667 34.9687V20.7646C44.8379 21.193 45.3902 21.7837 45.7726 22.4822C46.1549 23.1806 46.355 23.9642 46.3542 24.7604V34.9687C46.3542 39.1979 42.9272 42.625 38.698 42.625H26.3022Z" fill="black"/>
</svg>
