<svg width="114" height="116" viewBox="0 0 114 116" fill="none" xmlns="http://www.w3.org/2000/svg">
<rect width="114" height="116" rx="8" fill="#F0F0F0"/>
<path d="M14.116 82.2842C15.18 82.2842 16.0993 82.4849 16.874 82.8862C17.658 83.2782 18.2553 83.8429 18.666 84.5802C19.086 85.3176 19.296 86.1856 19.296 87.1842C19.296 88.1829 19.086 89.0509 18.666 89.7882C18.2553 90.5162 17.658 91.0762 16.874 91.4682C16.0993 91.8509 15.18 92.0422 14.116 92.0422H11.078V82.2842H14.116ZM14.116 90.9922C15.376 90.9922 16.3373 90.6609 17 89.9982C17.6627 89.3262 17.994 88.3882 17.994 87.1842C17.994 85.9709 17.658 85.0236 16.986 84.3422C16.3233 83.6609 15.3667 83.3202 14.116 83.3202H12.352V90.9922H14.116ZM27.9764 87.9122C27.9764 88.1549 27.9624 88.4116 27.9344 88.6822H21.8024C21.8491 89.4382 22.1058 90.0309 22.5724 90.4602C23.0484 90.8802 23.6224 91.0902 24.2944 91.0902C24.8451 91.0902 25.3024 90.9642 25.6664 90.7122C26.0398 90.4509 26.3011 90.1056 26.4504 89.6762H27.8224C27.6171 90.4136 27.2064 91.0156 26.5904 91.4822C25.9744 91.9396 25.2091 92.1682 24.2944 92.1682C23.5664 92.1682 22.9131 92.0049 22.3344 91.6782C21.7651 91.3516 21.3171 90.8896 20.9904 90.2922C20.6638 89.6856 20.5004 88.9856 20.5004 88.1922C20.5004 87.3989 20.6591 86.7036 20.9764 86.1062C21.2938 85.5089 21.7371 85.0516 22.3064 84.7342C22.8851 84.4076 23.5478 84.2442 24.2944 84.2442C25.0224 84.2442 25.6664 84.4029 26.2264 84.7202C26.7864 85.0376 27.2158 85.4762 27.5144 86.0362C27.8224 86.5869 27.9764 87.2122 27.9764 87.9122ZM26.6604 87.6462C26.6604 87.1609 26.5531 86.7456 26.3384 86.4002C26.1238 86.0456 25.8298 85.7796 25.4564 85.6022C25.0924 85.4156 24.6864 85.3222 24.2384 85.3222C23.5944 85.3222 23.0438 85.5276 22.5864 85.9382C22.1384 86.3489 21.8818 86.9182 21.8164 87.6462H26.6604ZM30.9321 81.6822V92.0422H29.6581V81.6822H30.9321ZM40.1034 87.9122C40.1034 88.1549 40.0894 88.4116 40.0614 88.6822H33.9294C33.9761 89.4382 34.2327 90.0309 34.6994 90.4602C35.1754 90.8802 35.7494 91.0902 36.4214 91.0902C36.9721 91.0902 37.4294 90.9642 37.7934 90.7122C38.1667 90.4509 38.4281 90.1056 38.5774 89.6762H39.9494C39.7441 90.4136 39.3334 91.0156 38.7174 91.4822C38.1014 91.9396 37.3361 92.1682 36.4214 92.1682C35.6934 92.1682 35.0401 92.0049 34.4614 91.6782C33.8921 91.3516 33.4441 90.8896 33.1174 90.2922C32.7907 89.6856 32.6274 88.9856 32.6274 88.1922C32.6274 87.3989 32.7861 86.7036 33.1034 86.1062C33.4207 85.5089 33.8641 85.0516 34.4334 84.7342C35.0121 84.4076 35.6747 84.2442 36.4214 84.2442C37.1494 84.2442 37.7934 84.4029 38.3534 84.7202C38.9134 85.0376 39.3427 85.4762 39.6414 86.0362C39.9494 86.5869 40.1034 87.2122 40.1034 87.9122ZM38.7874 87.6462C38.7874 87.1609 38.6801 86.7456 38.4654 86.4002C38.2507 86.0456 37.9567 85.7796 37.5834 85.6022C37.2194 85.4156 36.8134 85.3222 36.3654 85.3222C35.7214 85.3222 35.1707 85.5276 34.7134 85.9382C34.2654 86.3489 34.0087 86.9182 33.9434 87.6462H38.7874ZM43.339 85.4202V89.9422C43.339 90.3156 43.4184 90.5816 43.577 90.7402C43.7357 90.8896 44.011 90.9642 44.403 90.9642H45.341V92.0422H44.193C43.4837 92.0422 42.9517 91.8789 42.597 91.5522C42.2424 91.2256 42.065 90.6889 42.065 89.9422V85.4202H41.071V84.3702H42.065V82.4382H43.339V84.3702H45.341V85.4202H43.339ZM53.8846 87.9122C53.8846 88.1549 53.8706 88.4116 53.8426 88.6822H47.7106C47.7573 89.4382 48.014 90.0309 48.4806 90.4602C48.9566 90.8802 49.5306 91.0902 50.2026 91.0902C50.7533 91.0902 51.2106 90.9642 51.5746 90.7122C51.948 90.4509 52.2093 90.1056 52.3586 89.6762H53.7306C53.5253 90.4136 53.1146 91.0156 52.4986 91.4822C51.8826 91.9396 51.1173 92.1682 50.2026 92.1682C49.4746 92.1682 48.8213 92.0049 48.2426 91.6782C47.6733 91.3516 47.2253 90.8896 46.8986 90.2922C46.572 89.6856 46.4086 88.9856 46.4086 88.1922C46.4086 87.3989 46.5673 86.7036 46.8846 86.1062C47.202 85.5089 47.6453 85.0516 48.2146 84.7342C48.7933 84.4076 49.456 84.2442 50.2026 84.2442C50.9306 84.2442 51.5746 84.4029 52.1346 84.7202C52.6946 85.0376 53.124 85.4762 53.4226 86.0362C53.7306 86.5869 53.8846 87.2122 53.8846 87.9122ZM52.5686 87.6462C52.5686 87.1609 52.4613 86.7456 52.2466 86.4002C52.032 86.0456 51.738 85.7796 51.3646 85.6022C51.0006 85.4156 50.5946 85.3222 50.1466 85.3222C49.5026 85.3222 48.952 85.5276 48.4946 85.9382C48.0466 86.3489 47.79 86.9182 47.7246 87.6462H52.5686ZM64.8147 82.2842V83.3202H60.5727V86.6102H64.0167V87.6462H60.5727V92.0422H59.2987V82.2842H64.8147ZM69.6994 92.1682C68.9807 92.1682 68.3274 92.0049 67.7394 91.6782C67.1607 91.3516 66.7034 90.8896 66.3674 90.2922C66.0407 89.6856 65.8774 88.9856 65.8774 88.1922C65.8774 87.4082 66.0454 86.7176 66.3814 86.1202C66.7267 85.5136 67.1934 85.0516 67.7814 84.7342C68.3694 84.4076 69.0274 84.2442 69.7554 84.2442C70.4834 84.2442 71.1414 84.4076 71.7294 84.7342C72.3174 85.0516 72.7794 85.5089 73.1154 86.1062C73.4607 86.7036 73.6334 87.3989 73.6334 88.1922C73.6334 88.9856 73.4561 89.6856 73.1014 90.2922C72.7561 90.8896 72.2847 91.3516 71.6874 91.6782C71.0901 92.0049 70.4274 92.1682 69.6994 92.1682ZM69.6994 91.0482C70.1567 91.0482 70.5861 90.9409 70.9874 90.7262C71.3887 90.5116 71.7107 90.1896 71.9534 89.7602C72.2054 89.3309 72.3314 88.8082 72.3314 88.1922C72.3314 87.5762 72.2101 87.0536 71.9674 86.6242C71.7247 86.1949 71.4074 85.8776 71.0154 85.6722C70.6234 85.4576 70.1987 85.3502 69.7414 85.3502C69.2747 85.3502 68.8454 85.4576 68.4534 85.6722C68.0707 85.8776 67.7627 86.1949 67.5294 86.6242C67.2961 87.0536 67.1794 87.5762 67.1794 88.1922C67.1794 88.8176 67.2914 89.3449 67.5154 89.7742C67.7487 90.2036 68.0567 90.5256 68.4394 90.7402C68.8221 90.9456 69.2421 91.0482 69.6994 91.0482ZM76.5825 81.6822V92.0422H75.3085V81.6822H76.5825ZM78.2778 88.1782C78.2778 87.3942 78.4364 86.7082 78.7538 86.1202C79.0711 85.5229 79.5051 85.0609 80.0558 84.7342C80.6158 84.4076 81.2411 84.2442 81.9318 84.2442C82.5291 84.2442 83.0844 84.3842 83.5978 84.6642C84.1111 84.9349 84.5031 85.2942 84.7738 85.7422V81.6822H86.0618V92.0422H84.7738V90.6002C84.5218 91.0576 84.1484 91.4356 83.6538 91.7342C83.1591 92.0236 82.5804 92.1682 81.9178 92.1682C81.2364 92.1682 80.6158 92.0002 80.0558 91.6642C79.5051 91.3282 79.0711 90.8569 78.7538 90.2502C78.4364 89.6436 78.2778 88.9529 78.2778 88.1782ZM84.7738 88.1922C84.7738 87.6136 84.6571 87.1096 84.4238 86.6802C84.1904 86.2509 83.8731 85.9242 83.4718 85.7002C83.0798 85.4669 82.6458 85.3502 82.1698 85.3502C81.6938 85.3502 81.2598 85.4622 80.8678 85.6862C80.4758 85.9102 80.1631 86.2369 79.9298 86.6662C79.6964 87.0956 79.5798 87.5996 79.5798 88.1782C79.5798 88.7662 79.6964 89.2796 79.9298 89.7182C80.1631 90.1476 80.4758 90.4789 80.8678 90.7122C81.2598 90.9362 81.6938 91.0482 82.1698 91.0482C82.6458 91.0482 83.0798 90.9362 83.4718 90.7122C83.8731 90.4789 84.1904 90.1476 84.4238 89.7182C84.6571 89.2796 84.7738 88.7709 84.7738 88.1922ZM95.2147 87.9122C95.2147 88.1549 95.2007 88.4116 95.1727 88.6822H89.0407C89.0874 89.4382 89.3441 90.0309 89.8107 90.4602C90.2867 90.8802 90.8607 91.0902 91.5327 91.0902C92.0834 91.0902 92.5407 90.9642 92.9047 90.7122C93.2781 90.4509 93.5394 90.1056 93.6887 89.6762H95.0607C94.8554 90.4136 94.4447 91.0156 93.8287 91.4822C93.2127 91.9396 92.4474 92.1682 91.5327 92.1682C90.8047 92.1682 90.1514 92.0049 89.5727 91.6782C89.0034 91.3516 88.5554 90.8896 88.2287 90.2922C87.9021 89.6856 87.7387 88.9856 87.7387 88.1922C87.7387 87.3989 87.8974 86.7036 88.2147 86.1062C88.5321 85.5089 88.9754 85.0516 89.5447 84.7342C90.1234 84.4076 90.7861 84.2442 91.5327 84.2442C92.2607 84.2442 92.9047 84.4029 93.4647 84.7202C94.0247 85.0376 94.4541 85.4762 94.7527 86.0362C95.0607 86.5869 95.2147 87.2122 95.2147 87.9122ZM93.8987 87.6462C93.8987 87.1609 93.7914 86.7456 93.5767 86.4002C93.3621 86.0456 93.0681 85.7796 92.6947 85.6022C92.3307 85.4156 91.9247 85.3222 91.4767 85.3222C90.8327 85.3222 90.2821 85.5276 89.8247 85.9382C89.3767 86.3489 89.1201 86.9182 89.0547 87.6462H93.8987ZM98.1704 85.6162C98.3944 85.1776 98.7117 84.8369 99.1224 84.5942C99.5424 84.3516 100.051 84.2302 100.648 84.2302V85.5462H100.312C98.8844 85.5462 98.1704 86.3209 98.1704 87.8702V92.0422H96.8964V84.3702H98.1704V85.6162Z" fill="black"/>
<path d="M54.7123 23.1097C54.0073 23.1097 53.1729 22.5955 52.8569 21.9671L51.44 19.1427C51.1247 18.5142 50.2903 18 49.5853 18H33.5635C32.2818 18 31.0001 19.2774 31.0001 20.5549V21.8323C31.0001 22.5349 31.0001 23.6846 31.0001 24.3871V60.7938C31.0001 61.4964 32.8586 63.3487 33.5635 63.3487H75.861C76.5659 63.3487 78.4245 61.4964 78.4245 60.7938V25.6646C78.4245 23.7484 77.7836 23.1097 75.861 23.1097H54.7123Z" fill="#263740"/>
<path d="M75.8611 23.1096H73.2977C75.2203 23.1096 75.8611 23.7483 75.8611 25.6644V60.7937C75.8611 61.4963 74.0026 63.3485 73.2977 63.3485H75.8611C76.5661 63.3485 78.4246 61.4963 78.4246 60.7937V25.6644C78.4246 23.7483 77.7838 23.1096 75.8611 23.1096Z" fill="#1E2C33"/>
<path d="M74.5792 36.5225C74.5792 37.9277 73.4257 39.0774 72.0157 39.0774H37.4088C35.9988 39.0774 34.8453 37.9277 34.8453 36.5225V28.858C34.8453 27.4528 35.9988 26.3031 37.4088 26.3031H72.0157C73.4257 26.3031 74.5792 27.4528 74.5792 28.858V36.5225Z" fill="white"/>
<path d="M75.861 33.3291H33.5635C32.2818 33.3291 31.0001 34.6065 31.0001 35.884V60.7938C31.0001 62.0712 32.2818 63.3487 33.5635 63.3487H75.861C77.1427 63.3487 78.4245 62.0712 78.4245 60.7938V35.884C78.4245 34.6065 77.1427 33.3291 75.861 33.3291Z" fill="#849C96"/>
<path d="M75.8611 33.3291H73.2977C74.5794 33.3291 75.8611 34.6065 75.8611 35.884V60.7938C75.8611 62.0712 74.5794 63.3487 73.2977 63.3487H75.8611C77.1429 63.3487 78.4246 62.0712 78.4246 60.7938V35.884C78.4246 34.6065 77.1429 33.3291 75.8611 33.3291Z" fill="#849C96"/>
<path d="M73.2977 69.0971C67.2902 69.0971 62.4029 64.2263 62.4029 58.239C62.4029 52.2517 67.2902 47.3809 73.2977 47.3809C79.3052 47.3809 84.1925 52.2517 84.1925 58.239C84.1925 64.2263 79.3052 69.0971 73.2977 69.0971Z" fill="#D9E6E8"/>
<path d="M73.2974 66.5421C77.8987 66.5421 81.6287 62.8246 81.6287 58.2388C81.6287 53.6531 77.8987 49.9355 73.2974 49.9355C68.6962 49.9355 64.9661 53.6531 64.9661 58.2388C64.9661 62.8246 68.6962 66.5421 73.2974 66.5421Z" fill="#2D4452"/>
<path d="M68.795 53.8007V62.1859H77.2085V53.8007H68.795ZM69.4405 54.5844H76.563V61.4022H69.4405V54.5844ZM70.9086 55.5686C70.7078 55.5686 70.5387 55.6504 70.4018 55.8139C70.2648 55.9775 70.1964 56.1793 70.1964 56.4192C70.1964 56.6481 70.2648 56.8443 70.4018 57.0079C70.5387 57.1714 70.7078 57.2531 70.9086 57.2531C71.1004 57.2531 71.2646 57.1714 71.4016 57.0079C71.5386 56.8443 71.607 56.6481 71.607 56.4192C71.607 56.1793 71.5386 55.9775 71.4016 55.8139C71.2646 55.6504 71.1004 55.5686 70.9086 55.5686ZM73.9353 55.9832L72.3193 58.9107L71.4612 58.0601L70.1964 60.0224V60.5952H75.8071V58.2944L73.9353 55.9832Z" fill="white"/>
</svg>
