<svg width="316" height="66" viewBox="0 0 316 66" fill="none" xmlns="http://www.w3.org/2000/svg">
<path d="M298.339 66H25.6608C15.9268 66 8 59.9188 8 52.4205V19.5794C8 12.0949 15.9268 6 25.6608 6H298.339C308.073 6 316 12.0949 316 19.5794V52.4205C316 59.9188 308.073 66 298.339 66ZM25.6608 7.44465C16.9467 7.44465 9.86093 12.8929 9.86093 19.5932V52.4343C9.86093 59.1346 16.9467 64.5829 25.6608 64.5829H298.339C307.053 64.5829 314.139 59.1346 314.139 52.4343V19.5932C314.139 12.8929 307.053 7.44465 298.339 7.44465H25.6608Z" fill="#849C96"/>
<path d="M306 45.261C306 52.2641 298.471 58 289.278 58H16.7218C7.52929 58 0 52.2641 0 45.261V12.739C0 5.73593 7.51141 0 16.7218 0H289.26C298.453 0 305.982 5.73593 305.982 12.739V45.261H306Z" fill="#849C96"/>
<path d="M58 8H19.4659C12.6147 8 7 12.3521 7 17.6626V42.3374C7 47.6479 12.6147 52 19.4659 52H58V8Z" fill="white"/>
<path d="M242.92 5H241.062V53.8773H242.92V5Z" fill="white"/>
<path d="M103.024 35.112C102.277 35.112 101.605 34.984 101.008 34.728C100.411 34.4613 99.9415 34.088 99.6002 33.608C99.2588 33.128 99.0882 32.568 99.0882 31.928H101.04C101.083 32.408 101.269 32.8027 101.6 33.112C101.941 33.4213 102.416 33.576 103.024 33.576C103.653 33.576 104.144 33.4267 104.496 33.128C104.848 32.8187 105.024 32.424 105.024 31.944C105.024 31.5707 104.912 31.2667 104.688 31.032C104.475 30.7973 104.203 30.616 103.872 30.488C103.552 30.36 103.104 30.2213 102.528 30.072C101.803 29.88 101.211 29.688 100.752 29.496C100.304 29.2933 99.9202 28.984 99.6002 28.568C99.2802 28.152 99.1202 27.5973 99.1202 26.904C99.1202 26.264 99.2802 25.704 99.6002 25.224C99.9202 24.744 100.368 24.376 100.944 24.12C101.52 23.864 102.187 23.736 102.944 23.736C104.021 23.736 104.901 24.008 105.584 24.552C106.277 25.0853 106.661 25.8213 106.736 26.76H104.72C104.688 26.3547 104.496 26.008 104.144 25.72C103.792 25.432 103.328 25.288 102.752 25.288C102.229 25.288 101.803 25.4213 101.472 25.688C101.141 25.9547 100.976 26.3387 100.976 26.84C100.976 27.1813 101.077 27.464 101.28 27.688C101.493 27.9013 101.76 28.072 102.08 28.2C102.4 28.328 102.837 28.4667 103.392 28.616C104.128 28.8187 104.725 29.0213 105.184 29.224C105.653 29.4267 106.048 29.7413 106.368 30.168C106.699 30.584 106.864 31.144 106.864 31.848C106.864 32.4133 106.709 32.9467 106.4 33.448C106.101 33.9493 105.659 34.3547 105.072 34.664C104.496 34.9627 103.813 35.112 103.024 35.112ZM108.408 30.552C108.408 29.6667 108.59 28.8827 108.952 28.2C109.326 27.5173 109.827 26.9893 110.456 26.616C111.096 26.232 111.8 26.04 112.568 26.04C113.262 26.04 113.864 26.1787 114.376 26.456C114.899 26.7227 115.315 27.0587 115.624 27.464V26.184H117.464V35H115.624V33.688C115.315 34.104 114.894 34.4507 114.36 34.728C113.827 35.0053 113.219 35.144 112.536 35.144C111.779 35.144 111.086 34.952 110.456 34.568C109.827 34.1733 109.326 33.6293 108.952 32.936C108.59 32.232 108.408 31.4373 108.408 30.552ZM115.624 30.584C115.624 29.976 115.496 29.448 115.24 29C114.995 28.552 114.67 28.2107 114.264 27.976C113.859 27.7413 113.422 27.624 112.952 27.624C112.483 27.624 112.046 27.7413 111.64 27.976C111.235 28.2 110.904 28.536 110.648 28.984C110.403 29.4213 110.28 29.944 110.28 30.552C110.28 31.16 110.403 31.6933 110.648 32.152C110.904 32.6107 111.235 32.9627 111.64 33.208C112.056 33.4427 112.494 33.56 112.952 33.56C113.422 33.56 113.859 33.4427 114.264 33.208C114.67 32.9733 114.995 32.632 115.24 32.184C115.496 31.7253 115.624 31.192 115.624 30.584ZM123.556 27.672H121.924V35H120.084V27.672H119.044V26.184H120.084V25.56C120.084 24.5467 120.351 23.8107 120.884 23.352C121.428 22.8827 122.276 22.648 123.428 22.648V24.168C122.873 24.168 122.484 24.2747 122.26 24.488C122.036 24.6907 121.924 25.048 121.924 25.56V26.184H123.556V27.672ZM133.253 30.376C133.253 30.7067 133.231 31.0053 133.189 31.272H126.453C126.506 31.976 126.767 32.5413 127.237 32.968C127.706 33.3947 128.282 33.608 128.965 33.608C129.946 33.608 130.639 33.1973 131.045 32.376H133.013C132.746 33.1867 132.261 33.8533 131.557 34.376C130.863 34.888 129.999 35.144 128.965 35.144C128.122 35.144 127.365 34.9573 126.693 34.584C126.031 34.2 125.509 33.6667 125.125 32.984C124.751 32.2907 124.565 31.4907 124.565 30.584C124.565 29.6773 124.746 28.8827 125.109 28.2C125.482 27.5067 125.999 26.9733 126.661 26.6C127.333 26.2267 128.101 26.04 128.965 26.04C129.797 26.04 130.538 26.2213 131.189 26.584C131.839 26.9467 132.346 27.4587 132.709 28.12C133.071 28.7707 133.253 29.5227 133.253 30.376ZM131.349 29.8C131.338 29.128 131.098 28.5893 130.629 28.184C130.159 27.7787 129.578 27.576 128.885 27.576C128.255 27.576 127.717 27.7787 127.269 28.184C126.821 28.5787 126.554 29.1173 126.469 29.8H131.349ZM146.98 27.192C146.98 27.7573 146.847 28.2907 146.58 28.792C146.313 29.2933 145.887 29.704 145.3 30.024C144.713 30.3333 143.961 30.488 143.044 30.488H141.028V35H139.204V23.88H143.044C143.897 23.88 144.617 24.0293 145.204 24.328C145.801 24.616 146.244 25.0107 146.532 25.512C146.831 26.0133 146.98 26.5733 146.98 27.192ZM143.044 29C143.737 29 144.255 28.8453 144.596 28.536C144.937 28.216 145.108 27.768 145.108 27.192C145.108 25.976 144.42 25.368 143.044 25.368H141.028V29H143.044ZM153.28 26.04C153.952 26.04 154.549 26.184 155.072 26.472C155.605 26.76 156.021 27.1867 156.32 27.752C156.629 28.3173 156.784 29 156.784 29.8V35H154.976V30.072C154.976 29.2827 154.778 28.68 154.384 28.264C153.989 27.8373 153.45 27.624 152.768 27.624C152.085 27.624 151.541 27.8373 151.136 28.264C150.741 28.68 150.544 29.2827 150.544 30.072V35H148.72V23.16H150.544V27.208C150.853 26.8347 151.242 26.5467 151.712 26.344C152.192 26.1413 152.714 26.04 153.28 26.04ZM162.934 35.144C162.102 35.144 161.35 34.9573 160.678 34.584C160.006 34.2 159.478 33.6667 159.094 32.984C158.71 32.2907 158.518 31.4907 158.518 30.584C158.518 29.688 158.715 28.8933 159.11 28.2C159.505 27.5067 160.043 26.9733 160.726 26.6C161.409 26.2267 162.171 26.04 163.014 26.04C163.857 26.04 164.619 26.2267 165.302 26.6C165.985 26.9733 166.523 27.5067 166.918 28.2C167.313 28.8933 167.51 29.688 167.51 30.584C167.51 31.48 167.307 32.2747 166.902 32.968C166.497 33.6613 165.942 34.2 165.238 34.584C164.545 34.9573 163.777 35.144 162.934 35.144ZM162.934 33.56C163.403 33.56 163.841 33.448 164.246 33.224C164.662 33 164.998 32.664 165.254 32.216C165.51 31.768 165.638 31.224 165.638 30.584C165.638 29.944 165.515 29.4053 165.27 28.968C165.025 28.52 164.699 28.184 164.294 27.96C163.889 27.736 163.451 27.624 162.982 27.624C162.513 27.624 162.075 27.736 161.67 27.96C161.275 28.184 160.961 28.52 160.726 28.968C160.491 29.4053 160.374 29.944 160.374 30.584C160.374 31.5333 160.614 32.2693 161.094 32.792C161.585 33.304 162.198 33.56 162.934 33.56ZM171.441 27.672V32.552C171.441 32.8827 171.516 33.1227 171.665 33.272C171.825 33.4107 172.092 33.48 172.465 33.48H173.585V35H172.145C171.324 35 170.695 34.808 170.257 34.424C169.82 34.04 169.601 33.416 169.601 32.552V27.672H168.561V26.184H169.601V23.992H171.441V26.184H173.585V27.672H171.441ZM179.09 35.144C178.258 35.144 177.506 34.9573 176.834 34.584C176.162 34.2 175.634 33.6667 175.25 32.984C174.866 32.2907 174.674 31.4907 174.674 30.584C174.674 29.688 174.872 28.8933 175.266 28.2C175.661 27.5067 176.2 26.9733 176.882 26.6C177.565 26.2267 178.328 26.04 179.17 26.04C180.013 26.04 180.776 26.2267 181.458 26.6C182.141 26.9733 182.68 27.5067 183.074 28.2C183.469 28.8933 183.666 29.688 183.666 30.584C183.666 31.48 183.464 32.2747 183.058 32.968C182.653 33.6613 182.098 34.2 181.394 34.584C180.701 34.9573 179.933 35.144 179.09 35.144ZM179.09 33.56C179.56 33.56 179.997 33.448 180.402 33.224C180.818 33 181.154 32.664 181.41 32.216C181.666 31.768 181.794 31.224 181.794 30.584C181.794 29.944 181.672 29.4053 181.426 28.968C181.181 28.52 180.856 28.184 180.45 27.96C180.045 27.736 179.608 27.624 179.138 27.624C178.669 27.624 178.232 27.736 177.826 27.96C177.432 28.184 177.117 28.52 176.882 28.968C176.648 29.4053 176.53 29.944 176.53 30.584C176.53 31.5333 176.77 32.2693 177.25 32.792C177.741 33.304 178.354 33.56 179.09 33.56ZM188.67 35.144C187.976 35.144 187.352 35.0213 186.798 34.776C186.254 34.52 185.822 34.1787 185.502 33.752C185.182 33.3147 185.011 32.8293 184.99 32.296H186.878C186.91 32.6693 187.086 32.984 187.406 33.24C187.736 33.4853 188.147 33.608 188.638 33.608C189.15 33.608 189.544 33.512 189.822 33.32C190.11 33.1173 190.254 32.8613 190.254 32.552C190.254 32.2213 190.094 31.976 189.774 31.816C189.464 31.656 188.968 31.48 188.286 31.288C187.624 31.1067 187.086 30.9307 186.67 30.76C186.254 30.5893 185.891 30.328 185.582 29.976C185.283 29.624 185.134 29.16 185.134 28.584C185.134 28.1147 185.272 27.688 185.55 27.304C185.827 26.9093 186.222 26.6 186.734 26.376C187.256 26.152 187.854 26.04 188.526 26.04C189.528 26.04 190.334 26.296 190.942 26.808C191.56 27.3093 191.891 27.9973 191.934 28.872H190.11C190.078 28.4773 189.918 28.1627 189.63 27.928C189.342 27.6933 188.952 27.576 188.462 27.576C187.982 27.576 187.614 27.6667 187.358 27.848C187.102 28.0293 186.974 28.2693 186.974 28.568C186.974 28.8027 187.059 29 187.23 29.16C187.4 29.32 187.608 29.448 187.854 29.544C188.099 29.6293 188.462 29.7413 188.942 29.88C189.582 30.0507 190.104 30.2267 190.51 30.408C190.926 30.5787 191.283 30.8347 191.582 31.176C191.88 31.5173 192.035 31.9707 192.046 32.536C192.046 33.0373 191.907 33.4853 191.63 33.88C191.352 34.2747 190.958 34.584 190.446 34.808C189.944 35.032 189.352 35.144 188.67 35.144Z" fill="white"/>
<path d="M270.801 21V37.228L279.612 29.114L270.801 21Z" fill="white"/>
<path d="M46 41.1109V20.8887C46 19.2998 44.7 17.9998 43.1111 17.9998H22.8889C21.3 17.9998 20 19.2998 20 20.8887V41.1109C20 42.6998 21.3 43.9998 22.8889 43.9998H43.1111C44.7 43.9998 46 42.6998 46 41.1109ZM27.9444 33.1665L31.5556 37.5143L36.6111 30.9998L43.1111 39.6665H22.8889L27.9444 33.1665Z" fill="black"/>
</svg>
