<svg width="140" height="118" viewBox="0 0 140 118" fill="none" xmlns="http://www.w3.org/2000/svg">
<path d="M99.0093 91.4897C97.1777 90.9626 95.8083 89.6144 95.422 87.9568L92.7557 76.5117L69.9484 77.2141L67.1413 89.1375C66.7484 90.8073 68.322 92.4827 70.134 93.0975L79.6761 96.3359C81.4509 96.938 83.3585 97.178 85.2546 97.0375L105.42 95.5414C106.01 95.4977 106.483 95.0959 106.551 94.5801C106.62 94.0644 107.033 93.4854 106.471 93.324L99.0093 91.4897Z" fill="#97A6B7"/>
<path d="M99.2346 90.7933C97.4044 90.2728 96.0366 88.9416 95.6513 87.3049L92.9875 76.0038L70.7361 76.698L67.932 88.4712C67.5391 90.1201 68.5784 91.7737 70.389 92.3807L79.9215 95.578C81.6943 96.1727 83.6004 96.4096 85.4944 96.2709L105.64 94.7935C106.229 94.7503 106.702 94.3533 106.77 93.8445C106.838 93.3353 106.484 92.8549 105.923 92.6952L99.2346 90.7933Z" fill="url(#paint0_linear_6_1754)"/>
<path d="M135.658 68.5541V17.2349C135.658 16.1825 134.658 15.2868 133.433 15.244L31.7783 11.6998C30.2314 11.6457 28.9622 12.5728 28.9622 13.7601V70.4757L135.658 68.5541Z" fill="url(#paint1_linear_6_1754)"/>
<path d="M131.239 17.8069L34.6658 14.6824C33.2588 14.637 32.1042 15.4857 32.1042 16.5691V21.6535V65.9566C32.1042 67.0623 33.2829 67.938 34.7192 67.9026L131.196 65.5229C132.347 65.4946 133.287 64.6643 133.287 63.6782V24.165V19.6298C133.287 18.6638 132.366 17.8435 131.239 17.8069Z" fill="url(#paint2_linear_6_1754)"/>
<path d="M28.9602 70.4756V81.8025C28.9602 82.9897 30.2294 83.9147 31.7764 83.858L133.431 80.1305C134.656 80.0855 135.656 79.188 135.656 78.1356V68.225L28.9602 70.4756Z" fill="url(#paint3_linear_6_1754)"/>
<g opacity="0.48">
<path opacity="0.48" d="M124.647 61.9286C116.298 59.4826 109.391 64.4715 103.39 60.5437C96.6241 56.115 102.092 47.6077 95.8343 42.5956C87.1404 35.6333 69.759 46.4309 62.2096 39.8669C57.0195 35.354 63.1418 28.129 58.747 20.5287C56.5124 16.6642 52.3254 14.0297 47.2425 12.2391L31.7783 11.6998C30.2314 11.6457 28.9622 12.5728 28.9622 13.7601V70.4757V81.8026C28.9622 82.9898 30.2314 83.9148 31.7783 83.8581L133.433 80.1306C134.658 80.0856 135.658 79.1881 135.658 78.1357V70.8125C132.078 65.3232 128.126 62.9474 124.647 61.9286Z" fill="white"/>
</g>
<path d="M58.4047 63.4919L48.3822 68.3603C48.3822 68.3603 43.6161 64.8174 44.0402 60.4773C44.9055 51.6222 35.9032 51.5829 32.1352 51.0772C26.4531 50.3146 22.4749 47.6958 25.7745 43.1406C29.5077 37.9867 20.3993 33.5193 11.0177 33.435C1.83777 33.3526 -3.29046 19.1512 16.5976 17.7476C28.4749 16.9094 32.6076 26.3217 35.9972 30.6443C39.3869 34.967 47.4218 31.558 48.3394 38.4047C49.1232 44.2527 47.0279 49.8128 52.4358 51.4682C57.8438 53.1231 60.5457 56.612 58.4047 63.4919Z" fill="url(#paint4_linear_6_1754)"/>
<g opacity="0.7">
<g opacity="0.7">
<path opacity="0.7" d="M54.5884 66.4056L54.359 66.4737C54.3102 66.3502 49.3968 54.0228 40.2772 43.076C31.8756 32.9913 18.0811 22.0484 0.075963 27.1891L0 26.9893C8.0153 24.7008 15.8762 25.3544 23.3648 28.9309C29.3467 31.7879 35.1042 36.5067 40.4764 42.9564C49.6161 53.9286 54.5396 66.2822 54.5884 66.4056Z" fill="white"/>
<path opacity="0.7" d="M26.4199 30.5426L26.195 30.6221C23.151 24.1383 14.9289 16.8217 14.8464 16.7484L15.0195 16.6009C15.1025 16.6742 23.3583 24.0205 26.4199 30.5426Z" fill="white"/>
<path opacity="0.7" d="M21.3544 28.2781C11.7464 27.8889 6.28419 32.9686 6.23036 33.0196L6.05127 32.8778C6.1061 32.8255 11.6403 27.6738 21.366 28.0678L21.3544 28.2781Z" fill="white"/>
<path opacity="0.7" d="M45.7897 50.5143C37.8368 43.0114 22.8988 47.4797 22.7574 47.5338L22.6453 47.3475C22.7781 47.2829 37.9449 42.8019 45.9683 50.3721L45.7897 50.5143Z" fill="white"/>
<path opacity="0.7" d="M43.4873 46.8165L43.2559 46.8798C41.0007 40.6771 45.4804 33.48 45.5262 33.4075L45.739 33.5088C45.6937 33.5799 41.2638 40.7006 43.4873 46.8165Z" fill="white"/>
<path opacity="0.7" d="M53.5364 64.5486C51.0568 61.329 43.791 61.3552 43.7181 61.356L43.7156 61.1457C44.0194 61.1431 51.1851 61.1174 53.7381 64.4317L53.5364 64.5486Z" fill="white"/>
<path opacity="0.7" d="M52.4181 61.6157L52.1898 61.6859C51.0081 58.8014 53.7025 53.6397 54.5879 51.9433C54.7131 51.7037 54.8208 51.4965 54.8318 51.4564L55.0688 51.5017C55.0542 51.5585 54.9833 51.6963 54.8087 52.0301C53.9329 53.7073 51.2692 58.811 52.4181 61.6157Z" fill="white"/>
</g>
</g>
<path d="M62.149 88.0825C62.2164 88.0895 62.2838 88.0965 62.3512 88.1035C66.3476 88.504 70.7967 88.329 75.691 87.2326C76.6277 86.9603 77.5644 86.6885 78.5006 86.4162C78.6238 84.263 78.2968 82.1961 75.1567 82.1835C70.28 82.1638 67.8537 75.3537 68.2627 72.6219C68.7688 69.2404 69.7604 61.3452 62.222 61.2117C55.9462 61.1004 51.8709 62.1411 49.2953 55.8323C46.7196 49.5231 41.3287 46.5522 34.7537 48.643C27.8346 50.8434 19.2881 44.1734 14.432 48.3716C5.96997 55.687 19.8842 67.4899 33.5202 68.4599C47.1562 69.4298 41.4279 75.0496 42.8762 80.3806C44.8532 87.6589 55.5 83.2812 59.4033 85.3433C60.7248 86.041 61.5866 87.0271 62.149 88.0825Z" fill="url(#paint5_linear_6_1754)"/>
<g opacity="0.7">
<g opacity="0.7">
<path opacity="0.7" d="M69.6531 88.1253L69.96 87.9839C58.0535 68.5384 35.3241 54.2 10.6423 50.5646L10.5845 50.8613C35.1621 54.4819 57.7959 68.7605 69.6531 88.1253Z" fill="#FCFDFE"/>
<path opacity="0.7" d="M62.1149 78.0057L62.448 77.9197C59.6006 69.6266 65.567 61.0485 65.6278 60.963L65.332 60.8055C65.2697 60.8923 59.2228 69.5821 62.1149 78.0057Z" fill="#FCFDFE"/>
<path opacity="0.7" d="M67.3508 84.5998L67.5968 84.3873C60.4538 78.1767 42.4809 81.6782 42.3003 81.7144L42.3783 82.008C42.5569 81.9723 60.3431 78.5074 67.3508 84.5998Z" fill="#FCFDFE"/>
<path opacity="0.7" d="M44.1284 63.0945L44.3945 62.9007C39.2336 57.5724 40.6054 46.9676 40.62 46.8611L40.2754 46.8258C40.2603 46.9336 38.8719 57.6675 44.1284 63.0945Z" fill="#FCFDFE"/>
<path opacity="0.7" d="M30.1701 56.0976L30.2602 55.8065C21.4289 53.755 10.6216 58.9398 10.5129 58.9926L10.683 59.2552C10.7896 59.2029 21.4762 54.0778 30.1701 56.0976Z" fill="#FCFDFE"/>
</g>
</g>
<path d="M87.4673 94.0329C86.1407 91.4926 84.6225 87.5666 85.2508 82.9901C85.9722 77.735 88.8643 76.4247 90.8902 70.6889C93.7818 62.5013 88.6903 57.248 92.3988 54.4791C94.2073 53.1291 97.2806 52.8386 99.322 53.8303C105.146 56.6607 105.487 71.3468 97.6201 77.8319C94.0625 80.7648 90.6391 80.7792 88.1444 84.3758C85.94 87.554 86.6267 91.4076 87.4673 94.0329Z" fill="url(#paint6_linear_6_1754)"/>
<path d="M86.033 87.4628L85.9253 87.4497C86.1124 86.3057 86.4148 85.1708 86.8228 84.0765C87.762 81.5585 88.9633 80.1116 90.4841 78.2795C91.4716 77.0897 92.5909 75.7415 93.841 73.8426C96.1787 70.2909 96.8875 69.0548 97.4168 67.125C98.4652 63.3024 97.8202 60.0247 97.3423 58.4112C96.6647 56.1223 95.488 53.9944 93.845 52.0859L93.932 52.0292C95.5836 53.9477 96.7668 56.087 97.448 58.3877C97.9284 60.0095 98.5768 63.3046 97.5229 67.1468C96.9902 69.088 96.2798 70.3285 93.9356 73.8897C92.6829 75.793 91.5616 77.1434 90.5726 78.335C89.0574 80.1601 87.8606 81.6021 86.9264 84.1057C86.5199 85.1944 86.2196 86.324 86.033 87.4628Z" fill="white"/>
<path d="M97.9261 64.4717L97.915 64.3945C97.1594 59.2184 89.7564 58.118 89.6814 58.1076L89.699 58.0142C89.774 58.0247 97.1821 59.1264 98.0111 64.3033C98.3255 64.0991 99.5978 63.223 100.66 61.7617C101.782 60.2198 102.893 57.6909 101.82 54.3997L101.924 54.374C103.009 57.7 101.884 60.2564 100.75 61.8154C99.5213 63.5035 98.0146 64.4185 97.9995 64.4272L97.9261 64.4717Z" fill="white"/>
<path d="M97.4437 73.2641C95.763 73.2641 94.5471 72.9237 94.5219 72.9168L94.4786 72.9041L94.4857 72.8648C94.9571 70.1278 94.0128 68.2337 93.1375 67.1268C92.1902 65.9282 91.1202 65.3702 91.1091 65.3645L91.165 65.2833C91.2082 65.3056 95.4843 67.5696 94.6004 72.8391C95.111 72.9726 99.9827 74.1376 103.58 71.1148L103.656 71.1824C101.659 72.86 99.2753 73.2641 97.4437 73.2641Z" fill="white"/>
<path d="M94.5583 78.6975C92.1934 78.6975 90.8875 77.8969 90.8668 77.8838L90.8351 77.8637L90.8467 77.8314C91.8679 75.0023 89.416 70.7591 89.3914 70.7163L89.4884 70.6736C89.5136 70.7163 91.9655 74.9609 90.9624 77.8262C91.3126 78.0256 94.515 79.6928 99.8123 77.4252L99.8606 77.5099C97.7507 78.413 95.9664 78.6975 94.5583 78.6975Z" fill="white"/>
<path d="M84.543 93.0931C83.8543 90.9521 83.1888 87.5693 84.8534 84.3313C87.7576 78.6823 94.485 79.8316 100 73.5534C104.448 68.4894 102.418 65.0708 107.602 61.4956C108.47 60.897 113.041 57.6233 116.914 58.9706C119.096 59.7298 120.088 61.6178 120.275 61.9721C123.092 67.3275 117.657 76.6399 109.651 81.4193C105.052 84.1651 103.382 83.5669 95.1184 87.0426C90.2633 89.0851 86.7228 91.4595 84.543 93.0931Z" fill="url(#paint7_linear_6_1754)"/>
<path d="M84.147 95.7852L84.0388 95.776C84.637 90.4446 86.5722 86.718 89.7903 84.7C91.3659 83.7118 92.687 83.4548 94.085 83.1821C95.5866 82.8897 97.1401 82.5869 99.0789 81.3033C100.963 80.0558 101.558 78.9689 102.313 77.5932C102.991 76.3545 103.836 74.813 105.897 72.6711C107.704 70.794 109.075 69.866 110.284 69.0474C111.593 68.1613 112.627 67.4614 113.727 65.8819C115.525 63.302 116.238 60.1435 115.846 56.4949L115.955 56.4862C116.349 60.1557 115.631 63.3334 113.821 65.9308C112.71 67.5251 111.669 68.2298 110.352 69.1216C109.147 69.9375 107.781 70.8621 105.981 72.7317C103.929 74.864 103.087 76.3999 102.411 77.6338C101.651 79.0213 101.05 80.1169 99.1453 81.3783C97.1874 82.6746 95.6229 82.9796 94.1091 83.2746C92.7222 83.5446 91.4122 83.7999 89.8542 84.7768C86.6623 86.7782 84.7421 90.4821 84.147 95.7852Z" fill="white"/>
<path d="M109.723 69.4942L109.738 69.4323C109.757 69.3572 111.547 61.8734 108.104 59.1757L108.177 59.1054C111.498 61.7072 110.025 68.6586 109.859 69.3899C118.64 68.7647 122.529 62.6688 122.567 62.6069L122.663 62.6518C122.624 62.7142 118.686 68.8882 109.796 69.489L109.723 69.4942Z" fill="white"/>
<path d="M109.207 75.6825C106.113 75.6825 103.959 75.0909 103.937 75.0848L103.893 75.0721L103.9 75.032C104.629 71.1492 102.897 65.8837 102.879 65.8309L102.984 65.8047C103.002 65.8575 104.728 71.1064 104.015 75.0067C104.347 75.0931 106.502 75.6193 109.466 75.5866C112.431 75.5547 116.837 74.943 120.996 72.2103L121.062 72.2854C116.878 75.0342 112.445 75.649 109.463 75.6808C109.377 75.6821 109.291 75.6825 109.207 75.6825Z" fill="white"/>
<path d="M105.612 84.8828C102.892 84.8828 100.689 84.5416 99.1525 84.1947C96.771 83.6572 95.4298 82.99 95.4167 82.9831L95.3669 82.9582L95.3981 82.9167C98.2595 79.1133 96.2513 73.4612 96.2307 73.4045L96.3343 73.3762C96.355 73.4329 98.3637 79.085 95.5209 82.9259C96.0818 83.189 101.277 85.4906 109.371 84.5743L109.385 84.6681C108.041 84.82 106.779 84.8828 105.612 84.8828Z" fill="white"/>
<path d="M85.1055 86.6819C86.6227 85.9581 89.0837 84.9384 92.2887 84.3153C97.9899 83.2075 100.357 84.4619 102.951 82.7005C105.635 80.8767 104.369 78.6702 107.56 76.654C107.828 76.4842 111.246 74.3838 113.906 75.5784C115.767 76.4144 116.258 78.4141 116.489 79.3522C117.383 82.9937 115.837 88.2378 111.169 90.4146C106.744 92.4784 101.747 90.7497 100.162 90.1908C97.3807 89.21 96.8349 88.1667 93.9971 87.2452C90.5461 86.1252 87.2732 86.3438 85.1055 86.6819Z" fill="url(#paint8_linear_6_1754)"/>
<path d="M83.8526 87.3547L83.7993 87.2722C87.5029 85.4698 90.967 84.8009 94.0965 85.2839C95.4649 85.4951 96.394 85.8625 97.293 86.2176C98.4153 86.6609 99.4753 87.0798 101.313 87.2054C104.62 87.4315 107.563 86.7573 109.599 85.3079C112.753 83.0626 113.966 78.8682 112.69 74.622L112.795 74.598C114.082 78.8796 112.855 83.1123 109.668 85.3808C107.61 86.8459 104.64 87.527 101.304 87.2997C99.4471 87.1727 98.3786 86.7508 97.2472 86.3036C96.3548 85.951 95.4316 85.5863 94.0769 85.3768C90.974 84.8978 87.5336 85.5631 83.8526 87.3547Z" fill="white"/>
<path d="M111.167 83.8716L111.183 83.8004C112.236 79.1876 106.085 75.9248 106.023 75.8921L106.079 75.8114C106.142 75.8441 112.293 79.1078 111.306 83.7463C111.999 83.5919 116.887 82.3894 117.656 79.1017L117.763 79.1205C116.925 82.7031 111.305 83.8449 111.248 83.8558L111.167 83.8716Z" fill="white"/>
<path d="M110.869 89.3744C109.409 89.3744 108.195 89.161 107.258 88.901C105.053 88.2888 103.853 87.2905 103.84 87.2805L103.802 87.2482L103.838 87.2142C107.503 83.7877 104.343 78.8944 104.31 78.8451L104.405 78.798C104.438 78.8473 107.616 83.7677 103.956 87.2434C104.177 87.4162 105.334 88.2683 107.297 88.8124C109.311 89.3705 112.61 89.7086 116.89 88.1523L116.932 88.2395C114.609 89.0838 112.572 89.3744 110.869 89.3744Z" fill="white"/>
<path d="M106.846 92.2092L49.5018 109.364L14.5953 104.072C13.5082 103.907 12.7148 103.088 12.7148 102.131V92.4264C12.7148 91.4325 13.6244 90.6179 14.7699 90.5869L77.1738 88.8783L106.846 92.2092Z" fill="#BFC8D6"/>
<path d="M14.855 91.5547L48.2101 96.6806V108.303L14.855 103.281V91.5547Z" fill="#D8DEE8"/>
<path d="M47.3264 107.738V96.8534C47.3264 95.8777 48.3014 95.0391 49.5017 94.9802L106.429 92.1891C107.483 92.1376 108.335 92.8344 108.335 93.7459V103.913C108.335 104.825 107.483 105.619 106.429 105.687L49.5017 109.364C48.3014 109.442 47.3264 108.713 47.3264 107.738Z" fill="white"/>
<path d="M53.2119 98.2002C53.2119 98.8529 52.5625 99.4171 51.7606 99.4603C50.9567 99.5035 50.3042 99.0082 50.3042 98.3533C50.3042 97.6984 50.9567 97.1342 51.7606 97.0928C52.563 97.0522 53.2119 97.5479 53.2119 98.2002Z" fill="#BFC8D6"/>
<path d="M57.7848 97.9594C57.7848 98.6086 57.1419 99.1702 56.3475 99.2129C55.5517 99.2557 54.9058 98.7626 54.9058 98.1112C54.9058 97.4598 55.5517 96.8982 56.3475 96.8577C57.1419 96.8167 57.7848 97.3101 57.7848 97.9594Z" fill="#BFC8D6"/>
<path d="M62.3118 97.7207C62.3118 98.3669 61.6754 98.9249 60.8886 98.9677C60.1008 99.01 59.4614 98.5192 59.4614 97.8712C59.4614 97.2228 60.1008 96.6648 60.8886 96.6242C61.6754 96.5832 62.3118 97.0745 62.3118 97.7207Z" fill="#BFC8D6"/>
<path d="M105.303 103.584L65.145 106.078V96.4048L105.303 94.3392V103.584Z" fill="url(#paint9_linear_6_1754)"/>
<g opacity="0.3">
<path opacity="0.3" d="M69.1218 105.151L67.8914 105.226V97.4267L69.1218 97.3617V105.151Z" fill="white"/>
<path opacity="0.3" d="M71.3016 105.017L70.0767 105.092V97.3115L71.3016 97.2469V105.017Z" fill="white"/>
<path opacity="0.3" d="M73.4704 104.884L72.252 104.959V97.1968L73.4704 97.1322V104.884Z" fill="white"/>
<path opacity="0.3" d="M75.6291 104.752L74.4163 104.826V97.0824L75.6291 97.0187V104.752Z" fill="white"/>
<path opacity="0.3" d="M77.7777 104.62L76.5703 104.694V96.969L77.7777 96.9053V104.62Z" fill="white"/>
<path opacity="0.3" d="M79.9159 104.489L78.7146 104.563V96.856L79.9159 96.7927V104.489Z" fill="white"/>
<path opacity="0.3" d="M82.0437 104.359L80.8479 104.432V96.7434L82.0437 96.6806V104.359Z" fill="white"/>
<path opacity="0.3" d="M84.1607 104.229L82.9709 104.301V96.6313L84.1607 96.5689V104.229Z" fill="white"/>
<path opacity="0.3" d="M86.2689 104.099L85.0847 104.172V96.52L86.2689 96.4576V104.099Z" fill="white"/>
<path opacity="0.3" d="M88.3667 103.971L87.188 104.043V96.4091L88.3667 96.3467V103.971Z" fill="white"/>
<path opacity="0.3" d="M90.4541 103.842L89.281 103.914V96.2988L90.4541 96.2369V103.842Z" fill="white"/>
<path opacity="0.3" d="M92.5326 103.715L91.365 103.786V96.1888L92.5326 96.1273V103.715Z" fill="white"/>
<path opacity="0.3" d="M94.6013 103.588L93.4387 103.659V96.0797L94.6013 96.0182V103.588Z" fill="white"/>
<path opacity="0.3" d="M96.6597 103.462L95.5027 103.533V95.9707L96.6597 95.9096V103.462Z" fill="white"/>
<path opacity="0.3" d="M98.7089 103.336L97.5574 103.407V95.8625L98.7089 95.8018V103.336Z" fill="white"/>
<path opacity="0.3" d="M100.748 103.211L99.6021 103.281V95.7547L100.748 95.694V103.211Z" fill="white"/>
<path opacity="0.3" d="M102.778 103.087L101.637 103.156V95.6474L102.778 95.5872V103.087Z" fill="white"/>
</g>
<g opacity="0.69">
<path opacity="0.69" d="M69.1218 105.151L67.8914 105.226V98.5895L69.1218 98.5232V105.151Z" fill="url(#paint10_linear_6_1754)"/>
<path opacity="0.69" d="M71.3016 105.017L70.0767 105.092V104.295L71.3016 104.221V105.017Z" fill="url(#paint11_linear_6_1754)"/>
<path opacity="0.69" d="M73.4704 104.884L72.252 104.959V100.438L73.4704 100.369V104.884Z" fill="url(#paint12_linear_6_1754)"/>
<path opacity="0.69" d="M75.6291 104.752L74.4163 104.826V102.879L75.6291 102.807V104.752Z" fill="url(#paint13_linear_6_1754)"/>
<path opacity="0.69" d="M77.7777 104.62L76.5703 104.694V99.7169L77.7777 99.6497V104.62Z" fill="url(#paint14_linear_6_1754)"/>
<path opacity="0.69" d="M79.9159 104.489L78.7146 104.563V101.139L79.9159 101.07V104.489Z" fill="url(#paint15_linear_6_1754)"/>
<path opacity="0.69" d="M82.0437 104.359L80.8479 104.432V98.5001L82.0437 98.4346V104.359Z" fill="url(#paint16_linear_6_1754)"/>
<path opacity="0.69" d="M84.1607 104.229L82.9709 104.301V97.7749L84.1607 97.7108V104.229Z" fill="url(#paint17_linear_6_1754)"/>
<path opacity="0.69" d="M86.2689 104.099L85.0847 104.172V100.916L86.2689 100.848V104.099Z" fill="url(#paint18_linear_6_1754)"/>
<path opacity="0.69" d="M88.3667 103.971L87.188 104.043V96.9319L88.3667 96.8691V103.971Z" fill="url(#paint19_linear_6_1754)"/>
<path opacity="0.69" d="M90.4541 103.842L89.281 103.914V97.8727L90.4541 97.8085V103.842Z" fill="url(#paint20_linear_6_1754)"/>
<path opacity="0.69" d="M92.5326 103.715L91.365 103.787V102.17L92.5326 102.101V103.715Z" fill="url(#paint21_linear_6_1754)"/>
<path opacity="0.69" d="M94.6013 103.588L93.4387 103.66V99.8697L94.6013 99.8033V103.588Z" fill="url(#paint22_linear_6_1754)"/>
<path opacity="0.69" d="M96.6597 103.462L95.5027 103.533V98.0834L96.6597 98.0197V103.462Z" fill="url(#paint23_linear_6_1754)"/>
<path opacity="0.69" d="M98.7089 103.336L97.5574 103.407V99.4421L98.7089 99.3766V103.336Z" fill="url(#paint24_linear_6_1754)"/>
<path opacity="0.69" d="M100.748 103.211L99.6021 103.281V97.1458L100.748 97.0838V103.211Z" fill="url(#paint25_linear_6_1754)"/>
<path opacity="0.69" d="M102.778 103.087L101.637 103.156V96.3525L102.778 96.2914V103.087Z" fill="url(#paint26_linear_6_1754)"/>
</g>
<path d="M14.4919 89.4844L48.5111 94.3393L106.854 78.4306C107.016 78.3865 106.992 78.181 106.823 78.1684C101.785 77.7892 73.9967 75.6992 73.8423 75.701L14.9568 77.4236C13.7137 77.4371 12.7141 78.315 12.7141 79.3936V87.6684C12.7146 88.5694 13.4667 89.3378 14.4919 89.4844Z" fill="#BFC8D6"/>
<path d="M14.855 78.8403L49.102 81.5673V93.5827C49.102 93.5827 14.855 89.3316 14.855 88.75C14.855 88.1679 14.855 78.8403 14.855 78.8403Z" fill="#D8DEE8"/>
<path d="M47.3264 92.8252V81.9408C47.3264 80.9651 48.3014 80.1422 49.5017 80.1025L106.429 78.2281C107.483 78.1932 108.335 78.904 108.335 79.8154V89.983C108.335 90.8945 107.483 91.6746 106.429 91.7257L49.5017 94.4863C48.3014 94.5448 47.3264 93.8008 47.3264 92.8252Z" fill="white"/>
<path d="M53.2119 83.3828C53.2119 84.0355 52.5625 84.5892 51.7606 84.6197C50.9567 84.6503 50.3042 84.1442 50.3042 83.4897C50.3042 82.8348 50.9567 82.2811 51.7606 82.2527C52.563 82.2239 53.2119 82.73 53.2119 83.3828Z" fill="#BFC8D6"/>
<path d="M57.7848 83.2153C57.7848 83.8645 57.1419 84.4156 56.3475 84.4457C55.5517 84.4758 54.9058 83.9723 54.9058 83.3209C54.9058 82.6694 55.5517 82.1184 56.3475 82.0904C57.1419 82.0621 57.7848 82.5656 57.7848 83.2153Z" fill="#BFC8D6"/>
<path d="M62.3118 83.0495C62.3118 83.6956 61.6754 84.2437 60.8886 84.2733C60.1008 84.303 59.4614 83.8021 59.4614 83.1537C59.4614 82.5054 60.1008 81.9573 60.8886 81.9294C61.6754 81.9019 62.3118 82.4033 62.3118 83.0495Z" fill="#BFC8D6"/>
<path d="M105.303 89.6052L65.145 91.4517V81.7793L105.303 80.36V89.6052Z" fill="url(#paint27_linear_6_1754)"/>
<g opacity="0.3">
<path opacity="0.3" d="M69.1218 90.5891L67.8914 90.6449V82.8448L69.1218 82.7999V90.5891Z" fill="white"/>
<path opacity="0.3" d="M71.3016 90.4904L70.0767 90.5458V82.7649L71.3016 82.72V90.4904Z" fill="white"/>
<path opacity="0.3" d="M73.4704 90.3922L72.252 90.4477V82.6851L73.4704 82.6406V90.3922Z" fill="white"/>
<path opacity="0.3" d="M75.6291 90.2949L74.4163 90.3495V82.6061L75.6291 82.5616V90.2949Z" fill="white"/>
<path opacity="0.3" d="M77.7777 90.1976L76.5703 90.2522V82.5271L77.7777 82.4826V90.1976Z" fill="white"/>
<path opacity="0.3" d="M79.9159 90.1007L78.7146 90.1553V82.4485L79.9159 82.4045V90.1007Z" fill="white"/>
<path opacity="0.3" d="M82.0437 90.0048L80.8479 90.0585V82.3705L82.0437 82.3264V90.0048Z" fill="white"/>
<path opacity="0.3" d="M84.1607 89.9088L82.9709 89.9624V82.2923L84.1607 82.2491V89.9088Z" fill="white"/>
<path opacity="0.3" d="M86.2689 89.8132L85.0847 89.8669V82.2151L86.2689 82.1719V89.8132Z" fill="white"/>
<path opacity="0.3" d="M88.3667 89.7186L87.188 89.7718V82.1379L88.3667 82.0952V89.7186Z" fill="white"/>
<path opacity="0.3" d="M90.4541 89.6239L89.281 89.6771V82.0616L90.4541 82.0184V89.6239Z" fill="white"/>
<path opacity="0.3" d="M92.5326 89.5301L91.365 89.5829V81.9852L92.5326 81.9424V89.5301Z" fill="white"/>
<path opacity="0.3" d="M94.6013 89.4367L93.4387 89.489V81.9093L94.6013 81.8665V89.4367Z" fill="white"/>
<path opacity="0.3" d="M96.6597 89.3433L95.5027 89.3957V81.8338L96.6597 81.791V89.3433Z" fill="white"/>
<path opacity="0.3" d="M98.7089 89.2508L97.5574 89.3028V81.7583L98.7089 81.716V89.2508Z" fill="white"/>
<path opacity="0.3" d="M100.748 89.1584L99.6021 89.2103V81.6833L100.748 81.6414V89.1584Z" fill="white"/>
<path opacity="0.3" d="M102.778 89.0667L101.637 89.1182V81.6091L102.778 81.5672V89.0667Z" fill="white"/>
</g>
<g opacity="0.69">
<path opacity="0.69" d="M69.1216 90.5891L67.8911 90.6449V84.0081L69.1216 83.9614V90.5891Z" fill="url(#paint28_linear_6_1754)"/>
<path opacity="0.69" d="M71.3014 90.4904L70.0764 90.5458V89.7487L71.3014 89.6946V90.4904Z" fill="url(#paint29_linear_6_1754)"/>
<path opacity="0.69" d="M73.4701 90.3923L72.2517 90.4477V85.9265L73.4701 85.8777V90.3923Z" fill="url(#paint30_linear_6_1754)"/>
<path opacity="0.69" d="M75.6291 90.295L74.4163 90.3495V88.4018L75.6291 88.3494V90.295Z" fill="url(#paint31_linear_6_1754)"/>
<path opacity="0.69" d="M77.7774 90.1977L76.5701 90.2523V85.2752L77.7774 85.2272V90.1977Z" fill="url(#paint32_linear_6_1754)"/>
<path opacity="0.69" d="M79.9154 90.1008L78.7141 90.1554V86.7316L79.9154 86.6818V90.1008Z" fill="url(#paint33_linear_6_1754)"/>
<path opacity="0.69" d="M82.0437 90.0048L80.8479 90.0585V84.1271L82.0437 84.0809V90.0048Z" fill="url(#paint34_linear_6_1754)"/>
<path opacity="0.69" d="M84.1607 89.9088L82.9709 89.9625V83.436L84.1607 83.3911V89.9088Z" fill="url(#paint35_linear_6_1754)"/>
<path opacity="0.69" d="M86.2687 89.8133L85.0845 89.8669V86.6116L86.2687 86.5623V89.8133Z" fill="url(#paint36_linear_6_1754)"/>
<path opacity="0.69" d="M88.3667 89.7186L87.188 89.7719V82.6607L88.3667 82.6171V89.7186Z" fill="url(#paint37_linear_6_1754)"/>
<path opacity="0.69" d="M90.4541 89.624L89.281 89.6772V83.6355L90.4541 83.5901V89.624Z" fill="url(#paint38_linear_6_1754)"/>
<path opacity="0.69" d="M92.5324 89.5301L91.3647 89.5829V87.9668L92.5324 87.9162V89.5301Z" fill="url(#paint39_linear_6_1754)"/>
<path opacity="0.69" d="M94.6011 89.4368L93.4385 89.4891V85.6992L94.6011 85.6517V89.4368Z" fill="url(#paint40_linear_6_1754)"/>
<path opacity="0.69" d="M96.6592 89.3434L95.5022 89.3958V83.9466L96.6592 83.9012V89.3434Z" fill="url(#paint41_linear_6_1754)"/>
<path opacity="0.69" d="M98.7086 89.2509L97.5571 89.3028V85.3379L98.7086 85.2913V89.2509Z" fill="url(#paint42_linear_6_1754)"/>
<path opacity="0.69" d="M100.748 89.1584L99.6016 89.2103V83.0748L100.748 83.0307V89.1584Z" fill="url(#paint43_linear_6_1754)"/>
<path opacity="0.69" d="M102.778 89.0667L101.637 89.1182V82.3142L102.778 82.2715V89.0667Z" fill="url(#paint44_linear_6_1754)"/>
</g>
<path d="M139.277 65.4624V105.997C139.277 106.603 138.681 106.741 138.005 106.768L115.393 108.055L115.059 108.068C114.373 108.096 113.811 107.618 113.811 107.007V66.1238C113.811 65.5125 114.373 64.9977 115.059 64.9802L115.513 64.9684L138.215 65.297C138.89 65.2804 139.277 64.8563 139.277 65.4624Z" fill="url(#paint45_linear_6_1754)"/>
<path d="M140 65.4244V105.988C140 106.595 139.447 107.113 138.771 107.14L115.748 108.06C115.061 108.088 114.498 107.61 114.498 106.998V66.0867C114.498 65.475 115.061 64.9601 115.748 64.9422L138.771 64.3528C139.447 64.3353 140 64.8174 140 65.4244Z" fill="url(#paint46_linear_6_1754)"/>
<path d="M139.237 67.6928V105.242C139.237 105.808 138.72 106.291 138.089 106.317L116.44 107.176C115.799 107.201 115.275 106.755 115.275 106.185V68.3338C115.275 67.7635 115.799 67.2827 116.44 67.2656L138.089 66.6945C138.72 66.6775 139.237 67.1269 139.237 67.6928Z" fill="url(#paint47_linear_6_1754)"/>
<path d="M127.731 65.8655C127.731 66.0767 127.54 66.2529 127.304 66.2591C127.067 66.2652 126.875 66.0989 126.875 65.8877C126.875 65.6766 127.067 65.5003 127.304 65.4942C127.54 65.4881 127.731 65.6543 127.731 65.8655Z" fill="#839F99"/>
<g opacity="0.48">
<path opacity="0.48" d="M132.523 88.9259C130.423 84.3489 124.766 85.4301 123.003 80.8047C121.564 77.0292 124.764 74.8166 123.512 70.4447C122.809 67.9917 121.079 66.1692 119.311 64.8515L115.806 64.9409C115.1 64.9588 114.52 65.4741 114.52 66.0854V106.962C114.52 107.573 115.099 108.021 115.806 107.957L133.44 106.352C132.025 104.417 131.456 102.648 131.255 101.18C130.524 95.8359 134.445 93.119 132.523 88.9259Z" fill="white"/>
</g>
<path d="M95.8597 2.22889C103.039 2.55526 109.11 8.12969 109.418 14.678C109.447 15.3011 109.422 15.9115 109.349 16.5049C110.594 16.0816 111.972 15.8783 113.43 15.9446C119.356 16.2138 124.364 20.8127 124.618 26.2174C124.86 31.3529 120.723 35.3666 115.226 35.5245C114.937 35.5315 114.646 35.5306 114.35 35.5171L65.2392 33.1405C62.4749 32.5549 60.2926 30.2677 60.1689 27.6315C60.029 24.6615 62.5574 22.3721 65.8137 22.52C66.5049 22.5514 67.1735 22.6888 67.7978 22.9162C67.5141 21.9859 67.341 21.023 67.2947 20.0391C66.9763 13.2691 72.7334 8.05334 80.1561 8.39061C81.5354 8.45344 82.8751 8.70564 84.1453 9.11403C85.8638 4.84245 90.3934 1.98019 95.8597 2.22889Z" fill="#413974"/>
<path d="M98.9742 0.0149715C106.153 0.341339 112.225 5.91577 112.533 12.4641C112.562 13.0871 112.536 13.6976 112.463 14.291C113.708 13.8677 115.086 13.6644 116.545 13.7307C122.47 13.9999 127.479 18.5987 127.733 24.0035C127.974 29.1389 123.837 33.1527 118.341 33.3106C118.052 33.3176 117.76 33.3167 117.465 33.3032L68.3537 30.9266C65.5894 30.341 63.4071 28.0538 63.2834 25.4176C63.1435 22.4475 65.6719 20.1582 68.9282 20.3061C69.6194 20.3375 70.288 20.4749 70.9123 20.7022C70.6286 19.772 70.4555 18.8091 70.4093 17.8251C70.0908 11.0552 75.8479 5.83942 83.2706 6.17669C84.65 6.23952 85.9896 6.49172 87.2598 6.90011C88.9783 2.62897 93.5079 -0.233295 98.9742 0.0149715Z" fill="url(#paint48_linear_6_1754)"/>
<path d="M67.0893 76.7409C65.6123 76.778 64.1721 76.4551 62.924 75.8067C59.1223 73.8302 53.5046 70.5661 48.4508 66.2932C42.0378 60.871 38.3534 55.3594 37.5474 49.9473L37.5349 49.8627L37.3784 26.7691C37.3784 22.2052 40.8108 18.5004 47.2545 16.0661C52.5785 14.0547 59.6349 13.0581 67.0893 13.2453C74.4572 13.4303 81.2747 14.7489 86.3209 16.9457C92.3194 19.5576 95.4666 23.2279 95.4666 27.5793L95.3237 49.6454L95.3122 49.7265C94.5757 54.9091 91.1855 60.2663 85.1936 65.6836C80.3873 70.0285 74.9567 73.472 71.227 75.6056C69.994 76.3107 68.5633 76.7042 67.0893 76.7409Z" fill="url(#paint49_linear_6_1754)"/>
<path d="M68.5514 76.7408C67.0941 76.7778 65.6724 76.455 64.4409 75.8066C60.6896 73.8301 55.1463 70.5659 50.1589 66.2931C43.8309 60.8709 40.1948 55.3593 39.3994 49.9472L39.3869 49.8625L39.2324 26.7689C39.2324 22.205 42.619 18.5002 48.9778 16.066C54.2312 14.0546 61.1946 13.058 68.5509 13.2452C75.8212 13.4302 82.5492 14.7487 87.5285 16.9456C93.448 19.5574 96.5534 23.2278 96.5534 27.5792L96.4126 49.6452L96.401 49.7264C95.6741 54.909 92.3287 60.2662 86.4162 65.6835C81.6738 70.0284 76.3147 73.4718 72.6343 75.6054C71.4174 76.3105 70.0053 76.7041 68.5514 76.7408Z" fill="url(#paint50_linear_6_1754)"/>
<path d="M40.991 26.7851L41.1464 49.7617C42.89 61.4852 58.7752 70.9765 65.6939 74.5827C67.6759 75.6159 70.2099 75.5544 72.1778 74.4313C78.9521 70.5651 93.967 60.8321 95.5713 49.5606L95.7136 27.5552C95.7136 11.2303 40.991 9.7376 40.991 26.7851Z" fill="url(#paint51_linear_6_1754)"/>
<path d="M68.9438 71.0416C68.8171 71.0442 68.6249 71.0259 68.4312 70.9238C65.5824 69.4276 60.0603 66.2935 55.2565 62.2008C50.0674 57.78 47.0747 53.4818 46.3885 49.445L46.2361 26.8488C46.2426 24.6807 48.2212 22.8251 52.1003 21.3403C56.4307 19.6827 62.5796 18.8131 68.9438 18.944C75.2447 19.0736 81.2146 20.174 85.3502 21.9537C89.0085 23.528 90.8583 25.3845 90.8643 27.4776L90.7224 49.2914C90.082 53.1978 87.2729 57.4092 82.3414 61.8361C77.7042 65.9986 72.2877 69.298 69.4565 70.9028C69.2628 71.0128 69.0706 71.039 68.9438 71.0416Z" fill="url(#paint52_linear_6_1754)"/>
<path d="M68.2939 69.497C65.4168 67.9602 60.3012 64.9928 55.838 61.1829C50.9613 57.0204 48.1397 53.0259 47.4761 49.3302L47.3252 26.8649C47.3297 25.3147 48.9727 23.8927 52.1959 22.6549C56.2978 21.0798 62.1746 20.2494 68.2939 20.3686C74.3543 20.4864 80.0665 21.5248 83.9919 23.2094C87.042 24.5184 88.5849 25.946 88.5894 27.4579L88.4481 49.1919C87.8258 52.778 85.1641 56.6997 80.5092 60.87C76.1874 64.7424 71.1578 67.8564 68.2939 69.497Z" fill="#F4F7FA"/>
<path d="M78.5874 40.0842L59.2149 40.2338C57.7258 40.2452 56.5125 41.2522 56.5125 42.4822V53.2476C56.5125 54.4701 57.7213 55.4178 59.2048 55.3655L78.5089 54.68C79.8817 54.6311 80.9955 53.6455 81.0026 52.477L81.0639 42.1929C81.071 41.0179 79.9652 40.0737 78.5874 40.0842Z" fill="url(#paint53_linear_6_1754)"/>
<path d="M71.5518 46.2573C71.5563 45.0683 70.3797 44.1285 68.9429 44.2075C67.6712 44.2773 66.6158 45.1682 66.5443 46.2372C66.489 47.0667 67.0061 47.7849 67.7934 48.1496C68.128 48.3045 68.2935 48.6296 68.2276 48.9503L67.6677 51.6699C67.5962 52.0159 67.9127 52.3204 68.3297 52.3078L69.7468 52.2646C70.1614 52.2519 70.4763 51.9299 70.4078 51.5896L69.866 48.8957C69.8012 48.5742 69.9923 48.2552 70.3284 48.0798C71.0588 47.6998 71.5488 47.0217 71.5518 46.2573Z" fill="url(#paint54_linear_6_1754)"/>
<path d="M78.3154 39.0165C77.7339 39.02 77.263 38.619 77.2655 38.1212L77.2771 35.776C77.2892 33.4207 75.044 31.483 72.246 31.459L65.923 31.4045C63.0273 31.3796 60.6463 33.3378 60.6438 35.7677L60.6413 38.1867C60.6408 38.7002 60.1367 39.1195 59.5139 39.123C58.8896 39.1265 58.3831 38.7115 58.3831 38.1954L58.3841 35.7664C58.3856 32.2937 61.7953 29.5052 65.927 29.5549L72.253 29.6313C76.2272 29.6793 79.4015 32.4377 79.3829 35.7764L79.3698 38.112C79.3678 38.6086 78.8959 39.013 78.3154 39.0165Z" fill="url(#paint55_linear_6_1754)"/>
<path d="M39.1579 59.0985C39.1579 59.0985 39.5599 58.602 39.7717 58.2525C39.9829 57.903 39.4678 56.9344 39.2404 56.1263C39.013 55.3182 38.8958 56.5788 38.8672 56.8641C38.8385 57.1495 38.835 57.677 38.4944 58.5823L39.1579 59.0985Z" fill="url(#paint56_linear_6_1754)"/>
<path d="M36.5752 107.685L36.4187 109.852C36.4187 109.852 36.7734 110.178 37.456 109.951L38.2016 107.823L36.5752 107.685Z" fill="url(#paint57_linear_6_1754)"/>
<path d="M36.8879 109.278C36.8879 109.278 35.6645 109.711 35.9019 110.181C36.0292 110.433 36.4709 111.002 36.8522 111.475C37.2054 111.913 37.8427 112.107 38.4328 111.954C38.631 111.902 38.8333 111.852 39.0129 111.812C39.3836 111.729 39.4052 111.279 39.044 111.169C38.869 111.115 38.6954 111.072 38.5445 111.052C38.0968 110.992 37.48 110.074 37.4081 109.706C37.3356 109.338 36.8879 109.278 36.8879 109.278Z" fill="url(#paint58_linear_6_1754)"/>
<path d="M33.9466 86.8874C35.749 87.4267 42.4136 89.6118 43.8981 94.6238C43.9776 94.8913 44.1809 95.6352 44.1899 96.8508C44.2282 101.909 40.8365 106.191 38.37 108.681C37.5922 108.67 36.8145 108.658 36.0373 108.647C35.6489 107.356 35.2928 105.425 35.8506 103.252C36.7038 99.9312 38.9168 99.0699 38.4902 97.4398C37.715 94.4798 29.7907 94.9275 29.0442 92.2773C28.7736 91.32 29.3662 89.6951 33.9466 86.8874Z" fill="url(#paint59_linear_6_1754)"/>
<path d="M11.6554 117.173L15.0395 117.105C15.2483 117.1 15.3378 116.875 15.1779 116.759C15.0204 116.644 14.8031 116.55 14.5249 116.575C13.8815 116.633 12.4377 115.852 11.7822 116.02C11.5684 116.074 11.3943 116.511 11.3053 116.632C11.1302 116.869 11.3309 117.18 11.6554 117.173Z" fill="url(#paint60_linear_6_1754)"/>
<path d="M13.1757 114.918L11.7822 116.02C11.7822 116.02 12.2687 116.335 12.9785 116.2L14.4027 115.349L13.1757 114.918Z" fill="url(#paint61_linear_6_1754)"/>
<g opacity="0.3">
<path opacity="0.3" d="M39.9256 99.9394C40.8603 97.7509 41.9811 95.0518 40.7008 93.5199C39.4054 91.9692 36.5671 93.2781 33.7198 92.0285C32.6639 91.5651 31.5782 90.7357 30.6752 89.2343C29.077 90.6654 28.8597 91.6262 29.0433 92.2777C29.7899 94.9283 37.7146 94.4802 38.4893 97.4402C38.9159 99.0703 36.7029 99.9316 35.8498 103.252C35.3698 105.12 35.5665 106.808 35.8774 108.066C36.1546 106.898 36.5857 105.671 37.2447 104.434C38.267 102.514 38.9406 102.245 39.9256 99.9394Z" fill="url(#paint62_linear_6_1754)"/>
</g>
<path d="M34.9793 86.2556C33.8821 90.6236 31.5449 97.2936 26.1898 104.256C22.2252 109.41 17.8696 113.082 14.4533 115.535C14.2104 115.598 13.7958 115.676 13.2882 115.622C12.9109 115.582 12.6116 115.483 12.4104 115.399C12.6458 114.168 13.1419 112.348 14.319 110.384C16.4726 106.788 18.3903 106.904 20.5535 103.731C22.1376 101.407 22.6523 98.939 23.6825 94.0025C24.4779 90.1908 24.4784 89.2797 25.5675 88.1867C27.7694 85.9768 31.9036 85.9519 34.9793 86.2556Z" fill="url(#paint63_linear_6_1754)"/>
<g opacity="0.3">
<path opacity="0.3" d="M15.1448 111.197C15.9135 110.145 17.2773 109.049 19.9671 106.888C22.7471 104.654 22.6404 105.058 23.1877 104.398C25.6377 101.443 24.3111 98.2849 24.9168 94.4741C25.2548 92.3479 26.3369 89.5694 29.4886 86.4576C28.0116 86.6936 26.5975 87.2019 25.5682 88.1867C24.304 89.3962 24.3971 90.5808 23.6833 94.0024C22.653 98.939 22.1384 101.407 20.5542 103.731C18.391 106.904 16.4734 106.788 14.3198 110.384C13.1426 112.348 12.6466 114.167 12.4111 115.399C12.6124 115.483 12.9117 115.582 13.289 115.622C13.5883 115.654 13.8539 115.639 14.0722 115.61C13.8937 113.112 14.7544 111.731 15.1448 111.197Z" fill="url(#paint64_linear_6_1754)"/>
</g>
<path d="M37.9408 57.8707C37.9408 57.8707 38.8418 63.6903 31.7717 67.7935L39.295 69.3498C39.295 69.3498 41.7032 65.4448 39.9596 58.9763L37.9408 57.8707Z" fill="#F4F7FA"/>
<path d="M30.8467 63.4067C31.216 62.7758 31.3684 62.7793 31.4595 62.4459C31.6662 61.6867 31.1325 60.7225 30.6797 60.7094C30.3879 60.7006 30.3638 61.0942 29.746 61.7077C28.9889 62.459 28.5296 62.3604 28.0844 63.0127C27.9803 63.1654 27.5114 63.8522 27.7997 64.3644C28.1679 65.0185 29.6187 65.1223 30.2254 64.6175C30.5127 64.3784 30.3915 64.1842 30.8467 63.4067Z" fill="url(#paint65_linear_6_1754)"/>
<path d="M29.7591 64.0878C29.7591 64.0878 30.0182 65.2873 29.834 66.2629C29.667 67.1443 27.7846 68.0601 27.4239 68.3228C27.0632 68.5854 28.3807 68.8703 29.59 68.7329C30.7989 68.5959 34.1091 67.677 34.6121 67.1652C35.1152 66.653 34.0266 66.9056 33.111 66.8087C32.1954 66.7119 31.3211 65.3806 31.2944 64.7017C31.2673 64.0215 29.7591 64.0878 29.7591 64.0878Z" fill="url(#paint66_linear_6_1754)"/>
<path d="M30.1535 64.9832C30.1535 64.9832 31.0791 65.3357 31.8986 64.7672C32.6326 64.258 31.5414 62.6942 30.7944 62.6742C30.5453 62.6676 30.1816 62.8221 29.9668 63.0485C29.8401 63.1825 29.8325 63.2715 29.6202 63.4866C29.4245 63.6851 29.3385 63.703 29.3088 63.799C29.2716 63.9194 29.3355 64.1206 29.838 64.467C29.5875 64.4268 29.3717 64.484 29.2882 64.611C29.2751 64.631 29.2469 64.6943 29.2555 64.7593C29.2862 64.9954 29.6413 65.1045 30.1535 64.9832Z" fill="url(#paint67_linear_6_1754)"/>
<path d="M50.4929 60.8106C50.4929 60.8106 51.0533 60.743 50.8788 59.8145C50.7419 59.0867 50.8456 58.8419 51.0438 58.9711C51.242 59.1002 51.2697 59.5208 51.2697 59.5208C51.2697 59.5208 51.9921 58.9863 52.2899 58.286C52.5872 57.5858 52.7788 58.1757 52.8422 58.5256C52.9061 58.876 52.4171 59.9633 52.141 60.1657C51.8648 60.3686 51.4608 61.2618 51.4608 61.2618L50.4929 60.8106Z" fill="url(#paint68_linear_6_1754)"/>
<path d="M51.9863 61.0593C51.3489 60.6719 50.711 60.2849 50.0736 59.8974C49.2979 64.0337 47.5342 65.6573 46.0365 66.3672C42.423 68.0802 39.1984 65.0277 32.2818 66.2734C30.3757 66.6167 27.054 67.256 25.2118 69.6112C24.7273 70.2303 24.5553 70.699 23.7514 75.1394C22.7236 80.8155 22.6869 81.8064 22.8318 83.0285C23.0969 85.2651 23.2579 86.6207 24.4466 87.8202C27.6038 91.0058 34.3152 89.3635 35.1563 89.147C36.7108 88.7478 39.1265 88.1269 40.0863 86.3454C40.5381 85.5072 40.4898 84.7411 39.796 81.6759C38.4212 75.6041 38.2456 75.211 38.6294 74.546C39.9248 72.302 44.0283 73.5861 47.4949 71.4992C49.5218 70.2797 51.8067 67.6212 51.9863 61.0593Z" fill="white"/>
<path d="M32.0119 88.3363C32.6886 87.1325 31.779 86.0234 32.7771 84.5766C34.0483 82.7327 36.3363 83.3588 37.197 81.9962C38.669 79.6662 32.8747 76.4165 34.0519 72.7073C34.6143 70.9363 36.5772 69.6544 38.2167 69.1688C41.8574 68.0906 44.2384 70.839 47.6517 69.9799C48.4606 69.7761 49.3892 69.3542 50.328 68.4785C49.4979 69.9973 48.4671 70.9149 47.4947 71.5C44.0281 73.5865 39.9241 72.3029 38.6292 74.5469C38.2454 75.2118 38.421 75.6049 39.7958 81.6768C40.4901 84.7419 40.5379 85.5081 40.0861 86.3463C39.1263 88.1278 36.7105 88.7482 35.1561 89.1479C34.6953 89.2661 32.4758 89.8102 30.0435 89.7579C31.1296 89.3748 31.7131 88.8673 32.0119 88.3363Z" fill="#F4F7FA"/>
<defs>
<linearGradient id="paint0_linear_6_1754" x1="86.9797" y1="80.5828" x2="87.2406" y2="91.8608" gradientUnits="userSpaceOnUse">
<stop stop-color="#444B8C"/>
<stop offset="0.9964" stop-color="#26264F"/>
</linearGradient>
<linearGradient id="paint1_linear_6_1754" x1="89.8116" y1="66.5647" x2="60.5283" y2="-51.9687" gradientUnits="userSpaceOnUse">
<stop stop-color="#444B8C"/>
<stop offset="0.9964" stop-color="#26264F"/>
</linearGradient>
<linearGradient id="paint2_linear_6_1754" x1="111.843" y1="10.8794" x2="56.8947" y2="84.1965" gradientUnits="userSpaceOnUse">
<stop offset="0.00359712" stop-color="#839F99"/>
<stop offset="1" stop-color="#829E98"/>
</linearGradient>
<linearGradient id="paint3_linear_6_1754" x1="28.9604" y1="76.0425" x2="135.656" y2="76.0425" gradientUnits="userSpaceOnUse">
<stop stop-color="#444B8C"/>
<stop offset="0.9964" stop-color="#26264F"/>
</linearGradient>
<linearGradient id="paint4_linear_6_1754" x1="34.5703" y1="35.1496" x2="22.8716" y2="71.2705" gradientUnits="userSpaceOnUse">
<stop stop-color="#DBD7CD"/>
<stop offset="0.9964" stop-color="#F36F56"/>
</linearGradient>
<linearGradient id="paint5_linear_6_1754" x1="24.4321" y1="48.8298" x2="69.7836" y2="95.7279" gradientUnits="userSpaceOnUse">
<stop stop-color="#DBD7CD"/>
<stop offset="1" stop-color="#FB6FBB"/>
</linearGradient>
<linearGradient id="paint6_linear_6_1754" x1="102.035" y1="59.8186" x2="89.3574" y2="79.8125" gradientUnits="userSpaceOnUse">
<stop offset="0.00359712" stop-color="#EAEAF3"/>
<stop offset="1" stop-color="#AA80F9"/>
</linearGradient>
<linearGradient id="paint7_linear_6_1754" x1="108.202" y1="62.103" x2="98.7164" y2="94.7339" gradientUnits="userSpaceOnUse">
<stop stop-color="#E1C8C5"/>
<stop offset="1" stop-color="#FB6FBB"/>
</linearGradient>
<linearGradient id="paint8_linear_6_1754" x1="84.0431" y1="92.0992" x2="178.89" y2="48.9248" gradientUnits="userSpaceOnUse">
<stop stop-color="#F3E7CD"/>
<stop offset="0.9964" stop-color="#F36F56"/>
</linearGradient>
<linearGradient id="paint9_linear_6_1754" x1="73.1391" y1="94.3345" x2="96.0442" y2="109.134" gradientUnits="userSpaceOnUse">
<stop stop-color="#444B8C"/>
<stop offset="0.9964" stop-color="#26264F"/>
</linearGradient>
<linearGradient id="paint10_linear_6_1754" x1="68.2861" y1="98.9573" x2="68.7847" y2="107.725" gradientUnits="userSpaceOnUse">
<stop stop-color="#FF9085"/>
<stop offset="1" stop-color="#FB6FBB"/>
</linearGradient>
<linearGradient id="paint11_linear_6_1754" x1="70.6616" y1="104.293" x2="70.7218" y2="105.351" gradientUnits="userSpaceOnUse">
<stop stop-color="#FF9085"/>
<stop offset="1" stop-color="#FB6FBB"/>
</linearGradient>
<linearGradient id="paint12_linear_6_1754" x1="72.7006" y1="100.541" x2="73.0403" y2="106.514" gradientUnits="userSpaceOnUse">
<stop stop-color="#FF9085"/>
<stop offset="1" stop-color="#FB6FBB"/>
</linearGradient>
<linearGradient id="paint13_linear_6_1754" x1="74.9514" y1="102.871" x2="75.0979" y2="105.448" gradientUnits="userSpaceOnUse">
<stop stop-color="#FF9085"/>
<stop offset="1" stop-color="#FB6FBB"/>
</linearGradient>
<linearGradient id="paint14_linear_6_1754" x1="76.9859" y1="99.6849" x2="77.3599" y2="106.259" gradientUnits="userSpaceOnUse">
<stop stop-color="#FF9085"/>
<stop offset="1" stop-color="#FB6FBB"/>
</linearGradient>
<linearGradient id="paint15_linear_6_1754" x1="79.1819" y1="101.054" x2="79.4392" y2="105.578" gradientUnits="userSpaceOnUse">
<stop stop-color="#FF9085"/>
<stop offset="1" stop-color="#FB6FBB"/>
</linearGradient>
<linearGradient id="paint16_linear_6_1754" x1="81.208" y1="98.2898" x2="81.6537" y2="106.126" gradientUnits="userSpaceOnUse">
<stop stop-color="#FF9085"/>
<stop offset="1" stop-color="#FB6FBB"/>
</linearGradient>
<linearGradient id="paint17_linear_6_1754" x1="83.297" y1="97.449" x2="83.7873" y2="106.07" gradientUnits="userSpaceOnUse">
<stop stop-color="#FF9085"/>
<stop offset="1" stop-color="#FB6FBB"/>
</linearGradient>
<linearGradient id="paint18_linear_6_1754" x1="85.539" y1="100.687" x2="85.7837" y2="104.989" gradientUnits="userSpaceOnUse">
<stop stop-color="#FF9085"/>
<stop offset="1" stop-color="#FB6FBB"/>
</linearGradient>
<linearGradient id="paint19_linear_6_1754" x1="87.4681" y1="96.3657" x2="88.0024" y2="105.759" gradientUnits="userSpaceOnUse">
<stop stop-color="#FF9085"/>
<stop offset="1" stop-color="#FB6FBB"/>
</linearGradient>
<linearGradient id="paint20_linear_6_1754" x1="89.5982" y1="97.2957" x2="90.0521" y2="105.277" gradientUnits="userSpaceOnUse">
<stop stop-color="#FF9085"/>
<stop offset="1" stop-color="#FB6FBB"/>
</linearGradient>
<linearGradient id="paint21_linear_6_1754" x1="91.8748" y1="101.964" x2="91.9965" y2="104.103" gradientUnits="userSpaceOnUse">
<stop stop-color="#FF9085"/>
<stop offset="1" stop-color="#FB6FBB"/>
</linearGradient>
<linearGradient id="paint22_linear_6_1754" x1="93.8424" y1="99.3811" x2="94.1271" y2="104.388" gradientUnits="userSpaceOnUse">
<stop stop-color="#FF9085"/>
<stop offset="1" stop-color="#FB6FBB"/>
</linearGradient>
<linearGradient id="paint23_linear_6_1754" x1="95.8195" y1="97.314" x2="96.2289" y2="104.513" gradientUnits="userSpaceOnUse">
<stop stop-color="#FF9085"/>
<stop offset="1" stop-color="#FB6FBB"/>
</linearGradient>
<linearGradient id="paint24_linear_6_1754" x1="97.9382" y1="98.8137" x2="98.2361" y2="104.051" gradientUnits="userSpaceOnUse">
<stop stop-color="#FF9085"/>
<stop offset="1" stop-color="#FB6FBB"/>
</linearGradient>
<linearGradient id="paint25_linear_6_1754" x1="99.8663" y1="96.0991" x2="100.327" y2="104.204" gradientUnits="userSpaceOnUse">
<stop stop-color="#FF9085"/>
<stop offset="1" stop-color="#FB6FBB"/>
</linearGradient>
<linearGradient id="paint26_linear_6_1754" x1="101.857" y1="95.093" x2="102.369" y2="104.081" gradientUnits="userSpaceOnUse">
<stop stop-color="#FF9085"/>
<stop offset="1" stop-color="#FB6FBB"/>
</linearGradient>
<linearGradient id="paint27_linear_6_1754" x1="73.0274" y1="79.9777" x2="96.146" y2="94.9155" gradientUnits="userSpaceOnUse">
<stop stop-color="#444B8C"/>
<stop offset="0.9964" stop-color="#26264F"/>
</linearGradient>
<linearGradient id="paint28_linear_6_1754" x1="68.2851" y1="84.3766" x2="68.7848" y2="93.1628" gradientUnits="userSpaceOnUse">
<stop stop-color="#FF9085"/>
<stop offset="1" stop-color="#FB6FBB"/>
</linearGradient>
<linearGradient id="paint29_linear_6_1754" x1="70.6609" y1="89.751" x2="70.7219" y2="90.8228" gradientUnits="userSpaceOnUse">
<stop stop-color="#FF9085"/>
<stop offset="1" stop-color="#FB6FBB"/>
</linearGradient>
<linearGradient id="paint30_linear_6_1754" x1="72.6997" y1="86.0305" x2="73.0404" y2="92.0215" gradientUnits="userSpaceOnUse">
<stop stop-color="#FF9085"/>
<stop offset="1" stop-color="#FB6FBB"/>
</linearGradient>
<linearGradient id="paint31_linear_6_1754" x1="74.9509" y1="88.3978" x2="75.0983" y2="90.9894" gradientUnits="userSpaceOnUse">
<stop stop-color="#FF9085"/>
<stop offset="1" stop-color="#FB6FBB"/>
</linearGradient>
<linearGradient id="paint32_linear_6_1754" x1="76.985" y1="85.2431" x2="77.3599" y2="91.8362" gradientUnits="userSpaceOnUse">
<stop stop-color="#FF9085"/>
<stop offset="1" stop-color="#FB6FBB"/>
</linearGradient>
<linearGradient id="paint33_linear_6_1754" x1="79.1807" y1="86.647" x2="79.439" y2="91.1882" gradientUnits="userSpaceOnUse">
<stop stop-color="#FF9085"/>
<stop offset="1" stop-color="#FB6FBB"/>
</linearGradient>
<linearGradient id="paint34_linear_6_1754" x1="81.2073" y1="83.9163" x2="81.654" y2="91.7705" gradientUnits="userSpaceOnUse">
<stop stop-color="#FF9085"/>
<stop offset="1" stop-color="#FB6FBB"/>
</linearGradient>
<linearGradient id="paint35_linear_6_1754" x1="83.2962" y1="83.1095" x2="83.7876" y2="91.7492" gradientUnits="userSpaceOnUse">
<stop stop-color="#FF9085"/>
<stop offset="1" stop-color="#FB6FBB"/>
</linearGradient>
<linearGradient id="paint36_linear_6_1754" x1="85.5381" y1="86.3823" x2="85.7837" y2="90.7009" gradientUnits="userSpaceOnUse">
<stop stop-color="#FF9085"/>
<stop offset="1" stop-color="#FB6FBB"/>
</linearGradient>
<linearGradient id="paint37_linear_6_1754" x1="87.4673" y1="82.0937" x2="88.0026" y2="91.5055" gradientUnits="userSpaceOnUse">
<stop stop-color="#FF9085"/>
<stop offset="1" stop-color="#FB6FBB"/>
</linearGradient>
<linearGradient id="paint38_linear_6_1754" x1="89.5974" y1="83.0572" x2="90.0523" y2="91.0565" gradientUnits="userSpaceOnUse">
<stop stop-color="#FF9085"/>
<stop offset="1" stop-color="#FB6FBB"/>
</linearGradient>
<linearGradient id="paint39_linear_6_1754" x1="91.874" y1="87.7623" x2="91.9965" y2="89.9153" gradientUnits="userSpaceOnUse">
<stop stop-color="#FF9085"/>
<stop offset="1" stop-color="#FB6FBB"/>
</linearGradient>
<linearGradient id="paint40_linear_6_1754" x1="93.8413" y1="85.2094" x2="94.1271" y2="90.2337" gradientUnits="userSpaceOnUse">
<stop stop-color="#FF9085"/>
<stop offset="1" stop-color="#FB6FBB"/>
</linearGradient>
<linearGradient id="paint41_linear_6_1754" x1="95.8182" y1="83.1751" x2="96.2286" y2="90.3915" gradientUnits="userSpaceOnUse">
<stop stop-color="#FF9085"/>
<stop offset="1" stop-color="#FB6FBB"/>
</linearGradient>
<linearGradient id="paint42_linear_6_1754" x1="97.9371" y1="84.7077" x2="98.236" y2="89.9628" gradientUnits="userSpaceOnUse">
<stop stop-color="#FF9085"/>
<stop offset="1" stop-color="#FB6FBB"/>
</linearGradient>
<linearGradient id="paint43_linear_6_1754" x1="99.8649" y1="82.0258" x2="100.327" y2="90.1484" gradientUnits="userSpaceOnUse">
<stop stop-color="#FF9085"/>
<stop offset="1" stop-color="#FB6FBB"/>
</linearGradient>
<linearGradient id="paint44_linear_6_1754" x1="101.857" y1="81.0523" x2="102.369" y2="90.0578" gradientUnits="userSpaceOnUse">
<stop stop-color="#FF9085"/>
<stop offset="1" stop-color="#FB6FBB"/>
</linearGradient>
<linearGradient id="paint45_linear_6_1754" x1="144.803" y1="99.8787" x2="125.748" y2="81.137" gradientUnits="userSpaceOnUse">
<stop stop-color="#444B8C"/>
<stop offset="0.9964" stop-color="#26264F"/>
</linearGradient>
<linearGradient id="paint46_linear_6_1754" x1="126.395" y1="105.947" x2="128.713" y2="34.0994" gradientUnits="userSpaceOnUse">
<stop stop-color="#444B8C"/>
<stop offset="0.9964" stop-color="#26264F"/>
</linearGradient>
<linearGradient id="paint47_linear_6_1754" x1="134.498" y1="78.3438" x2="111.691" y2="113.699" gradientUnits="userSpaceOnUse">
<stop offset="0.00359712" stop-color="#839F99"/>
<stop offset="1" stop-color="#9571F6"/>
</linearGradient>
<linearGradient id="paint48_linear_6_1754" x1="63.278" y1="16.6572" x2="127.743" y2="16.6572" gradientUnits="userSpaceOnUse">
<stop offset="0.00359712" stop-color="#E4FAFF"/>
<stop offset="1" stop-color="#3F9EBC"/>
</linearGradient>
<linearGradient id="paint49_linear_6_1754" x1="100.496" y1="11.4783" x2="86.0396" y2="27.4985" gradientUnits="userSpaceOnUse">
<stop stop-color="#FFC444"/>
<stop offset="0.9964" stop-color="#F36F56"/>
</linearGradient>
<linearGradient id="paint50_linear_6_1754" x1="50.7344" y1="14.6585" x2="96.6411" y2="101.227" gradientUnits="userSpaceOnUse">
<stop stop-color="#FFC444"/>
<stop offset="0.9964" stop-color="#F36F56"/>
</linearGradient>
<linearGradient id="paint51_linear_6_1754" x1="80.9122" y1="60.6246" x2="44.3463" y2="-24.1487" gradientUnits="userSpaceOnUse">
<stop stop-color="#FFC444"/>
<stop offset="0.9964" stop-color="#F36F56"/>
</linearGradient>
<linearGradient id="paint52_linear_6_1754" x1="46.2364" y1="44.9866" x2="90.8645" y2="44.9866" gradientUnits="userSpaceOnUse">
<stop stop-color="#311944"/>
<stop offset="1" stop-color="#893976"/>
</linearGradient>
<linearGradient id="paint53_linear_6_1754" x1="82.7652" y1="25.0162" x2="68.1372" y2="56.1919" gradientUnits="userSpaceOnUse">
<stop offset="0.00359712" stop-color="#02A39C"/>
<stop offset="1" stop-color="#02A39C"/>
</linearGradient>
<linearGradient id="paint54_linear_6_1754" x1="66.5404" y1="48.2556" x2="71.5518" y2="48.2556" gradientUnits="userSpaceOnUse">
<stop stop-color="#311944"/>
<stop offset="1" stop-color="#893976"/>
</linearGradient>
<linearGradient id="paint55_linear_6_1754" x1="77.4617" y1="22.5276" x2="62.8337" y2="53.7034" gradientUnits="userSpaceOnUse">
<stop offset="0.00359712" stop-color="#02A39C"/>
<stop offset="1" stop-color="#02A39C"/>
</linearGradient>
<linearGradient id="paint56_linear_6_1754" x1="58.4868" y1="25.5468" x2="54.111" y2="35.1599" gradientUnits="userSpaceOnUse">
<stop offset="0.003597" stop-color="#F36F56"/>
<stop offset="1" stop-color="#FFC444"/>
</linearGradient>
<linearGradient id="paint57_linear_6_1754" x1="36.2409" y1="108.945" x2="38.3409" y2="108.533" gradientUnits="userSpaceOnUse">
<stop offset="0.003597" stop-color="#F36F56"/>
<stop offset="1" stop-color="#FFC444"/>
</linearGradient>
<linearGradient id="paint58_linear_6_1754" x1="38.8503" y1="100.766" x2="37.1614" y2="118.551" gradientUnits="userSpaceOnUse">
<stop offset="0.00359712" stop-color="#230E13"/>
<stop offset="1" stop-color="#230E13"/>
</linearGradient>
<linearGradient id="paint59_linear_6_1754" x1="43.0133" y1="92.8511" x2="26.9184" y2="108.094" gradientUnits="userSpaceOnUse">
<stop/>
<stop offset="1" stop-color="#792D3D"/>
</linearGradient>
<linearGradient id="paint60_linear_6_1754" x1="21.3839" y1="98.7424" x2="16.2458" y2="113.948" gradientUnits="userSpaceOnUse">
<stop offset="0.00359712" stop-color="#F3E8F2"/>
<stop offset="1" stop-color="#230E13"/>
</linearGradient>
<linearGradient id="paint61_linear_6_1754" x1="11.8395" y1="115.492" x2="14.3578" y2="115.765" gradientUnits="userSpaceOnUse">
<stop offset="0.003597" stop-color="#F36F56"/>
<stop offset="1" stop-color="#FFC444"/>
</linearGradient>
<linearGradient id="paint62_linear_6_1754" x1="51.3827" y1="103.952" x2="29.5949" y2="95.4707" gradientUnits="userSpaceOnUse">
<stop stop-color="#ED72AE"/>
<stop offset="1" stop-color="#792D3D"/>
</linearGradient>
<linearGradient id="paint63_linear_6_1754" x1="28.0243" y1="92.8081" x2="17.7355" y2="116.591" gradientUnits="userSpaceOnUse">
<stop/>
<stop offset="1" stop-color="#792D3D"/>
</linearGradient>
<linearGradient id="paint64_linear_6_1754" x1="26.3976" y1="92.7137" x2="16.3226" y2="116.002" gradientUnits="userSpaceOnUse">
<stop stop-color="#AB316D"/>
<stop offset="1" stop-color="#792D3D"/>
</linearGradient>
<linearGradient id="paint65_linear_6_1754" x1="29.57" y1="64.1058" x2="29.6885" y2="59.4629" gradientUnits="userSpaceOnUse">
<stop stop-color="#444B8C"/>
<stop offset="0.9964" stop-color="#26264F"/>
</linearGradient>
<linearGradient id="paint66_linear_6_1754" x1="29.9303" y1="53.1071" x2="31.0335" y2="72.1869" gradientUnits="userSpaceOnUse">
<stop offset="0.003597" stop-color="#F36F56"/>
<stop offset="1" stop-color="#FFC444"/>
</linearGradient>
<linearGradient id="paint67_linear_6_1754" x1="26.6297" y1="61.9284" x2="31.3936" y2="65.2985" gradientUnits="userSpaceOnUse">
<stop offset="0.003597" stop-color="#F36F56"/>
<stop offset="1" stop-color="#FFC444"/>
</linearGradient>
<linearGradient id="paint68_linear_6_1754" x1="44.6416" y1="17.6522" x2="46.0209" y2="28.6172" gradientUnits="userSpaceOnUse">
<stop offset="0.003597" stop-color="#F36F56"/>
<stop offset="1" stop-color="#FFC444"/>
</linearGradient>
</defs>
</svg>
