<svg width="114" height="116" viewBox="0 0 114 116" fill="none" xmlns="http://www.w3.org/2000/svg">
<rect width="114" height="116" rx="8" fill="#F0F0F0"/>
<path d="M10.602 87.1562C10.602 86.2042 10.8167 85.3502 11.246 84.5942C11.6753 83.8289 12.2587 83.2316 12.996 82.8022C13.7427 82.3729 14.5687 82.1582 15.474 82.1582C16.538 82.1582 17.4667 82.4149 18.26 82.9282C19.0533 83.4416 19.632 84.1696 19.996 85.1122H18.47C18.1993 84.5242 17.8073 84.0716 17.294 83.7542C16.79 83.4369 16.1833 83.2782 15.474 83.2782C14.7927 83.2782 14.1813 83.4369 13.64 83.7542C13.0987 84.0716 12.674 84.5242 12.366 85.1122C12.058 85.6909 11.904 86.3722 11.904 87.1562C11.904 87.9309 12.058 88.6122 12.366 89.2002C12.674 89.7789 13.0987 90.2269 13.64 90.5442C14.1813 90.8616 14.7927 91.0202 15.474 91.0202C16.1833 91.0202 16.79 90.8662 17.294 90.5582C17.8073 90.2409 18.1993 89.7882 18.47 89.2002H19.996C19.632 90.1336 19.0533 90.8569 18.26 91.3702C17.4667 91.8742 16.538 92.1262 15.474 92.1262C14.5687 92.1262 13.7427 91.9162 12.996 91.4962C12.2587 91.0669 11.6753 90.4742 11.246 89.7182C10.8167 88.9622 10.602 88.1082 10.602 87.1562ZM23.1665 85.6162C23.3905 85.1776 23.7078 84.8369 24.1185 84.5942C24.5385 84.3516 25.0471 84.2302 25.6445 84.2302V85.5462H25.3085C23.8805 85.5462 23.1665 86.3209 23.1665 87.8702V92.0422H21.8925V84.3702H23.1665V85.6162ZM34.1151 87.9122C34.1151 88.1549 34.1011 88.4116 34.0731 88.6822H27.9411C27.9878 89.4382 28.2444 90.0309 28.7111 90.4602C29.1871 90.8802 29.7611 91.0902 30.4331 91.0902C30.9838 91.0902 31.4411 90.9642 31.8051 90.7122C32.1784 90.4509 32.4398 90.1056 32.5891 89.6762H33.9611C33.7558 90.4136 33.3451 91.0156 32.7291 91.4822C32.1131 91.9396 31.3478 92.1682 30.4331 92.1682C29.7051 92.1682 29.0518 92.0049 28.4731 91.6782C27.9038 91.3516 27.4558 90.8896 27.1291 90.2922C26.8024 89.6856 26.6391 88.9856 26.6391 88.1922C26.6391 87.3989 26.7978 86.7036 27.1151 86.1062C27.4324 85.5089 27.8758 85.0516 28.4451 84.7342C29.0238 84.4076 29.6864 84.2442 30.4331 84.2442C31.1611 84.2442 31.8051 84.4029 32.3651 84.7202C32.9251 85.0376 33.3544 85.4762 33.6531 86.0362C33.9611 86.5869 34.1151 87.2122 34.1151 87.9122ZM32.7991 87.6462C32.7991 87.1609 32.6918 86.7456 32.4771 86.4002C32.2624 86.0456 31.9684 85.7796 31.5951 85.6022C31.2311 85.4156 30.8251 85.3222 30.3771 85.3222C29.7331 85.3222 29.1824 85.5276 28.7251 85.9382C28.2771 86.3489 28.0204 86.9182 27.9551 87.6462H32.7991ZM35.3208 88.1782C35.3208 87.3942 35.4794 86.7082 35.7968 86.1202C36.1141 85.5229 36.5481 85.0609 37.0988 84.7342C37.6588 84.4076 38.2794 84.2442 38.9608 84.2442C39.6328 84.2442 40.2161 84.3889 40.7108 84.6782C41.2054 84.9676 41.5741 85.3316 41.8168 85.7702V84.3702H43.1048V92.0422H41.8168V90.6142C41.5648 91.0622 41.1868 91.4356 40.6828 91.7342C40.1881 92.0236 39.6094 92.1682 38.9468 92.1682C38.2654 92.1682 37.6494 92.0002 37.0988 91.6642C36.5481 91.3282 36.1141 90.8569 35.7968 90.2502C35.4794 89.6436 35.3208 88.9529 35.3208 88.1782ZM41.8168 88.1922C41.8168 87.6136 41.7001 87.1096 41.4668 86.6802C41.2334 86.2509 40.9161 85.9242 40.5148 85.7002C40.1228 85.4669 39.6888 85.3502 39.2128 85.3502C38.7368 85.3502 38.3028 85.4622 37.9108 85.6862C37.5188 85.9102 37.2061 86.2369 36.9728 86.6662C36.7394 87.0956 36.6228 87.5996 36.6228 88.1782C36.6228 88.7662 36.7394 89.2796 36.9728 89.7182C37.2061 90.1476 37.5188 90.4789 37.9108 90.7122C38.3028 90.9362 38.7368 91.0482 39.2128 91.0482C39.6888 91.0482 40.1228 90.9362 40.5148 90.7122C40.9161 90.4789 41.2334 90.1476 41.4668 89.7182C41.7001 89.2796 41.8168 88.7709 41.8168 88.1922ZM46.8117 85.4202V89.9422C46.8117 90.3156 46.891 90.5816 47.0497 90.7402C47.2084 90.8896 47.4837 90.9642 47.8757 90.9642H48.8137V92.0422H47.6657C46.9564 92.0422 46.4244 91.8789 46.0697 91.5522C45.715 91.2256 45.5377 90.6889 45.5377 89.9422V85.4202H44.5437V84.3702H45.5377V82.4382H46.8117V84.3702H48.8137V85.4202H46.8117ZM57.3573 87.9122C57.3573 88.1549 57.3433 88.4116 57.3153 88.6822H51.1833C51.23 89.4382 51.4866 90.0309 51.9533 90.4602C52.4293 90.8802 53.0033 91.0902 53.6753 91.0902C54.226 91.0902 54.6833 90.9642 55.0473 90.7122C55.4206 90.4509 55.682 90.1056 55.8313 89.6762H57.2033C56.998 90.4136 56.5873 91.0156 55.9713 91.4822C55.3553 91.9396 54.59 92.1682 53.6753 92.1682C52.9473 92.1682 52.294 92.0049 51.7153 91.6782C51.146 91.3516 50.698 90.8896 50.3713 90.2922C50.0446 89.6856 49.8813 88.9856 49.8813 88.1922C49.8813 87.3989 50.04 86.7036 50.3573 86.1062C50.6746 85.5089 51.118 85.0516 51.6873 84.7342C52.266 84.4076 52.9286 84.2442 53.6753 84.2442C54.4033 84.2442 55.0473 84.4029 55.6073 84.7202C56.1673 85.0376 56.5966 85.4762 56.8953 86.0362C57.2033 86.5869 57.3573 87.2122 57.3573 87.9122ZM56.0413 87.6462C56.0413 87.1609 55.934 86.7456 55.7193 86.4002C55.5046 86.0456 55.2106 85.7796 54.8373 85.6022C54.4733 85.4156 54.0673 85.3222 53.6193 85.3222C52.9753 85.3222 52.4246 85.5276 51.9673 85.9382C51.5193 86.3489 51.2626 86.9182 51.1973 87.6462H56.0413ZM68.2874 82.2842V83.3202H64.0454V86.6102H67.4894V87.6462H64.0454V92.0422H62.7714V82.2842H68.2874ZM73.172 92.1682C72.4534 92.1682 71.8 92.0049 71.212 91.6782C70.6334 91.3516 70.176 90.8896 69.84 90.2922C69.5134 89.6856 69.35 88.9856 69.35 88.1922C69.35 87.4082 69.518 86.7176 69.854 86.1202C70.1994 85.5136 70.666 85.0516 71.254 84.7342C71.842 84.4076 72.5 84.2442 73.228 84.2442C73.956 84.2442 74.614 84.4076 75.202 84.7342C75.79 85.0516 76.252 85.5089 76.588 86.1062C76.9334 86.7036 77.106 87.3989 77.106 88.1922C77.106 88.9856 76.9287 89.6856 76.574 90.2922C76.2287 90.8896 75.7574 91.3516 75.16 91.6782C74.5627 92.0049 73.9 92.1682 73.172 92.1682ZM73.172 91.0482C73.6294 91.0482 74.0587 90.9409 74.46 90.7262C74.8614 90.5116 75.1834 90.1896 75.426 89.7602C75.678 89.3309 75.804 88.8082 75.804 88.1922C75.804 87.5762 75.6827 87.0536 75.44 86.6242C75.1974 86.1949 74.88 85.8776 74.488 85.6722C74.096 85.4576 73.6714 85.3502 73.214 85.3502C72.7474 85.3502 72.318 85.4576 71.926 85.6722C71.5434 85.8776 71.2354 86.1949 71.002 86.6242C70.7687 87.0536 70.652 87.5762 70.652 88.1922C70.652 88.8176 70.764 89.3449 70.988 89.7742C71.2214 90.2036 71.5294 90.5256 71.912 90.7402C72.2947 90.9456 72.7147 91.0482 73.172 91.0482ZM80.0551 81.6822V92.0422H78.7811V81.6822H80.0551ZM81.7504 88.1782C81.7504 87.3942 81.9091 86.7082 82.2264 86.1202C82.5438 85.5229 82.9778 85.0609 83.5284 84.7342C84.0884 84.4076 84.7138 84.2442 85.4044 84.2442C86.0018 84.2442 86.5571 84.3842 87.0704 84.6642C87.5838 84.9349 87.9758 85.2942 88.2464 85.7422V81.6822H89.5344V92.0422H88.2464V90.6002C87.9944 91.0576 87.6211 91.4356 87.1264 91.7342C86.6318 92.0236 86.0531 92.1682 85.3904 92.1682C84.7091 92.1682 84.0884 92.0002 83.5284 91.6642C82.9778 91.3282 82.5438 90.8569 82.2264 90.2502C81.9091 89.6436 81.7504 88.9529 81.7504 88.1782ZM88.2464 88.1922C88.2464 87.6136 88.1298 87.1096 87.8964 86.6802C87.6631 86.2509 87.3458 85.9242 86.9444 85.7002C86.5524 85.4669 86.1184 85.3502 85.6424 85.3502C85.1664 85.3502 84.7324 85.4622 84.3404 85.6862C83.9484 85.9102 83.6358 86.2369 83.4024 86.6662C83.1691 87.0956 83.0524 87.5996 83.0524 88.1782C83.0524 88.7662 83.1691 89.2796 83.4024 89.7182C83.6358 90.1476 83.9484 90.4789 84.3404 90.7122C84.7324 90.9362 85.1664 91.0482 85.6424 91.0482C86.1184 91.0482 86.5524 90.9362 86.9444 90.7122C87.3458 90.4789 87.6631 90.1476 87.8964 89.7182C88.1298 89.2796 88.2464 88.7709 88.2464 88.1922ZM98.6874 87.9122C98.6874 88.1549 98.6734 88.4116 98.6454 88.6822H92.5134C92.56 89.4382 92.8167 90.0309 93.2834 90.4602C93.7594 90.8802 94.3334 91.0902 95.0054 91.0902C95.556 91.0902 96.0134 90.9642 96.3774 90.7122C96.7507 90.4509 97.012 90.1056 97.1614 89.6762H98.5334C98.328 90.4136 97.9174 91.0156 97.3014 91.4822C96.6854 91.9396 95.92 92.1682 95.0054 92.1682C94.2774 92.1682 93.624 92.0049 93.0454 91.6782C92.476 91.3516 92.028 90.8896 91.7014 90.2922C91.3747 89.6856 91.2114 88.9856 91.2114 88.1922C91.2114 87.3989 91.37 86.7036 91.6874 86.1062C92.0047 85.5089 92.448 85.0516 93.0174 84.7342C93.596 84.4076 94.2587 84.2442 95.0054 84.2442C95.7334 84.2442 96.3774 84.4029 96.9374 84.7202C97.4974 85.0376 97.9267 85.4762 98.2254 86.0362C98.5334 86.5869 98.6874 87.2122 98.6874 87.9122ZM97.3714 87.6462C97.3714 87.1609 97.264 86.7456 97.0494 86.4002C96.8347 86.0456 96.5407 85.7796 96.1674 85.6022C95.8034 85.4156 95.3974 85.3222 94.9494 85.3222C94.3054 85.3222 93.7547 85.5276 93.2974 85.9382C92.8494 86.3489 92.5927 86.9182 92.5274 87.6462H97.3714ZM101.643 85.6162C101.867 85.1776 102.184 84.8369 102.595 84.5942C103.015 84.3516 103.524 84.2302 104.121 84.2302V85.5462H103.785C102.357 85.5462 101.643 86.3209 101.643 87.8702V92.0422H100.369V84.3702H101.643V85.6162Z" fill="black"/>
<path d="M54.7123 23.1097C54.0073 23.1097 53.1729 22.5955 52.8569 21.9671L51.44 19.1427C51.1247 18.5142 50.2903 18 49.5853 18H33.5635C32.2818 18 31.0001 19.2774 31.0001 20.5549V21.8323C31.0001 22.5349 31.0001 23.6846 31.0001 24.3871V60.7938C31.0001 61.4964 32.8586 63.3487 33.5635 63.3487H75.861C76.5659 63.3487 78.4245 61.4964 78.4245 60.7938V25.6646C78.4245 23.7484 77.7836 23.1097 75.861 23.1097H54.7123Z" fill="#263740"/>
<path d="M75.8611 23.1096H73.2977C75.2203 23.1096 75.8611 23.7483 75.8611 25.6644V60.7937C75.8611 61.4963 74.0026 63.3485 73.2977 63.3485H75.8611C76.5661 63.3485 78.4246 61.4963 78.4246 60.7937V25.6644C78.4246 23.7483 77.7838 23.1096 75.8611 23.1096Z" fill="#1E2C33"/>
<path d="M74.5792 36.5225C74.5792 37.9277 73.4257 39.0774 72.0157 39.0774H37.4088C35.9988 39.0774 34.8453 37.9277 34.8453 36.5225V28.858C34.8453 27.4528 35.9988 26.3031 37.4088 26.3031H72.0157C73.4257 26.3031 74.5792 27.4528 74.5792 28.858V36.5225Z" fill="white"/>
<path d="M75.861 33.3291H33.5635C32.2818 33.3291 31.0001 34.6065 31.0001 35.884V60.7938C31.0001 62.0712 32.2818 63.3487 33.5635 63.3487H75.861C77.1427 63.3487 78.4245 62.0712 78.4245 60.7938V35.884C78.4245 34.6065 77.1427 33.3291 75.861 33.3291Z" fill="#849C96"/>
<path d="M75.8611 33.3291H73.2977C74.5794 33.3291 75.8611 34.6065 75.8611 35.884V60.7938C75.8611 62.0712 74.5794 63.3487 73.2977 63.3487H75.8611C77.1429 63.3487 78.4246 62.0712 78.4246 60.7938V35.884C78.4246 34.6065 77.1429 33.3291 75.8611 33.3291Z" fill="#849C96"/>
<path d="M73.2977 69.0971C67.2902 69.0971 62.4029 64.2263 62.4029 58.239C62.4029 52.2517 67.2902 47.3809 73.2977 47.3809C79.3052 47.3809 84.1925 52.2517 84.1925 58.239C84.1925 64.2263 79.3052 69.0971 73.2977 69.0971Z" fill="#D9E6E8"/>
<path d="M73.2974 66.5421C77.8987 66.5421 81.6287 62.8246 81.6287 58.2388C81.6287 53.6531 77.8987 49.9355 73.2974 49.9355C68.6962 49.9355 64.9661 53.6531 64.9661 58.2388C64.9661 62.8246 68.6962 66.5421 73.2974 66.5421Z" fill="#2D4452"/>
<path d="M68.795 53.8007V62.1859H77.2085V53.8007H68.795ZM69.4405 54.5844H76.563V61.4022H69.4405V54.5844ZM70.9086 55.5686C70.7078 55.5686 70.5387 55.6504 70.4018 55.8139C70.2648 55.9775 70.1964 56.1793 70.1964 56.4192C70.1964 56.6481 70.2648 56.8443 70.4018 57.0079C70.5387 57.1714 70.7078 57.2531 70.9086 57.2531C71.1004 57.2531 71.2646 57.1714 71.4016 57.0079C71.5386 56.8443 71.607 56.6481 71.607 56.4192C71.607 56.1793 71.5386 55.9775 71.4016 55.8139C71.2646 55.6504 71.1004 55.5686 70.9086 55.5686ZM73.9353 55.9832L72.3193 58.9107L71.4612 58.0601L70.1964 60.0224V60.5952H75.8071V58.2944L73.9353 55.9832Z" fill="white"/>
</svg>
