<svg width="22" height="22" viewBox="0 0 22 22" fill="none" xmlns="http://www.w3.org/2000/svg">
<path d="M21.1836 10.8359L12.1274 1.78437L11.5204 1.17733C11.382 1.03994 11.195 0.962822 11 0.962822C10.8051 0.962822 10.618 1.03994 10.4797 1.17733L0.816455 10.8359C0.674731 10.9771 0.562724 11.1452 0.487045 11.3304C0.411367 11.5156 0.373551 11.714 0.37583 11.9141C0.385205 12.7391 1.07192 13.3976 1.89692 13.3976H2.89302V21.0312H19.1071V13.3976H20.1243C20.525 13.3976 20.9024 13.2406 21.186 12.957C21.3256 12.8178 21.4363 12.6523 21.5115 12.4701C21.5867 12.2878 21.6251 12.0925 21.6243 11.8953C21.6243 11.4969 21.4672 11.1195 21.1836 10.8359V10.8359ZM12.3125 19.3437H9.68755V14.5625H12.3125V19.3437ZM17.4196 11.7101V19.3437H13.8125V14C13.8125 13.482 13.393 13.0625 12.875 13.0625H9.12505C8.60708 13.0625 8.18755 13.482 8.18755 14V19.3437H4.58052V11.7101H2.33052L11.0024 3.0453L11.5438 3.58671L19.6719 11.7101H17.4196Z" fill="black"/>
</svg>
