<svg width="114" height="35" viewBox="0 0 114 35" fill="none" xmlns="http://www.w3.org/2000/svg">
<rect width="114" height="35" rx="5" fill="#849C96"/>
<path d="M28.592 18.416C28.592 17.328 28.8427 16.352 29.344 15.488C29.856 14.624 30.544 13.952 31.408 13.472C32.2827 12.9813 33.2373 12.736 34.272 12.736C35.456 12.736 36.5067 13.0293 37.424 13.616C38.352 14.192 39.024 15.0133 39.44 16.08H37.248C36.96 15.4933 36.56 15.056 36.048 14.768C35.536 14.48 34.944 14.336 34.272 14.336C33.536 14.336 32.88 14.5013 32.304 14.832C31.728 15.1627 31.2747 15.6373 30.944 16.256C30.624 16.8747 30.464 17.5947 30.464 18.416C30.464 19.2373 30.624 19.9573 30.944 20.576C31.2747 21.1947 31.728 21.6747 32.304 22.016C32.88 22.3467 33.536 22.512 34.272 22.512C34.944 22.512 35.536 22.368 36.048 22.08C36.56 21.792 36.96 21.3547 37.248 20.768H39.44C39.024 21.8347 38.352 22.656 37.424 23.232C36.5067 23.808 35.456 24.096 34.272 24.096C33.2267 24.096 32.272 23.856 31.408 23.376C30.544 22.8853 29.856 22.208 29.344 21.344C28.8427 20.48 28.592 19.504 28.592 18.416ZM43.399 16.464C43.6657 16.016 44.0177 15.6693 44.455 15.424C44.903 15.168 45.431 15.04 46.039 15.04V16.928H45.575C44.8603 16.928 44.3163 17.1093 43.943 17.472C43.5803 17.8347 43.399 18.464 43.399 19.36V24H41.575V15.184H43.399V16.464ZM55.7956 19.376C55.7956 19.7067 55.7743 20.0053 55.7316 20.272H48.9956C49.049 20.976 49.3103 21.5413 49.7796 21.968C50.249 22.3947 50.825 22.608 51.5076 22.608C52.489 22.608 53.1823 22.1973 53.5876 21.376H55.5556C55.289 22.1867 54.8036 22.8533 54.0996 23.376C53.4063 23.888 52.5423 24.144 51.5076 24.144C50.665 24.144 49.9076 23.9573 49.2356 23.584C48.5743 23.2 48.0516 22.6667 47.6676 21.984C47.2943 21.2907 47.1076 20.4907 47.1076 19.584C47.1076 18.6773 47.289 17.8827 47.6516 17.2C48.025 16.5067 48.5423 15.9733 49.2036 15.6C49.8756 15.2267 50.6436 15.04 51.5076 15.04C52.3396 15.04 53.081 15.2213 53.7316 15.584C54.3823 15.9467 54.889 16.4587 55.2516 17.12C55.6143 17.7707 55.7956 18.5227 55.7956 19.376ZM53.8916 18.8C53.881 18.128 53.641 17.5893 53.1716 17.184C52.7023 16.7787 52.121 16.576 51.4276 16.576C50.7983 16.576 50.2596 16.7787 49.8116 17.184C49.3636 17.5787 49.097 18.1173 49.0116 18.8H53.8916ZM56.9826 19.552C56.9826 18.6667 57.164 17.8827 57.5266 17.2C57.9 16.5173 58.4013 15.9893 59.0306 15.616C59.6706 15.232 60.3746 15.04 61.1426 15.04C61.836 15.04 62.4386 15.1787 62.9506 15.456C63.4733 15.7227 63.8893 16.0587 64.1986 16.464V15.184H66.0386V24H64.1986V22.688C63.8893 23.104 63.468 23.4507 62.9346 23.728C62.4013 24.0053 61.7933 24.144 61.1106 24.144C60.3533 24.144 59.66 23.952 59.0306 23.568C58.4013 23.1733 57.9 22.6293 57.5266 21.936C57.164 21.232 56.9826 20.4373 56.9826 19.552ZM64.1986 19.584C64.1986 18.976 64.0706 18.448 63.8146 18C63.5693 17.552 63.244 17.2107 62.8386 16.976C62.4333 16.7413 61.996 16.624 61.5266 16.624C61.0573 16.624 60.62 16.7413 60.2146 16.976C59.8093 17.2 59.4786 17.536 59.2226 17.984C58.9773 18.4213 58.8546 18.944 58.8546 19.552C58.8546 20.16 58.9773 20.6933 59.2226 21.152C59.4786 21.6107 59.8093 21.9627 60.2146 22.208C60.6306 22.4427 61.068 22.56 61.5266 22.56C61.996 22.56 62.4333 22.4427 62.8386 22.208C63.244 21.9733 63.5693 21.632 63.8146 21.184C64.0706 20.7253 64.1986 20.192 64.1986 19.584ZM70.5624 16.672V21.552C70.5624 21.8827 70.637 22.1227 70.7864 22.272C70.9464 22.4107 71.213 22.48 71.5864 22.48H72.7064V24H71.2664C70.445 24 69.8157 23.808 69.3784 23.424C68.941 23.04 68.7224 22.416 68.7224 21.552V16.672H67.6824V15.184H68.7224V12.992H70.5624V15.184H72.7064V16.672H70.5624ZM82.4675 19.376C82.4675 19.7067 82.4462 20.0053 82.4035 20.272H75.6675C75.7208 20.976 75.9822 21.5413 76.4515 21.968C76.9208 22.3947 77.4968 22.608 78.1795 22.608C79.1608 22.608 79.8542 22.1973 80.2595 21.376H82.2275C81.9608 22.1867 81.4755 22.8533 80.7715 23.376C80.0782 23.888 79.2142 24.144 78.1795 24.144C77.3368 24.144 76.5795 23.9573 75.9075 23.584C75.2462 23.2 74.7235 22.6667 74.3395 21.984C73.9662 21.2907 73.7795 20.4907 73.7795 19.584C73.7795 18.6773 73.9608 17.8827 74.3235 17.2C74.6968 16.5067 75.2142 15.9733 75.8755 15.6C76.5475 15.2267 77.3155 15.04 78.1795 15.04C79.0115 15.04 79.7528 15.2213 80.4035 15.584C81.0542 15.9467 81.5608 16.4587 81.9235 17.12C82.2862 17.7707 82.4675 18.5227 82.4675 19.376ZM80.5635 18.8C80.5528 18.128 80.3128 17.5893 79.8435 17.184C79.3742 16.7787 78.7928 16.576 78.0995 16.576C77.4702 16.576 76.9315 16.7787 76.4835 17.184C76.0355 17.5787 75.7688 18.1173 75.6835 18.8H80.5635Z" fill="white"/>
</svg>
