<svg width="114" height="35" viewBox="0 0 114 35" fill="none" xmlns="http://www.w3.org/2000/svg">
<rect width="114" height="35" rx="5" fill="#849C96"/>
<path d="M32.832 12.88C34.016 12.88 35.0507 13.1093 35.936 13.568C36.832 14.016 37.52 14.6667 38 15.52C38.4907 16.3627 38.736 17.3493 38.736 18.48C38.736 19.6107 38.4907 20.592 38 21.424C37.52 22.256 36.832 22.896 35.936 23.344C35.0507 23.7813 34.016 24 32.832 24H29.2V12.88H32.832ZM32.832 22.512C34.1333 22.512 35.1307 22.16 35.824 21.456C36.5173 20.752 36.864 19.76 36.864 18.48C36.864 17.1893 36.5173 16.1813 35.824 15.456C35.1307 14.7307 34.1333 14.368 32.832 14.368H31.024V22.512H32.832ZM48.6238 19.376C48.6238 19.7067 48.6024 20.0053 48.5598 20.272H41.8238C41.8771 20.976 42.1384 21.5413 42.6078 21.968C43.0771 22.3947 43.6531 22.608 44.3358 22.608C45.3171 22.608 46.0104 22.1973 46.4158 21.376H48.3837C48.1171 22.1867 47.6318 22.8533 46.9278 23.376C46.2344 23.888 45.3704 24.144 44.3358 24.144C43.4931 24.144 42.7358 23.9573 42.0638 23.584C41.4024 23.2 40.8798 22.6667 40.4958 21.984C40.1224 21.2907 39.9358 20.4907 39.9358 19.584C39.9358 18.6773 40.1171 17.8827 40.4798 17.2C40.8531 16.5067 41.3704 15.9733 42.0318 15.6C42.7038 15.2267 43.4718 15.04 44.3358 15.04C45.1678 15.04 45.9091 15.2213 46.5598 15.584C47.2104 15.9467 47.7171 16.4587 48.0798 17.12C48.4424 17.7707 48.6238 18.5227 48.6238 19.376ZM46.7198 18.8C46.7091 18.128 46.4691 17.5893 45.9998 17.184C45.5304 16.7787 44.9491 16.576 44.2558 16.576C43.6264 16.576 43.0878 16.7787 42.6398 17.184C42.1918 17.5787 41.9251 18.1173 41.8398 18.8H46.7198ZM52.2428 12.16V24H50.4188V12.16H52.2428ZM62.7175 19.376C62.7175 19.7067 62.6962 20.0053 62.6535 20.272H55.9175C55.9708 20.976 56.2322 21.5413 56.7015 21.968C57.1708 22.3947 57.7468 22.608 58.4295 22.608C59.4108 22.608 60.1042 22.1973 60.5095 21.376H62.4775C62.2108 22.1867 61.7255 22.8533 61.0215 23.376C60.3282 23.888 59.4642 24.144 58.4295 24.144C57.5868 24.144 56.8295 23.9573 56.1575 23.584C55.4962 23.2 54.9735 22.6667 54.5895 21.984C54.2162 21.2907 54.0295 20.4907 54.0295 19.584C54.0295 18.6773 54.2108 17.8827 54.5735 17.2C54.9468 16.5067 55.4642 15.9733 56.1255 15.6C56.7975 15.2267 57.5655 15.04 58.4295 15.04C59.2615 15.04 60.0028 15.2213 60.6535 15.584C61.3042 15.9467 61.8108 16.4587 62.1735 17.12C62.5362 17.7707 62.7175 18.5227 62.7175 19.376ZM60.8135 18.8C60.8028 18.128 60.5628 17.5893 60.0935 17.184C59.6242 16.7787 59.0428 16.576 58.3495 16.576C57.7202 16.576 57.1815 16.7787 56.7335 17.184C56.2855 17.5787 56.0188 18.1173 55.9335 18.8H60.8135ZM66.6405 16.672V21.552C66.6405 21.8827 66.7152 22.1227 66.8645 22.272C67.0245 22.4107 67.2912 22.48 67.6645 22.48H68.7845V24H67.3445C66.5232 24 65.8938 23.808 65.4565 23.424C65.0192 23.04 64.8005 22.416 64.8005 21.552V16.672H63.7605V15.184H64.8005V12.992H66.6405V15.184H68.7845V16.672H66.6405ZM78.5456 19.376C78.5456 19.7067 78.5243 20.0053 78.4816 20.272H71.7456C71.799 20.976 72.0603 21.5413 72.5296 21.968C72.999 22.3947 73.575 22.608 74.2576 22.608C75.239 22.608 75.9323 22.1973 76.3376 21.376H78.3056C78.039 22.1867 77.5536 22.8533 76.8496 23.376C76.1563 23.888 75.2923 24.144 74.2576 24.144C73.415 24.144 72.6576 23.9573 71.9856 23.584C71.3243 23.2 70.8016 22.6667 70.4176 21.984C70.0443 21.2907 69.8576 20.4907 69.8576 19.584C69.8576 18.6773 70.039 17.8827 70.4016 17.2C70.775 16.5067 71.2923 15.9733 71.9536 15.6C72.6256 15.2267 73.3936 15.04 74.2576 15.04C75.0896 15.04 75.831 15.2213 76.4816 15.584C77.1323 15.9467 77.639 16.4587 78.0016 17.12C78.3643 17.7707 78.5456 18.5227 78.5456 19.376ZM76.6416 18.8C76.631 18.128 76.391 17.5893 75.9216 17.184C75.4523 16.7787 74.871 16.576 74.1776 16.576C73.5483 16.576 73.0096 16.7787 72.5616 17.184C72.1136 17.5787 71.847 18.1173 71.7616 18.8H76.6416Z" fill="white"/>
</svg>
