<svg width="178" height="139" viewBox="0 0 178 139" fill="none" xmlns="http://www.w3.org/2000/svg">
<path d="M14.2665 117.12C13.8345 116.288 13.2345 115.664 12.4665 115.248C11.6985 114.816 10.8105 114.6 9.80253 114.6C8.69853 114.6 7.71453 114.848 6.85053 115.344C5.98653 115.84 5.30653 116.544 4.81053 117.456C4.33053 118.368 4.09053 119.424 4.09053 120.624C4.09053 121.824 4.33053 122.888 4.81053 123.816C5.30653 124.728 5.98653 125.432 6.85053 125.928C7.71453 126.424 8.69853 126.672 9.80253 126.672C11.2905 126.672 12.4985 126.256 13.4265 125.424C14.3545 124.592 14.9225 123.464 15.1305 122.04H8.86653V119.856H18.0585V121.992C17.8825 123.288 17.4185 124.48 16.6665 125.568C15.9305 126.656 14.9625 127.528 13.7625 128.184C12.5785 128.824 11.2585 129.144 9.80253 129.144C8.23453 129.144 6.80253 128.784 5.50653 128.064C4.21053 127.328 3.17853 126.312 2.41053 125.016C1.65853 123.72 1.28253 122.256 1.28253 120.624C1.28253 118.992 1.65853 117.528 2.41053 116.232C3.17853 114.936 4.21053 113.928 5.50653 113.208C6.81853 112.472 8.25053 112.104 9.80253 112.104C11.5785 112.104 13.1545 112.544 14.5305 113.424C15.9225 114.288 16.9305 115.52 17.5545 117.12H14.2665ZM19.845 122.328C19.845 121 20.117 119.824 20.661 118.8C21.221 117.776 21.973 116.984 22.917 116.424C23.877 115.848 24.933 115.56 26.085 115.56C27.125 115.56 28.029 115.768 28.797 116.184C29.581 116.584 30.205 117.088 30.669 117.696V115.776H33.429V129H30.669V127.032C30.205 127.656 29.573 128.176 28.773 128.592C27.973 129.008 27.061 129.216 26.037 129.216C24.901 129.216 23.861 128.928 22.917 128.352C21.973 127.76 21.221 126.944 20.661 125.904C20.117 124.848 19.845 123.656 19.845 122.328ZM30.669 122.376C30.669 121.464 30.477 120.672 30.093 120C29.725 119.328 29.237 118.816 28.629 118.464C28.021 118.112 27.365 117.936 26.661 117.936C25.957 117.936 25.301 118.112 24.693 118.464C24.085 118.8 23.589 119.304 23.205 119.976C22.837 120.632 22.653 121.416 22.653 122.328C22.653 123.24 22.837 124.04 23.205 124.728C23.589 125.416 24.085 125.944 24.693 126.312C25.317 126.664 25.973 126.84 26.661 126.84C27.365 126.84 28.021 126.664 28.629 126.312C29.237 125.96 29.725 125.448 30.093 124.776C30.477 124.088 30.669 123.288 30.669 122.376ZM39.7587 111.24V129H37.0227V111.24H39.7587ZM46.0868 111.24V129H43.3508V111.24H46.0868ZM61.7989 122.064C61.7989 122.56 61.7669 123.008 61.7029 123.408H51.5989C51.6789 124.464 52.0709 125.312 52.7749 125.952C53.4789 126.592 54.3429 126.912 55.3669 126.912C56.8389 126.912 57.8789 126.296 58.4869 125.064H61.4389C61.0389 126.28 60.3109 127.28 59.2549 128.064C58.2149 128.832 56.9189 129.216 55.3669 129.216C54.1029 129.216 52.9669 128.936 51.9589 128.376C50.9669 127.8 50.1829 127 49.6069 125.976C49.0469 124.936 48.7669 123.736 48.7669 122.376C48.7669 121.016 49.0389 119.824 49.5829 118.8C50.1429 117.76 50.9189 116.96 51.9109 116.4C52.9189 115.84 54.0709 115.56 55.3669 115.56C56.6149 115.56 57.7269 115.832 58.7029 116.376C59.6789 116.92 60.4389 117.688 60.9829 118.68C61.5269 119.656 61.7989 120.784 61.7989 122.064ZM58.9429 121.2C58.9269 120.192 58.5669 119.384 57.8629 118.776C57.1589 118.168 56.2869 117.864 55.2469 117.864C54.3029 117.864 53.4949 118.168 52.8229 118.776C52.1509 119.368 51.7509 120.176 51.6229 121.2H58.9429ZM67.2274 117.696C67.6274 117.024 68.1554 116.504 68.8114 116.136C69.4834 115.752 70.2754 115.56 71.1874 115.56V118.392H70.4914C69.4194 118.392 68.6034 118.664 68.0434 119.208C67.4994 119.752 67.2274 120.696 67.2274 122.04V129H64.4914V115.776H67.2274V117.696ZM85.6063 115.776L77.4943 135.216H74.6623L77.3503 128.784L72.1423 115.776H75.1903L78.9103 125.856L82.7743 115.776H85.6063ZM96.6415 126.792H102.281V129H93.9055V112.32H96.6415V126.792ZM110.306 129.216C109.058 129.216 107.93 128.936 106.922 128.376C105.914 127.8 105.122 127 104.546 125.976C103.97 124.936 103.682 123.736 103.682 122.376C103.682 121.032 103.978 119.84 104.57 118.8C105.162 117.76 105.97 116.96 106.994 116.4C108.018 115.84 109.162 115.56 110.426 115.56C111.69 115.56 112.834 115.84 113.858 116.4C114.882 116.96 115.69 117.76 116.282 118.8C116.874 119.84 117.17 121.032 117.17 122.376C117.17 123.72 116.866 124.912 116.258 125.952C115.65 126.992 114.818 127.8 113.762 128.376C112.722 128.936 111.57 129.216 110.306 129.216ZM110.306 126.84C111.01 126.84 111.666 126.672 112.274 126.336C112.898 126 113.402 125.496 113.786 124.824C114.17 124.152 114.362 123.336 114.362 122.376C114.362 121.416 114.178 120.608 113.81 119.952C113.442 119.28 112.954 118.776 112.346 118.44C111.738 118.104 111.082 117.936 110.378 117.936C109.674 117.936 109.018 118.104 108.41 118.44C107.818 118.776 107.346 119.28 106.994 119.952C106.642 120.608 106.466 121.416 106.466 122.376C106.466 123.8 106.826 124.904 107.546 125.688C108.282 126.456 109.202 126.84 110.306 126.84ZM118.962 122.376C118.962 121.016 119.234 119.824 119.778 118.8C120.338 117.76 121.106 116.96 122.082 116.4C123.058 115.84 124.178 115.56 125.442 115.56C127.042 115.56 128.362 115.944 129.402 116.712C130.458 117.464 131.17 118.544 131.538 119.952H128.586C128.346 119.296 127.962 118.784 127.434 118.416C126.906 118.048 126.242 117.864 125.442 117.864C124.322 117.864 123.426 118.264 122.754 119.064C122.098 119.848 121.77 120.952 121.77 122.376C121.77 123.8 122.098 124.912 122.754 125.712C123.426 126.512 124.322 126.912 125.442 126.912C127.026 126.912 128.074 126.216 128.586 124.824H131.538C131.154 126.168 130.434 127.24 129.378 128.04C128.322 128.824 127.01 129.216 125.442 129.216C124.178 129.216 123.058 128.936 122.082 128.376C121.106 127.8 120.338 127 119.778 125.976C119.234 124.936 118.962 123.736 118.962 122.376ZM139.497 122.4L145.593 129H141.897L137.001 123.312V129H134.265V111.24H137.001V121.56L141.801 115.776H145.593L139.497 122.4ZM159.53 115.776V129H156.794V127.44C156.362 127.984 155.794 128.416 155.09 128.736C154.402 129.04 153.666 129.192 152.882 129.192C151.842 129.192 150.906 128.976 150.074 128.544C149.258 128.112 148.61 127.472 148.13 126.624C147.666 125.776 147.434 124.752 147.434 123.552V115.776H150.146V123.144C150.146 124.328 150.442 125.24 151.034 125.88C151.626 126.504 152.434 126.816 153.458 126.816C154.482 126.816 155.29 126.504 155.882 125.88C156.49 125.24 156.794 124.328 156.794 123.144V115.776H159.53ZM165.876 117.72C166.34 117.112 166.972 116.6 167.772 116.184C168.572 115.768 169.476 115.56 170.484 115.56C171.636 115.56 172.684 115.848 173.628 116.424C174.588 116.984 175.34 117.776 175.884 118.8C176.428 119.824 176.7 121 176.7 122.328C176.7 123.656 176.428 124.848 175.884 125.904C175.34 126.944 174.588 127.76 173.628 128.352C172.684 128.928 171.636 129.216 170.484 129.216C169.476 129.216 168.58 129.016 167.796 128.616C167.012 128.2 166.372 127.688 165.876 127.08V135.288H163.14V115.776H165.876V117.72ZM173.916 122.328C173.916 121.416 173.724 120.632 173.34 119.976C172.972 119.304 172.476 118.8 171.852 118.464C171.244 118.112 170.588 117.936 169.884 117.936C169.196 117.936 168.54 118.112 167.916 118.464C167.308 118.816 166.812 119.328 166.428 120C166.06 120.672 165.876 121.464 165.876 122.376C165.876 123.288 166.06 124.088 166.428 124.776C166.812 125.448 167.308 125.96 167.916 126.312C168.54 126.664 169.196 126.84 169.884 126.84C170.588 126.84 171.244 126.664 171.852 126.312C172.476 125.944 172.972 125.416 173.34 124.728C173.724 124.04 173.916 123.24 173.916 122.328Z" fill="#333333"/>
<path d="M22.8551 92.4577C22.8551 92.4577 4.7051 73.0987 17.053 50.5494C26.5796 33.1538 49.6236 36.2534 61.4478 43.6115C66.484 46.7435 77.3044 40.9979 91.027 23.5456C106.958 3.2848 168.634 15.6465 157.982 54.3575C152.827 73.0906 173.67 73.7716 163.05 92.4971L22.8551 92.4577Z" fill="#EBF3FA"/>
<path d="M152.041 92.3028H105.995C103.782 92.3021 101.66 91.4195 100.095 89.8493C98.531 88.2791 97.6522 86.1497 97.6523 83.9295V43.9328C97.6544 37.7461 99.4722 31.6969 102.879 26.54C106.286 21.3831 111.13 17.3469 116.809 14.9348C120.146 13.5195 119.347 12.6614 122.962 12.4632C123.543 12.4319 128.435 12.4594 129.021 12.4594C133.141 12.4563 137.221 13.2682 141.028 14.8487C144.836 16.4292 148.295 18.7473 151.208 21.6703C154.122 24.5934 156.432 28.064 158.007 31.8838C159.583 35.7035 160.392 39.7974 160.389 43.9312V83.9279C160.389 85.0278 160.173 86.117 159.754 87.1333C159.335 88.1495 158.72 89.0729 157.944 89.8507C157.169 90.6284 156.249 91.2453 155.236 91.666C154.223 92.0868 153.137 92.3031 152.041 92.3028ZM107.452 45.6009H150.584V43.9328C150.584 32.002 140.909 22.2961 129.018 22.2961C117.126 22.2961 107.452 32.002 107.452 43.9328V45.6009Z" fill="#500428"/>
<path d="M146.486 92.3028H100.44C98.227 92.3028 96.1043 91.4206 94.5391 89.8503C92.974 88.28 92.0948 86.1502 92.0948 83.9295V43.9328C92.0776 39.7889 92.8764 35.6823 94.4451 31.8489C96.0139 28.0155 98.3217 24.5306 101.236 21.5943C104.151 18.658 107.615 16.3281 111.429 14.7383C115.243 13.1485 119.333 12.3301 123.463 12.3301C127.594 12.3301 131.683 13.1485 135.497 14.7383C139.312 16.3281 142.776 18.658 145.69 21.5943C148.605 24.5306 150.912 28.0155 152.481 31.8489C154.05 35.6823 154.849 39.7889 154.832 43.9328V83.9295C154.832 85.0291 154.616 86.1179 154.196 87.1338C153.777 88.1497 153.162 89.0728 152.387 89.8503C151.612 90.6278 150.692 91.2446 149.68 91.6654C148.667 92.0862 147.582 92.3028 146.486 92.3028ZM101.897 45.6008H145.029V43.9328C145.029 32.002 135.354 22.2961 123.463 22.2961C111.571 22.2961 101.897 32.002 101.897 43.9328V45.6008Z" fill="#990049"/>
<path d="M127.345 61.2754C127.346 60.342 127.011 59.4395 126.402 58.7336C125.864 57.9323 124.75 57.3836 123.463 57.3836C122.176 57.3836 121.063 57.9344 120.524 58.7336C120.104 59.2224 119.811 59.8084 119.673 60.4388C119.534 61.0692 119.554 61.7243 119.731 62.3451C119.907 62.9659 120.235 63.5328 120.684 63.995C121.133 64.4572 121.69 64.8001 122.304 64.9928V70.8907C122.304 71.3664 122.823 71.7547 123.463 71.7547C124.103 71.7547 124.622 71.3691 124.622 70.8907V64.9928C125.412 64.7449 126.101 64.2506 126.591 63.5819C127.081 62.9133 127.345 62.1052 127.345 61.2754Z" fill="#500428"/>
<path d="M71.8749 56.2934C71.8012 56.7934 71.2323 57.3734 70.6251 57.8054C69.9717 58.2725 69.7102 58.752 69.4782 58.9934C69.3921 59.0917 69.3393 59.1457 69.3393 59.1457L68.6396 58.3319C68.6516 58.323 68.6625 58.3127 68.6719 58.3011C68.828 58.1305 69.2236 57.7071 69.4873 57.2249C70.0654 56.1627 70.8733 56.0061 70.8733 56.0061C70.8733 56.0061 71.6483 56.12 71.8749 56.2934Z" fill="#FFB27D"/>
<path d="M35.8402 66.5059L36.3116 66.8898C36.3116 66.8898 37.6034 66.4259 37.8919 67.9633C37.8919 67.9633 37.9694 68.6189 37.556 68.62C37.1427 68.621 37.3128 68.5481 36.7272 68.566C36.1416 68.5838 35.6555 68.2733 35.57 67.7965L35.2896 67.3925L35.8402 66.5059Z" fill="#EA8E50"/>
<path d="M35.7863 67.3304C36.1631 66.9362 36.1324 66.6452 36.1324 66.6452C36.1324 66.6452 31.7771 63.0677 31.3352 62.7761C31.0343 62.5774 27.9982 59.6608 26.3297 57.9852C25.5256 57.1796 24.665 57.4576 23.6112 57.7611L22.743 58.0106C21.6951 58.3125 21.4227 59.7829 22.2823 60.4978C24.7043 62.5104 28.7329 64.7741 29.4869 65.2498C31.3583 66.4308 35.0215 67.8343 35.0215 67.8343C35.3072 67.7188 35.5671 67.5475 35.7863 67.3304Z" fill="#258499"/>
<path d="M40.7568 89.3095C40.7568 89.3095 41.8139 90.1039 43.4334 89.6843C43.4334 89.6843 44.7391 89.3857 45.0254 90.0391C45.0254 90.0391 43.0227 91.0597 42.5157 91.3389C42.1341 91.5495 41.7353 91.8789 41.4538 92.1381C41.4009 92.1861 41.3387 92.2228 41.2712 92.246C41.2036 92.2692 41.1321 92.2783 41.0609 92.2727C40.9897 92.2672 40.9204 92.2472 40.8572 92.214C40.794 92.1807 40.7382 92.1348 40.6933 92.0792C40.605 91.9712 40.5044 91.8411 40.394 91.6909C40.0851 91.2714 39.3655 89.9149 39.3655 89.9149L40.7568 89.3095Z" fill="#233862"/>
<path d="M41.3752 88.9061C41.3752 88.9061 40.732 90.3949 39.2466 90.1211C39.2466 90.1211 36.2147 87.6091 34.1334 84.9998C33.4633 84.1525 32.8869 83.295 32.5484 82.512C31.1694 79.3087 27.4476 74.5314 25.0811 72.11L31.0015 69.9613C31.0015 69.9613 32.8977 73.7889 35.4209 78.4896C37.2401 81.8748 39.3838 85.7158 41.3752 88.9061Z" fill="#2B478B"/>
<path d="M35.4214 78.4874L34.1372 84.9998C33.4633 84.1525 32.8869 83.295 32.5484 82.512C31.1694 79.3087 27.4476 74.5314 25.0811 72.11L31.0015 69.9613C31.0015 69.9613 32.8982 73.7867 35.4214 78.4874Z" fill="#233862"/>
<path d="M30.5823 90.1735C30.5823 90.1735 30.5178 91.3615 31.9532 91.5203C31.9532 91.5203 32.7734 91.5246 32.7761 92.2806L28.6038 92.2941C28.6038 92.2941 28.4827 91.989 28.4531 91.3356C28.4305 90.8339 28.9375 89.5223 28.9375 89.5223L30.5823 90.1735Z" fill="#233862"/>
<path d="M29.0603 69.9592C29.0603 69.9592 31.6976 72.8671 33.372 78.1051C34.2832 80.9552 31.7035 88.121 31.1992 90.6109C31.1992 90.6109 29.4683 90.7583 28.2847 90.2993C28.2847 90.2993 28.1949 85.1569 28.887 81.1933C29.2745 78.9755 25.4144 76.4494 23.7276 72.4415C22.5801 69.7151 23.9763 69.761 25.6916 69.6956L29.0603 69.9592Z" fill="#2B478B"/>
<path d="M26.0155 56.9867C24.5483 57.8183 21.5444 57.0515 21.5444 57.0515C21.5444 57.0515 22.764 55.6524 22.2097 53.3984L23.362 53.9854L24.5999 54.6161C24.6654 54.9843 24.7106 55.3559 24.7356 55.7291C24.7501 55.9132 24.7625 56.119 24.7711 56.3436C25.2216 56.4798 25.6434 56.6978 26.0155 56.9867Z" fill="#FFB07B"/>
<path d="M31.3967 69.809C31.3967 70.0677 31.0996 70.1919 31.0361 70.2043C30.444 70.3123 28.7917 70.9603 27.303 71.1055C26.0495 71.2373 24.8858 71.112 23.6075 70.8544C23.438 70.8204 23.0403 70.713 23.0123 70.5504C22.9773 70.3728 18.0805 60.5356 21.8868 56.3101C21.9762 56.2108 22.7275 56.3895 23.4149 56.5531C23.9941 56.6904 24.6018 56.6405 25.1512 56.4106L25.797 56.7507C26.5882 57.193 28.0855 58.7649 28.2605 59.9983C28.3498 60.6258 28.7072 61.0902 28.8105 61.6415C28.8487 61.8456 28.888 62.0454 28.9284 62.2393C29.0063 62.6205 29.0865 62.9834 29.169 63.3279C29.3929 64.2611 29.6292 65.064 29.8617 65.7579C30.1082 66.4945 30.3504 67.1079 30.5673 67.6198C30.8477 68.2846 31.0845 68.7814 31.2331 69.1615C31.3364 69.4288 31.3967 69.6389 31.3967 69.809Z" fill="#3F9EBC"/>
<path d="M31.2319 69.161C24.32 65.8935 21.926 59.6198 21.926 59.6198C21.926 59.6198 27.5418 61.6982 28.9272 62.2393C29.0051 62.6206 29.0853 62.9834 29.1678 63.328C29.3917 64.2611 29.628 65.0641 29.8605 65.758C30.107 66.4945 30.3492 67.108 30.5661 67.6199C30.8465 68.2841 31.0834 68.7809 31.2319 69.161Z" fill="#258499"/>
<path d="M40.0001 67.5492H36.1841C34.4242 67.5472 32.737 66.8449 31.4925 65.5963C30.2481 64.3478 29.5481 62.655 29.5461 60.8893V48.4153C29.548 46.6496 30.2479 44.9567 31.4924 43.7082C32.7368 42.4596 34.4241 41.7574 36.1841 41.7555H40.0001C41.76 41.7574 43.4473 42.4596 44.6917 43.7082C45.9362 44.9567 46.6361 46.6496 46.638 48.4153V60.8893C46.636 62.655 45.936 64.3478 44.6916 65.5963C43.4472 66.8449 41.7599 67.5472 40.0001 67.5492ZM36.1841 45.6889C35.4636 45.6897 34.773 45.9773 34.2636 46.4884C33.7543 46.9995 33.4678 47.6925 33.4671 48.4153V60.8893C33.468 61.612 33.7545 62.3049 34.2638 62.8159C34.7732 63.3269 35.4637 63.6144 36.1841 63.6153H40.0001C40.7204 63.6144 41.411 63.3269 41.9203 62.8159C42.4296 62.3049 42.7162 61.612 42.717 60.8893V48.4153C42.7163 47.6925 42.4299 46.9995 41.9205 46.4884C41.4111 45.9773 40.7205 45.6897 40.0001 45.6889H36.1841Z" fill="#F99746"/>
<path d="M80.0198 56.95H45.0256V52.3546H80.0198C80.6272 52.3546 81.2097 52.5967 81.6392 53.0276C82.0687 53.4585 82.31 54.043 82.31 54.6523C82.31 55.2617 82.0687 55.8462 81.6392 56.2771C81.2097 56.708 80.6272 56.95 80.0198 56.95Z" fill="#F99746"/>
<path d="M75.6272 56.0245H79.3028V65.0295C79.3028 65.5186 79.1091 65.9876 78.7644 66.3335C78.4197 66.6793 77.9522 66.8736 77.4647 66.8736C76.9773 66.8736 76.5098 66.6793 76.1651 66.3335C75.8204 65.9876 75.6267 65.5186 75.6267 65.0295V56.0245H75.6272Z" fill="#F99746"/>
<path d="M35.2757 67.2672L35.8732 67.487C35.8732 67.487 37.0691 66.6387 37.814 68.0189C37.814 68.0189 38.0831 68.6216 37.6568 68.7522C37.2306 68.8829 37.3877 68.7604 36.7865 68.9607C36.1853 69.161 35.5965 69.0147 35.3705 68.587L34.9641 68.2878L35.2757 67.2672Z" fill="#FFB07B"/>
<path d="M35.7677 68.1151C35.9883 67.5367 36.0906 67.2748 36.0906 67.2748C36.0906 67.2748 31.5776 63.5845 31.1179 63.2675C30.8042 63.0515 27.6846 60.7122 26.1636 58.8892C25.7934 58.4453 25.31 58.1107 24.765 57.9212C24.22 57.7316 23.6339 57.6942 23.0694 57.8129L22.1215 58.0122C20.9778 58.2531 20.6059 59.7062 21.4934 60.4692C23.9929 62.6189 28.2083 65.1132 28.9941 65.6311C30.9452 66.9184 35.2612 68.7226 35.2612 68.7226C35.2612 68.7226 35.5943 68.5692 35.7677 68.1151Z" fill="#3F9EBC"/>
<path d="M24.7351 55.728C23.2921 55.8095 22.354 54.614 22.354 54.614C22.354 54.614 23.0063 54.2517 23.3621 53.9844L24.6 54.6151C24.6653 54.9833 24.7104 55.3548 24.7351 55.728Z" fill="#EA8E50"/>
<path d="M25.3503 54.243C25.3503 54.243 23.1635 55.8171 22.2076 54.4358C21.2517 53.0545 20.3238 52.3298 21.6807 51.2644C23.0375 50.1989 23.6753 50.5364 24.1059 50.9198C24.5365 51.3032 25.8944 53.7975 25.3503 54.243Z" fill="#FFB07B"/>
<path d="M24.3373 49.6724C24.2928 49.3609 24.207 49.0567 24.0822 48.7679C24.0822 48.7679 23.9449 49.3382 22.9062 49.2593C21.8674 49.1805 20.2215 49.3619 19.6725 50.5494C19.6375 50.625 19.6069 50.7028 19.5789 50.7827C19.4798 50.5192 19.4556 50.1244 19.4556 50.1244C19.2581 50.6358 19.4556 51.2752 19.4556 51.2752L19.4476 51.3292C19.2183 51.5236 19.0261 52.1284 19.0261 52.1284C19.095 51.9593 19.264 51.8497 19.4142 51.7817C19.4093 52.7056 19.7829 53.6091 20.4368 53.878C21.3959 54.2716 21.3878 53.9714 22.3523 54.6129C22.3523 54.6129 22.6107 54.2889 22.4342 54.0729C22.2576 53.8569 21.5918 53.5421 21.9643 53.2278C22.3367 52.9135 22.4734 53.2667 22.6102 53.0507C22.7469 52.8347 22.0617 52.205 22.9433 51.6154C23.8249 51.0257 24.4154 50.2033 24.3373 49.6724Z" fill="#233862"/>
<path d="M62.6352 91.0505L61.8279 91.3518C61.8279 91.3518 58.3294 86.4826 57.8988 82.1988C57.8219 81.4342 57.845 80.6933 58.014 80.0091C58.014 80.0091 57.9796 79.8131 57.9198 79.4664C57.8924 79.3044 57.8579 79.1105 57.8192 78.887C57.7056 78.2336 57.5501 77.3388 57.3698 76.3198C56.958 73.9751 56.4246 70.9781 56.0107 68.7749L56.226 68.7053L58.5743 67.945L59.0587 66.3984L60.8074 65.9362C60.8074 65.9362 61.1981 66.703 61.5474 70.3247C61.612 70.7999 61.6702 71.3237 61.7143 71.8907C61.8754 74.0057 61.8197 76.1317 61.548 78.2352C61.4676 78.8645 61.3653 79.5136 61.2412 80.1824C61.1492 80.6717 61.1335 81.3391 61.1739 82.1048C61.3526 85.6084 62.6352 91.0505 62.6352 91.0505Z" fill="#3F9EBC"/>
<path d="M61.717 71.8924L57.9198 79.4664C57.8924 79.3044 57.8579 79.1105 57.8192 78.887C57.7056 78.2336 57.5501 77.3388 57.3698 76.3198C56.958 73.9751 56.4246 70.9781 56.0107 68.7749L56.226 68.7053L58.5743 67.945L59.0587 66.3984L60.8074 65.9362C60.8074 65.9362 61.1981 66.703 61.5474 70.3247C61.6126 70.7999 61.6728 71.3237 61.717 71.8924Z" fill="#258499"/>
<path d="M60.0464 66.906L59.9586 66.15C58.4861 66.5426 54.5506 65.0533 54.5506 65.0533C54.5506 65.0533 53.1243 66.3115 53.3127 69.3279C53.4036 70.8 53.571 77.0559 53.7433 78.907C53.8062 79.5782 53.8617 80.0556 53.8843 80.2462C53.8881 80.3034 53.8731 80.3603 53.8418 80.4082C53.5877 80.8415 53.3716 81.2961 53.1959 81.7668C51.4833 86.3444 53.4596 91.9815 53.4596 91.9815L53.972 91.7741C53.972 91.7741 55.1001 85.5063 56.0151 82.735C56.1701 82.2647 56.3186 81.8953 56.4548 81.6745C56.852 81.0313 57.2207 79.9805 57.5555 78.7304C58.1879 76.3674 58.6965 73.2926 59.0356 70.9198C59.083 70.922 60.0464 66.906 60.0464 66.906Z" fill="#3F9EBC"/>
<path d="M69.0318 57.523C69.477 57.7006 69.9124 58.0511 70.3429 58.4874C70.3429 58.4874 67.8311 62.883 66.3854 63.5219C65.5915 63.8729 63.1082 61.2112 62.5953 59.7192C62.4699 59.3547 62.9327 58.1353 62.781 57.8788C62.6064 57.5866 62.4917 57.2624 62.4435 56.9252C62.4317 56.8816 62.4264 56.8364 62.4279 56.7913C62.3966 56.5364 62.4119 56.2781 62.4731 56.0288C62.5307 55.8808 62.6932 55.8171 62.9349 55.8209H63.0199C64.3208 56.5893 66.0302 60.3607 66.3117 60.4492C67.0485 59.5145 69.0318 57.523 69.0318 57.523Z" fill="#2C3A64"/>
<path d="M62.8602 57.7341C62.3979 57.9501 61.8376 58.0959 61.1642 58.1332C58.6319 58.272 58.0571 56.045 57.9526 54.5692C58.2316 54.473 58.5274 54.4362 58.8213 54.4612C59.0011 54.4709 59.1884 54.4898 59.3429 54.5087C59.6529 54.3467 60.2089 53.5578 60.5307 52.2407L60.6384 52.2915L62.4651 53.1555C62.4651 53.1555 62.2714 53.7495 62.1282 54.323C62.0163 54.7695 61.9361 55.2015 62.0028 55.322C62.147 55.3808 62.2332 55.4175 62.2332 55.4175C62.5154 56.1679 62.7254 56.9436 62.8602 57.7341Z" fill="#FFB27D"/>
<path d="M61.3133 47.4276C61.3095 47.3196 61.2245 46.1316 59.4225 46.0685C59.4225 46.0685 60.309 46.1765 60.4618 46.5653C60.4618 46.5653 59.8585 46.0825 59.3671 46.238C58.8757 46.3935 58.5872 47.257 58.5845 47.541C58.5818 47.8251 58.8536 48.7404 59.1663 48.8187C59.2906 48.8439 59.4187 48.8439 59.5431 48.8187C59.4543 48.958 59.3734 49.1022 59.3009 49.2507C58.5818 50.7314 59.3235 52.1786 59.9322 52.0187C60.3224 51.9161 60.4328 52.5846 60.4328 52.5846L64.2256 49.5039C64.2256 49.5039 62.8338 46.6139 61.3133 47.4276Z" fill="#3F9EBC"/>
<path d="M62.4666 53.1473C62.4666 53.1473 62.2729 53.7413 62.1297 54.3148C61.0613 54.0156 60.7373 52.8892 60.6399 52.2855L62.4666 53.1473Z" fill="#ED985F"/>
<path d="M62.6917 53.7785C62.6917 53.7785 60.1367 53.1845 60.5296 51.5943C60.9225 50.004 60.8568 48.8559 62.5049 49.1675C64.153 49.4791 64.3187 50.1643 64.3166 50.7276C64.3144 51.2908 63.3666 53.8919 62.6917 53.7785Z" fill="#FFB27D"/>
<path d="M64.4601 49.8242C64.1851 49.2474 63.8621 49.2782 63.6598 49.3808C62.459 48.2663 61.2819 49.1767 61.2819 49.1767C60.9964 49.8438 60.4889 50.3907 59.8459 50.7238C59.8459 50.7238 60.2388 51.1272 61.3761 51.1185C61.7238 51.1185 62.0758 50.9565 62.3912 50.7351C61.9941 51.1265 61.5458 51.4619 61.0586 51.732C62.4827 51.4587 63.438 49.8042 63.5344 49.626C63.6555 49.8047 63.8858 50.1854 63.9052 50.5067C63.9316 50.943 63.7819 51.7908 64.0311 51.8232C64.0344 51.8259 64.8718 50.6887 64.4601 49.8242Z" fill="#3F9EBC"/>
<path d="M56.4456 92.4075H52.3863C52.3863 92.4075 52.2889 91.787 52.501 91.3167C52.7039 90.8647 53.022 90.6595 52.9456 90.113C53.2034 90.3793 53.6237 90.6779 54.2104 90.599C54.282 90.7162 54.6743 91.3415 54.9144 91.517C55.1797 91.7055 56.3616 91.638 56.4456 92.4075Z" fill="#233862"/>
<path d="M65.1552 92.4075H61.0975C61.0975 92.4075 60.9463 91.7595 61.2122 91.3167C61.4484 90.9257 61.358 90.7027 61.1831 90.3798C61.3987 90.4729 61.6321 90.5169 61.8666 90.5089C62.0685 90.497 62.2827 90.4052 62.47 90.2956C62.6444 90.4954 63.3925 91.3459 63.6261 91.5143C63.8909 91.7055 65.0734 91.638 65.1552 92.4075Z" fill="#233862"/>
<path d="M70.6741 56.95H76.8496L76.5062 54.547L70.9927 54.7689L70.6741 56.95Z" fill="#F99746"/>
<path d="M71.7586 52.3546C71.4706 52.6424 71.4771 53.5648 70.87 53.9989C70.2166 54.466 69.955 54.9456 69.723 55.1869C69.6374 55.2852 69.5847 55.3392 69.5847 55.3392L68.885 54.5254C68.8967 54.5164 68.9074 54.5061 68.9168 54.4947C69.0728 54.324 69.469 53.9006 69.7322 53.4184C70.3102 52.3562 71.1186 52.1996 71.1186 52.1996C71.1186 52.1996 71.5315 52.1813 71.7586 52.3546Z" fill="#FFB27D"/>
<path d="M69.3138 53.8839L70.3429 55.0395C70.3429 55.0395 67.5926 57.4419 67.0183 57.9409C66.6103 58.2892 66.225 58.5732 65.9112 58.7363C65.8802 58.7526 65.8482 58.7669 65.8154 58.779C65.0081 59.1338 63.2642 59.0943 61.522 58.833C61.2809 58.7979 61.043 58.7574 60.8105 58.7196C60.0144 58.586 59.229 58.3945 58.4606 58.1466C58.1042 58.0373 57.7578 57.8977 57.425 57.7292C57.3326 57.6835 57.2427 57.6327 57.1559 57.5769C55.7937 56.7578 55.8593 55.9969 55.8852 55.7242C55.911 55.4515 56.1075 55.0903 56.5623 54.9423C57.6436 54.5902 61.2706 55.9926 61.8051 56.0941C62.128 56.1622 62.9601 56.4586 63.2405 56.5105C63.7788 56.6066 64.2217 56.6687 64.5253 56.6724C64.7217 56.6724 65.0689 56.5526 65.4882 56.3668C66.2175 56.0455 69.3138 53.8839 69.3138 53.8839Z" fill="#253D78"/>
<path d="M69.7182 57.369C69.6326 57.2281 69.624 56.9991 69.624 56.9991C69.743 56.693 70.0062 56.3512 70.1041 56.2815C70.2021 56.2118 70.3307 56.0477 70.3614 56.1584C70.3921 56.2691 70.2451 56.8469 70.0734 57.0764C69.9829 57.2037 69.8603 57.3047 69.7182 57.369Z" fill="#FFB27D"/>
<path d="M130.898 43.5056C131.764 45.0176 132.853 45.6008 132.853 45.6008H137.383C137.383 45.6008 130.236 42.3527 130.898 43.5056Z" fill="#ED7D2B"/>
<path d="M134.108 55.2804C134.226 55.4159 134.328 55.4084 134.269 55.5704C134.269 55.5704 134.243 55.6508 134.242 55.6514C134.135 55.9511 133.93 56.1611 133.516 56.4954C133.462 56.5381 133.408 56.5737 133.368 56.6099C133.357 56.6196 133.284 56.6342 133.274 56.6439C133.263 56.6536 133.201 56.7848 133.193 56.7919C132.806 57.1493 132.885 57.0457 132.191 57.7709C131.399 58.5976 131.422 58.5123 131.267 58.4373C131.135 58.373 131.081 58.2212 131.374 57.7261L131.417 57.6542C131.457 57.5889 131.496 57.5219 131.535 57.4561C131.881 56.8621 131.792 56.585 131.71 55.7021C131.643 54.9845 130.598 51.6942 130.598 51.6942L132.115 51.4323C132.115 51.4323 132.573 54.0524 133.076 54.4564C133.345 54.6724 133.647 54.6724 133.906 54.8344L133.959 54.8684C134.111 54.965 133.989 55.1443 134.108 55.2804Z" fill="#FFB27D"/>
<path d="M134.377 55.2021C134.431 55.2618 134.467 55.336 134.48 55.4157C134.494 55.4953 134.484 55.5771 134.452 55.6513C134.319 55.9505 133.971 56.2831 133.571 56.6163C133.517 56.66 133.472 56.7 133.431 56.7373L133.399 56.7659L133.375 56.788C132.988 57.1455 133.134 57.2276 132.439 57.9528C131.647 58.7795 131.102 58.7946 130.947 58.7196C130.816 58.6553 131.082 58.2168 131.378 57.7238C131.932 57.5069 132.419 57.1468 132.789 56.68C133.266 56.0698 133.584 55.2852 133.909 54.8305L133.963 54.8646C134.115 54.958 134.255 55.0715 134.377 55.2021Z" fill="#3F9EBC"/>
<path d="M121.857 54.162C121.763 54.6318 121.459 54.5 120.713 54.317C119.967 54.1339 120.14 54.3137 119.078 54.1955C118.016 54.0772 117.92 53.9087 117.888 53.75C117.858 53.6096 118.08 53.5146 118.641 53.4492C118.712 53.4417 118.783 53.4325 118.854 53.4238C119.489 53.3439 119.954 52.9324 120.532 52.5949C121.078 52.2747 121.894 50.9712 121.894 50.9712L123.35 51.0867C123.35 51.0867 122.586 52.251 122.291 52.7575C122.117 53.055 122.126 53.4492 122.148 53.7532C122.163 53.9163 121.89 53.9941 121.857 54.162Z" fill="#FFB27D"/>
<path d="M120.631 54.4595C119.885 54.2765 120.062 54.4941 119 54.3758C117.939 54.2576 117.617 53.8607 117.584 53.7024C117.555 53.562 118.08 53.5124 118.643 53.447L118.648 53.4584C119.103 53.751 119.629 53.9148 120.169 53.9325C120.889 53.9498 121.652 53.7429 122.15 53.751C122.168 53.9173 122.164 54.0852 122.139 54.2505C122.045 54.7209 121.377 54.642 120.631 54.4595Z" fill="#3F9EBC"/>
<path d="M127.719 44.9085L129.081 48.5838L130.857 53.3822C131.174 53.4061 131.493 53.3769 131.801 53.2958C132.226 53.1727 132.716 52.8498 132.716 52.8498C132.716 52.8498 132.223 47.6971 131.302 44.7395C131.066 43.9803 130.802 43.3663 130.51 43.0207C129.082 41.3283 127.719 44.9085 127.719 44.9085Z" fill="#ED7D2B"/>
<path d="M129.106 39.0717C129.997 38.7828 132.541 39.1538 135.097 39.6554L135.632 38.7698L141.151 38.3378C141.151 38.3378 142.969 42.3878 141.975 44.9717C141.733 45.6008 140.942 45.6003 140.942 45.6008H136.608C133.864 45.6008 130.799 43.7076 130.403 43.6282C129.754 43.4981 129.495 44.8 128.846 46.1662C128.198 47.5324 122.748 52.2202 122.748 52.2202C122.748 52.2202 121.91 52.2283 121.564 52.0981C121.191 51.9583 121.055 51.7741 121.055 51.7741C121.055 51.7741 127.092 39.7224 129.106 39.0717Z" fill="#F99746"/>
<path d="M135.662 31.144C137.627 32.2299 141.614 34.4806 141.636 34.466C141.636 34.466 143.102 35.0201 143.933 34.466C145.318 33.5432 146.062 31.0581 143.527 28.9197C142.264 27.8532 141.366 27.5935 141.229 25.8908C141.155 24.9669 139.896 21.9175 137.805 22.1994C137.631 22.2256 137.454 22.2374 137.278 22.2345C136.905 22.2227 136.537 22.3181 136.217 22.5094C135.032 23.2162 132.715 30.726 135.662 31.144Z" fill="#233862"/>
<path d="M137.309 30.2201C137.3 30.2255 138.278 30.5597 138.928 30.2697C139.542 29.9997 140.005 28.9851 139.998 28.9845C139.719 28.9716 139.412 28.7264 139.176 27.1194L139.058 27.1626L137.059 27.884C137.059 27.884 137.203 28.5277 137.297 29.14C137.376 29.6547 137.418 30.1472 137.309 30.2201Z" fill="#FFB27D"/>
<path d="M137.059 27.884C137.059 27.884 137.203 28.5277 137.297 29.14C138.445 28.9327 138.896 27.7851 139.058 27.1625L137.059 27.884Z" fill="#ED975D"/>
<path d="M136.761 28.5228C136.761 28.5228 139.496 28.1546 139.241 26.4492C138.986 24.7439 139.167 23.5478 137.411 23.7109C135.655 23.874 135.413 24.5749 135.36 25.1656C135.307 25.7564 136.043 28.5747 136.761 28.5228Z" fill="#FFB27D"/>
<path d="M135.457 24.2309C135.457 24.2309 137.208 25.7429 138.399 25.8665C139.59 25.9902 140.04 25.6052 140.04 25.6052C139.565 25.1784 139.182 24.6583 138.916 24.077C138.855 23.9402 138.759 23.8222 138.638 23.7351C138.516 23.648 138.374 23.5951 138.225 23.5818C137.377 23.5078 135.766 23.4743 135.457 24.2309Z" fill="#233862"/>
<path d="M136.554 24.0953C136.554 24.0953 135.968 24.6634 135.783 25.0846C135.605 25.4918 135.552 26.4643 135.694 26.8504C135.694 26.8504 134.779 25.0684 135.298 24.2044C135.846 23.288 136.554 24.0953 136.554 24.0953Z" fill="#233862"/>
<path d="M135.006 34.2619C135.089 39.8163 135.029 38.6553 135.634 39.1824C135.78 39.3093 136.19 39.3854 136.73 39.4211C138.428 39.5339 141.413 39.2537 141.525 38.9388C141.917 37.8497 141.641 37.5111 141.967 35.8441C142.002 35.6664 142.044 35.4747 142.093 35.2658C142.366 34.1204 142.631 33.7311 141.663 31.8913C140.786 30.2249 139.876 28.8722 139.794 28.9213C137.48 30.2983 137.295 29.1411 137.295 29.1411C137.295 29.1411 134.966 31.5527 135.006 34.2619Z" fill="#3F9EBC"/>
<path d="M129.081 48.5838L130.857 53.3822C131.174 53.4061 131.493 53.3769 131.801 53.2958C132.226 53.1727 132.716 52.8498 132.716 52.8498C132.716 52.8498 132.223 47.6971 131.302 44.7395L129.081 48.5838Z" fill="#F99746"/>
<path d="M137.297 29.14C137.297 29.14 134.918 29.545 134.639 30.5726C134.359 31.6003 132.716 37.6412 132.716 37.6412C132.716 37.6412 133.925 37.8572 134.484 37.2989C135.042 36.7405 136.426 32.0981 136.426 32.0981L137.297 29.14Z" fill="#3F9EBC"/>
<path d="M136.73 39.42C138.428 39.5329 141.413 39.2526 141.525 38.9378C141.917 37.8486 141.64 37.51 141.967 35.843L141.149 33.5297C141.149 33.5297 141.284 36.1055 140.527 36.7832C139.77 37.4609 137.427 38.0911 137.059 38.657C136.881 38.9297 136.765 39.204 136.73 39.42Z" fill="#258499"/>
<path d="M138.675 38.34C138.675 38.34 137.001 37.9658 136.73 38.1148C136.459 38.2639 135.8 38.8071 135.717 38.9961C135.635 39.1851 136.319 38.8525 136.541 38.7925C136.686 38.7536 137.065 38.8859 137.253 38.9486C138.043 39.2132 138.527 39.0771 138.527 39.0771L138.675 38.34Z" fill="#FFB27D"/>
<path d="M139.797 28.9197C139.797 28.9197 142.046 29.0585 142.824 30.1482C143.92 31.6813 146.094 38.2163 144.848 39.0879C143.445 40.0696 138.463 39.3444 138.463 39.3444C138.463 39.3444 138.297 38.5673 138.527 38.1909C138.758 37.8146 142.507 37.206 142.68 37.0337C142.852 36.8615 140.516 33.6485 140.516 33.1279C140.516 32.6074 139.797 28.9197 139.797 28.9197Z" fill="#3F9EBC"/>
<path d="M136.649 38.5803C136.649 38.5803 136.299 39.0344 136.183 39.0884C136.125 39.1201 136.06 39.1344 135.994 39.1295L136.231 38.7023L136.649 38.5803Z" fill="#FFB27D"/>
<path d="M136.73 38.1127L135.71 38.6095C135.73 38.6343 135.756 38.6534 135.786 38.6649C135.816 38.6765 135.848 38.6801 135.879 38.6754C136.005 38.6694 136.322 38.5533 136.322 38.5533L136.73 38.1127Z" fill="#FFB27D"/>
<path d="M136.183 39.7845H128.113L125.686 33.7273H133.744L136.183 39.7845Z" fill="#163560"/>
<path d="M128.019 39.5485H138.675V39.7845H128.113L128.019 39.5485Z" fill="#11294A"/>
<path d="M130.15 36.7556C130.09 36.5429 130.212 36.3701 130.424 36.3701C130.536 36.3763 130.643 36.4165 130.732 36.4854C130.82 36.5543 130.885 36.6486 130.919 36.7556C130.98 36.9716 130.857 37.1412 130.645 37.1412C130.533 37.1351 130.426 37.0949 130.338 37.026C130.249 36.9571 130.184 36.8628 130.15 36.7556Z" fill="white"/>
<path d="M168.353 92.6521H13.7015C13.6473 92.6521 13.5953 92.6307 13.5567 92.5925C13.5181 92.5543 13.4961 92.5024 13.4954 92.448C13.4955 92.3933 13.5172 92.341 13.5557 92.3023C13.5943 92.2636 13.6465 92.2419 13.701 92.2417H168.353C168.407 92.2422 168.459 92.2641 168.497 92.3027C168.536 92.3413 168.557 92.3935 168.557 92.448C168.557 92.5021 168.535 92.5538 168.497 92.5919C168.458 92.6301 168.407 92.6517 168.353 92.6521Z" fill="#2E3552"/>
</svg>
