<svg width="114" height="116" viewBox="0 0 114 116" fill="none" xmlns="http://www.w3.org/2000/svg">
<rect width="114" height="116" rx="8" fill="#F0F0F0"/>
<path d="M25.8528 82.2842V92.0422H24.5788V87.6182H19.6088V92.0422H18.3348V82.2842H19.6088V86.5682H24.5788V82.2842H25.8528ZM29.3022 82.2842V92.0422H28.0282V82.2842H29.3022ZM30.9975 88.1782C30.9975 87.3942 31.1562 86.7082 31.4735 86.1202C31.7908 85.5229 32.2248 85.0609 32.7755 84.7342C33.3355 84.4076 33.9608 84.2442 34.6515 84.2442C35.2488 84.2442 35.8042 84.3842 36.3175 84.6642C36.8308 84.9349 37.2228 85.2942 37.4935 85.7422V81.6822H38.7815V92.0422H37.4935V90.6002C37.2415 91.0576 36.8682 91.4356 36.3735 91.7342C35.8788 92.0236 35.3002 92.1682 34.6375 92.1682C33.9562 92.1682 33.3355 92.0002 32.7755 91.6642C32.2248 91.3282 31.7908 90.8569 31.4735 90.2502C31.1562 89.6436 30.9975 88.9529 30.9975 88.1782ZM37.4935 88.1922C37.4935 87.6136 37.3768 87.1096 37.1435 86.6802C36.9102 86.2509 36.5928 85.9242 36.1915 85.7002C35.7995 85.4669 35.3655 85.3502 34.8895 85.3502C34.4135 85.3502 33.9795 85.4622 33.5875 85.6862C33.1955 85.9102 32.8828 86.2369 32.6495 86.6662C32.4162 87.0956 32.2995 87.5996 32.2995 88.1782C32.2995 88.7662 32.4162 89.2796 32.6495 89.7182C32.8828 90.1476 33.1955 90.4789 33.5875 90.7122C33.9795 90.9362 34.4135 91.0482 34.8895 91.0482C35.3655 91.0482 35.7995 90.9362 36.1915 90.7122C36.5928 90.4789 36.9102 90.1476 37.1435 89.7182C37.3768 89.2796 37.4935 88.7709 37.4935 88.1922ZM47.9344 87.9122C47.9344 88.1549 47.9204 88.4116 47.8924 88.6822H41.7604C41.8071 89.4382 42.0638 90.0309 42.5304 90.4602C43.0064 90.8802 43.5804 91.0902 44.2524 91.0902C44.8031 91.0902 45.2604 90.9642 45.6244 90.7122C45.9978 90.4509 46.2591 90.1056 46.4084 89.6762H47.7804C47.5751 90.4136 47.1644 91.0156 46.5484 91.4822C45.9324 91.9396 45.1671 92.1682 44.2524 92.1682C43.5244 92.1682 42.8711 92.0049 42.2924 91.6782C41.7231 91.3516 41.2751 90.8896 40.9484 90.2922C40.6218 89.6856 40.4584 88.9856 40.4584 88.1922C40.4584 87.3989 40.6171 86.7036 40.9344 86.1062C41.2518 85.5089 41.6951 85.0516 42.2644 84.7342C42.8431 84.4076 43.5058 84.2442 44.2524 84.2442C44.9804 84.2442 45.6244 84.4029 46.1844 84.7202C46.7444 85.0376 47.1738 85.4762 47.4724 86.0362C47.7804 86.5869 47.9344 87.2122 47.9344 87.9122ZM46.6184 87.6462C46.6184 87.1609 46.5111 86.7456 46.2964 86.4002C46.0818 86.0456 45.7878 85.7796 45.4144 85.6022C45.0504 85.4156 44.6444 85.3222 44.1964 85.3222C43.5524 85.3222 43.0018 85.5276 42.5444 85.9382C42.0964 86.3489 41.8398 86.9182 41.7744 87.6462H46.6184ZM54.6225 82.2842V92.0422H53.3485V82.2842H54.6225ZM66.0198 84.2302C66.6172 84.2302 67.1492 84.3562 67.6158 84.6082C68.0825 84.8509 68.4512 85.2196 68.7218 85.7142C68.9925 86.2089 69.1278 86.8109 69.1278 87.5202V92.0422H67.8678V87.7022C67.8678 86.9369 67.6765 86.3536 67.2938 85.9522C66.9205 85.5416 66.4118 85.3362 65.7678 85.3362C65.1052 85.3362 64.5778 85.5509 64.1858 85.9802C63.7938 86.4002 63.5978 87.0116 63.5978 87.8142V92.0422H62.3378V87.7022C62.3378 86.9369 62.1465 86.3536 61.7638 85.9522C61.3905 85.5416 60.8818 85.3362 60.2378 85.3362C59.5752 85.3362 59.0478 85.5509 58.6558 85.9802C58.2638 86.4002 58.0678 87.0116 58.0678 87.8142V92.0422H56.7938V84.3702H58.0678V85.4762C58.3198 85.0749 58.6558 84.7669 59.0758 84.5522C59.5052 84.3376 59.9765 84.2302 60.4898 84.2302C61.1338 84.2302 61.7032 84.3749 62.1978 84.6642C62.6925 84.9536 63.0612 85.3782 63.3038 85.9382C63.5185 85.3969 63.8732 84.9769 64.3678 84.6782C64.8625 84.3796 65.4132 84.2302 66.0198 84.2302ZM70.7416 88.1782C70.7416 87.3942 70.9003 86.7082 71.2176 86.1202C71.535 85.5229 71.969 85.0609 72.5196 84.7342C73.0796 84.4076 73.7003 84.2442 74.3816 84.2442C75.0536 84.2442 75.637 84.3889 76.1316 84.6782C76.6263 84.9676 76.995 85.3316 77.2376 85.7702V84.3702H78.5256V92.0422H77.2376V90.6142C76.9856 91.0622 76.6076 91.4356 76.1036 91.7342C75.609 92.0236 75.0303 92.1682 74.3676 92.1682C73.6863 92.1682 73.0703 92.0002 72.5196 91.6642C71.969 91.3282 71.535 90.8569 71.2176 90.2502C70.9003 89.6436 70.7416 88.9529 70.7416 88.1782ZM77.2376 88.1922C77.2376 87.6136 77.121 87.1096 76.8876 86.6802C76.6543 86.2509 76.337 85.9242 75.9356 85.7002C75.5436 85.4669 75.1096 85.3502 74.6336 85.3502C74.1576 85.3502 73.7236 85.4622 73.3316 85.6862C72.9396 85.9102 72.627 86.2369 72.3936 86.6662C72.1603 87.0956 72.0436 87.5996 72.0436 88.1782C72.0436 88.7662 72.1603 89.2796 72.3936 89.7182C72.627 90.1476 72.9396 90.4789 73.3316 90.7122C73.7236 90.9362 74.1576 91.0482 74.6336 91.0482C75.1096 91.0482 75.5436 90.9362 75.9356 90.7122C76.337 90.4789 76.6543 90.1476 76.8876 89.7182C77.121 89.2796 77.2376 88.7709 77.2376 88.1922ZM83.8426 84.2442C84.5053 84.2442 85.0839 84.3889 85.5786 84.6782C86.0826 84.9676 86.4559 85.3316 86.6986 85.7702V84.3702H87.9866V92.2102C87.9866 92.9102 87.8373 93.5309 87.5386 94.0722C87.2399 94.6229 86.8106 95.0522 86.2506 95.3602C85.6999 95.6682 85.0559 95.8222 84.3186 95.8222C83.3106 95.8222 82.4706 95.5842 81.7986 95.1082C81.1266 94.6322 80.7299 93.9836 80.6086 93.1622H81.8686C82.0086 93.6289 82.2979 94.0022 82.7366 94.2822C83.1753 94.5716 83.7026 94.7162 84.3186 94.7162C85.0186 94.7162 85.5879 94.4969 86.0266 94.0582C86.4746 93.6196 86.6986 93.0036 86.6986 92.2102V90.6002C86.4466 91.0482 86.0733 91.4216 85.5786 91.7202C85.0839 92.0189 84.5053 92.1682 83.8426 92.1682C83.1613 92.1682 82.5406 92.0002 81.9806 91.6642C81.4299 91.3282 80.9959 90.8569 80.6786 90.2502C80.3613 89.6436 80.2026 88.9529 80.2026 88.1782C80.2026 87.3942 80.3613 86.7082 80.6786 86.1202C80.9959 85.5229 81.4299 85.0609 81.9806 84.7342C82.5406 84.4076 83.1613 84.2442 83.8426 84.2442ZM86.6986 88.1922C86.6986 87.6136 86.5819 87.1096 86.3486 86.6802C86.1153 86.2509 85.7979 85.9242 85.3966 85.7002C85.0046 85.4669 84.5706 85.3502 84.0946 85.3502C83.6186 85.3502 83.1846 85.4622 82.7926 85.6862C82.4006 85.9102 82.0879 86.2369 81.8546 86.6662C81.6213 87.0956 81.5046 87.5996 81.5046 88.1782C81.5046 88.7662 81.6213 89.2796 81.8546 89.7182C82.0879 90.1476 82.4006 90.4789 82.7926 90.7122C83.1846 90.9362 83.6186 91.0482 84.0946 91.0482C84.5706 91.0482 85.0046 90.9362 85.3966 90.7122C85.7979 90.4789 86.1153 90.1476 86.3486 89.7182C86.5819 89.2796 86.6986 88.7709 86.6986 88.1922ZM97.1395 87.9122C97.1395 88.1549 97.1255 88.4116 97.0975 88.6822H90.9655C91.0122 89.4382 91.2689 90.0309 91.7355 90.4602C92.2115 90.8802 92.7855 91.0902 93.4575 91.0902C94.0082 91.0902 94.4655 90.9642 94.8295 90.7122C95.2029 90.4509 95.4642 90.1056 95.6135 89.6762H96.9855C96.7802 90.4136 96.3695 91.0156 95.7535 91.4822C95.1375 91.9396 94.3722 92.1682 93.4575 92.1682C92.7295 92.1682 92.0762 92.0049 91.4975 91.6782C90.9282 91.3516 90.4802 90.8896 90.1535 90.2922C89.8269 89.6856 89.6635 88.9856 89.6635 88.1922C89.6635 87.3989 89.8222 86.7036 90.1395 86.1062C90.4569 85.5089 90.9002 85.0516 91.4695 84.7342C92.0482 84.4076 92.7109 84.2442 93.4575 84.2442C94.1855 84.2442 94.8295 84.4029 95.3895 84.7202C95.9495 85.0376 96.3789 85.4762 96.6775 86.0362C96.9855 86.5869 97.1395 87.2122 97.1395 87.9122ZM95.8235 87.6462C95.8235 87.1609 95.7162 86.7456 95.5015 86.4002C95.2869 86.0456 94.9929 85.7796 94.6195 85.6022C94.2555 85.4156 93.8495 85.3222 93.4015 85.3222C92.7575 85.3222 92.2069 85.5276 91.7495 85.9382C91.3015 86.3489 91.0449 86.9182 90.9795 87.6462H95.8235Z" fill="black"/>
<path d="M57.247 69.2837C40.017 69.2837 26 55.3139 26 38.1419C26 20.9699 40.017 7 57.247 7C74.477 7 88.494 20.9699 88.494 38.1419C88.494 55.3139 74.477 69.2837 57.247 69.2837Z" fill="#D9E6E8"/>
<path d="M57.2469 61.9558C70.4436 61.9558 81.1417 51.2937 81.1417 38.1414C81.1417 24.9891 70.4436 14.327 57.2469 14.327C44.0502 14.327 33.3522 24.9891 33.3522 38.1414C33.3522 51.2937 44.0502 61.9558 57.2469 61.9558Z" fill="#2D4452"/>
<path d="M44.3329 25.4128V49.462H68.4633V25.4128H44.3329ZM46.1842 27.6605H66.612V47.2143H46.1842V27.6605ZM50.3949 30.4833C49.8188 30.4833 49.3341 30.7177 48.9413 31.1868C48.5485 31.6559 48.3522 32.2347 48.3522 32.9227C48.3522 33.5794 48.5485 34.142 48.9413 34.6111C49.3341 35.0801 49.8188 35.3146 50.3949 35.3146C50.9449 35.3146 51.416 35.0801 51.8088 34.6111C52.2017 34.142 52.398 33.5794 52.398 32.9227C52.398 32.2347 52.2017 31.6559 51.8088 31.1868C51.416 30.7177 50.9449 30.4833 50.3949 30.4833ZM59.0756 31.6722L54.4407 40.0685L51.9797 37.6291L48.3522 43.2571V44.8998H64.444V38.3009L59.0756 31.6722Z" fill="white"/>
</svg>
